{
	"patcher" : 	{
		"fileversion" : 1,
		"rect" : [ 25.0, 69.0, 870.0, 312.0 ],
		"bglocked" : 0,
		"defrect" : [ 25.0, 69.0, 870.0, 312.0 ],
		"openrect" : [ 0.0, 0.0, 0.0, 0.0 ],
		"openinpresentation" : 0,
		"default_fontsize" : 12.0,
		"default_fontface" : 0,
		"default_fontname" : "Arial",
		"gridonopen" : 0,
		"gridsize" : [ 15.0, 15.0 ],
		"gridsnaponopen" : 0,
		"toolbarvisible" : 1,
		"boxanimatetime" : 200,
		"imprint" : 0,
		"enablehscroll" : 1,
		"enablevscroll" : 1,
		"devicewidth" : 0.0,
		"boxes" : [ 			{
				"box" : 				{
					"maxclass" : "newobj",
					"text" : "p Downsample",
					"id" : "obj-95",
					"fontname" : "Arial",
					"patching_rect" : [ 303.5, 220.5, 90.0, 20.0 ],
					"numinlets" : 0,
					"fontsize" : 12.0,
					"numoutlets" : 0,
					"patcher" : 					{
						"fileversion" : 1,
						"rect" : [ 195.0, 451.0, 962.0, 417.0 ],
						"bglocked" : 0,
						"defrect" : [ 195.0, 451.0, 962.0, 417.0 ],
						"openrect" : [ 0.0, 0.0, 0.0, 0.0 ],
						"openinpresentation" : 0,
						"default_fontsize" : 12.0,
						"default_fontface" : 0,
						"default_fontname" : "Arial",
						"gridonopen" : 0,
						"gridsize" : [ 15.0, 15.0 ],
						"gridsnaponopen" : 0,
						"toolbarvisible" : 1,
						"boxanimatetime" : 200,
						"imprint" : 0,
						"enablehscroll" : 1,
						"enablevscroll" : 1,
						"devicewidth" : 0.0,
						"boxes" : [ 							{
								"box" : 								{
									"maxclass" : "newobj",
									"text" : "!- 1",
									"outlettype" : [ "int" ],
									"id" : "obj-5",
									"fontname" : "Arial",
									"patching_rect" : [ 88.5, 164.5, 32.5, 20.0 ],
									"numinlets" : 2,
									"fontsize" : 12.0,
									"numoutlets" : 1
								}

							}
, 							{
								"box" : 								{
									"maxclass" : "newobj",
									"text" : "gate",
									"outlettype" : [ "" ],
									"id" : "obj-6",
									"fontname" : "Arial",
									"patching_rect" : [ 318.0, 196.5, 44.0, 20.0 ],
									"numinlets" : 2,
									"fontsize" : 12.0,
									"numoutlets" : 1
								}

							}
, 							{
								"box" : 								{
									"maxclass" : "newobj",
									"text" : "gate",
									"outlettype" : [ "" ],
									"id" : "obj-10",
									"fontname" : "Arial",
									"patching_rect" : [ 88.5, 187.5, 44.0, 20.0 ],
									"numinlets" : 2,
									"fontsize" : 12.0,
									"numoutlets" : 1
								}

							}
, 							{
								"box" : 								{
									"maxclass" : "newobj",
									"text" : "t bang i",
									"outlettype" : [ "bang", "int" ],
									"id" : "obj-15",
									"fontname" : "Arial",
									"patching_rect" : [ 520.5, 128.5, 50.0, 20.0 ],
									"numinlets" : 1,
									"fontsize" : 12.0,
									"numoutlets" : 2
								}

							}
, 							{
								"box" : 								{
									"maxclass" : "newobj",
									"text" : "!- 1",
									"outlettype" : [ "int" ],
									"id" : "obj-12",
									"fontname" : "Arial",
									"patching_rect" : [ 63.5, 316.5, 32.5, 20.0 ],
									"numinlets" : 2,
									"fontsize" : 12.0,
									"numoutlets" : 1
								}

							}
, 							{
								"box" : 								{
									"maxclass" : "newobj",
									"text" : "gate",
									"outlettype" : [ "" ],
									"id" : "obj-11",
									"fontname" : "Arial",
									"patching_rect" : [ 385.0, 339.5, 44.0, 20.0 ],
									"numinlets" : 2,
									"fontsize" : 12.0,
									"numoutlets" : 1
								}

							}
, 							{
								"box" : 								{
									"maxclass" : "newobj",
									"text" : "gate",
									"outlettype" : [ "" ],
									"id" : "obj-9",
									"fontname" : "Arial",
									"patching_rect" : [ 63.5, 339.5, 44.0, 20.0 ],
									"numinlets" : 2,
									"fontsize" : 12.0,
									"numoutlets" : 1
								}

							}
, 							{
								"box" : 								{
									"maxclass" : "newobj",
									"text" : "Mu.deviceParameter #1 \"Sample Hard\" #2",
									"outlettype" : [ "", "", "" ],
									"id" : "obj-8",
									"fontname" : "Arial",
									"patching_rect" : [ 409.5, 252.5, 315.0, 20.0 ],
									"numinlets" : 3,
									"fontsize" : 12.0,
									"numoutlets" : 3
								}

							}
, 							{
								"box" : 								{
									"maxclass" : "newobj",
									"text" : "Mu.deviceParameter #1 \"Sample Soft\" #2",
									"outlettype" : [ "", "", "" ],
									"id" : "obj-37",
									"fontname" : "Arial",
									"patching_rect" : [ 88.5, 251.5, 310.0, 20.0 ],
									"numinlets" : 3,
									"fontsize" : 12.0,
									"numoutlets" : 3
								}

							}
, 							{
								"box" : 								{
									"maxclass" : "newobj",
									"text" : "Mu.lemurClient #1/Downsample/x #2",
									"outlettype" : [ "" ],
									"id" : "obj-38",
									"fontname" : "Arial",
									"patching_rect" : [ 213.5, 116.5, 222.0, 20.0 ],
									"numinlets" : 3,
									"fontsize" : 12.0,
									"numoutlets" : 1
								}

							}
, 							{
								"box" : 								{
									"maxclass" : "newobj",
									"text" : "Mu.deviceParameter #1 \"Sample Mode\" #2",
									"outlettype" : [ "", "", "" ],
									"id" : "obj-31",
									"fontname" : "Arial",
									"patching_rect" : [ 520.5, 88.5, 319.0, 20.0 ],
									"numinlets" : 3,
									"fontsize" : 12.0,
									"numoutlets" : 3
								}

							}
, 							{
								"box" : 								{
									"maxclass" : "newobj",
									"text" : "Mu.lemurClient #1/DownsampleMode/x #2",
									"outlettype" : [ "" ],
									"id" : "obj-28",
									"fontname" : "Arial",
									"patching_rect" : [ 520.5, 63.5, 252.0, 20.0 ],
									"numinlets" : 3,
									"fontsize" : 12.0,
									"numoutlets" : 1
								}

							}
 ],
						"lines" : [ 							{
								"patchline" : 								{
									"source" : [ "obj-31", 0 ],
									"destination" : [ "obj-15", 0 ],
									"hidden" : 0,
									"midpoints" : [  ]
								}

							}
, 							{
								"patchline" : 								{
									"source" : [ "obj-28", 0 ],
									"destination" : [ "obj-31", 0 ],
									"hidden" : 0,
									"midpoints" : [  ]
								}

							}
, 							{
								"patchline" : 								{
									"source" : [ "obj-31", 0 ],
									"destination" : [ "obj-28", 0 ],
									"hidden" : 0,
									"midpoints" : [ 530.0, 117.5, 512.0, 117.5, 512.0, 53.5, 530.0, 53.5 ]
								}

							}
, 							{
								"patchline" : 								{
									"source" : [ "obj-6", 0 ],
									"destination" : [ "obj-8", 0 ],
									"hidden" : 0,
									"midpoints" : [  ]
								}

							}
, 							{
								"patchline" : 								{
									"source" : [ "obj-8", 0 ],
									"destination" : [ "obj-11", 1 ],
									"hidden" : 0,
									"midpoints" : [  ]
								}

							}
, 							{
								"patchline" : 								{
									"source" : [ "obj-15", 0 ],
									"destination" : [ "obj-8", 0 ],
									"hidden" : 0,
									"midpoints" : [ 530.0, 243.5, 419.0, 243.5 ]
								}

							}
, 							{
								"patchline" : 								{
									"source" : [ "obj-15", 0 ],
									"destination" : [ "obj-37", 0 ],
									"hidden" : 0,
									"midpoints" : [ 530.0, 241.0, 98.0, 241.0 ]
								}

							}
, 							{
								"patchline" : 								{
									"source" : [ "obj-37", 0 ],
									"destination" : [ "obj-9", 1 ],
									"hidden" : 0,
									"midpoints" : [  ]
								}

							}
, 							{
								"patchline" : 								{
									"source" : [ "obj-10", 0 ],
									"destination" : [ "obj-37", 0 ],
									"hidden" : 0,
									"midpoints" : [  ]
								}

							}
, 							{
								"patchline" : 								{
									"source" : [ "obj-9", 0 ],
									"destination" : [ "obj-38", 0 ],
									"hidden" : 0,
									"midpoints" : [ 73.0, 364.5, 58.0, 364.5, 58.0, 92.5, 223.0, 92.5 ]
								}

							}
, 							{
								"patchline" : 								{
									"source" : [ "obj-11", 0 ],
									"destination" : [ "obj-38", 0 ],
									"hidden" : 0,
									"midpoints" : [ 394.5, 367.5, 54.75, 367.5, 54.75, 88.5, 223.0, 88.5 ]
								}

							}
, 							{
								"patchline" : 								{
									"source" : [ "obj-38", 0 ],
									"destination" : [ "obj-6", 1 ],
									"hidden" : 0,
									"midpoints" : [  ]
								}

							}
, 							{
								"patchline" : 								{
									"source" : [ "obj-38", 0 ],
									"destination" : [ "obj-10", 1 ],
									"hidden" : 0,
									"midpoints" : [  ]
								}

							}
, 							{
								"patchline" : 								{
									"source" : [ "obj-12", 0 ],
									"destination" : [ "obj-9", 0 ],
									"hidden" : 0,
									"midpoints" : [  ]
								}

							}
, 							{
								"patchline" : 								{
									"source" : [ "obj-15", 1 ],
									"destination" : [ "obj-12", 0 ],
									"hidden" : 0,
									"midpoints" : [ 561.0, 307.5, 73.0, 307.5 ]
								}

							}
, 							{
								"patchline" : 								{
									"source" : [ "obj-15", 1 ],
									"destination" : [ "obj-11", 0 ],
									"hidden" : 0,
									"midpoints" : [ 561.0, 312.0, 394.5, 312.0 ]
								}

							}
, 							{
								"patchline" : 								{
									"source" : [ "obj-5", 0 ],
									"destination" : [ "obj-10", 0 ],
									"hidden" : 0,
									"midpoints" : [  ]
								}

							}
, 							{
								"patchline" : 								{
									"source" : [ "obj-15", 1 ],
									"destination" : [ "obj-6", 0 ],
									"hidden" : 0,
									"midpoints" : [ 561.0, 171.0, 327.5, 171.0 ]
								}

							}
, 							{
								"patchline" : 								{
									"source" : [ "obj-15", 1 ],
									"destination" : [ "obj-5", 0 ],
									"hidden" : 0,
									"midpoints" : [ 561.0, 158.5, 98.0, 158.5 ]
								}

							}
 ]
					}
,
					"saved_object_attributes" : 					{
						"fontname" : "Arial",
						"default_fontface" : 0,
						"globalpatchername" : "",
						"default_fontname" : "Arial",
						"fontface" : 0,
						"fontsize" : 12.0,
						"default_fontsize" : 12.0
					}

				}

			}
, 			{
				"box" : 				{
					"maxclass" : "newobj",
					"text" : "Mu.lemurClient #1/DownsampleMode/x #2",
					"outlettype" : [ "" ],
					"id" : "obj-3",
					"fontname" : "Arial",
					"patching_rect" : [ 528.0, 202.0, 252.0, 20.0 ],
					"numinlets" : 3,
					"fontsize" : 12.0,
					"numoutlets" : 1
				}

			}
, 			{
				"box" : 				{
					"maxclass" : "newobj",
					"text" : "Mu.deviceParameter #1 \"Sample Mode\" #2",
					"outlettype" : [ "", "", "" ],
					"id" : "obj-4",
					"fontname" : "Arial",
					"patching_rect" : [ 528.0, 224.0, 319.0, 20.0 ],
					"numinlets" : 3,
					"fontsize" : 12.0,
					"numoutlets" : 3
				}

			}
, 			{
				"box" : 				{
					"maxclass" : "newobj",
					"text" : "Mu.lemurClient #1/Bitdepth/x #2",
					"outlettype" : [ "" ],
					"id" : "obj-1",
					"fontname" : "Arial",
					"patching_rect" : [ 528.0, 114.0, 197.0, 20.0 ],
					"numinlets" : 3,
					"fontsize" : 12.0,
					"numoutlets" : 1
				}

			}
, 			{
				"box" : 				{
					"maxclass" : "newobj",
					"text" : "Mu.deviceParameter #1 \"Bit Depth\" #2",
					"outlettype" : [ "", "", "" ],
					"id" : "obj-2",
					"fontname" : "Arial",
					"patching_rect" : [ 528.0, 136.0, 294.0, 20.0 ],
					"numinlets" : 3,
					"fontsize" : 12.0,
					"numoutlets" : 3
				}

			}
, 			{
				"box" : 				{
					"maxclass" : "newobj",
					"text" : "Mu.lemurClient #1/BitreductionOnOff/x #2",
					"outlettype" : [ "" ],
					"id" : "obj-13",
					"fontname" : "Arial",
					"patching_rect" : [ 529.0, 25.0, 248.0, 20.0 ],
					"numinlets" : 3,
					"fontsize" : 12.0,
					"numoutlets" : 1
				}

			}
, 			{
				"box" : 				{
					"maxclass" : "newobj",
					"text" : "Mu.deviceParameter #1 \"Bit On\" #2",
					"outlettype" : [ "", "", "" ],
					"id" : "obj-34",
					"fontname" : "Arial",
					"patching_rect" : [ 528.0, 48.0, 278.0, 20.0 ],
					"numinlets" : 3,
					"fontsize" : 12.0,
					"numoutlets" : 3
				}

			}
, 			{
				"box" : 				{
					"maxclass" : "newobj",
					"text" : "Mu.lemurClient #1/DeviceOn/x #2",
					"outlettype" : [ "" ],
					"id" : "obj-32",
					"fontname" : "Arial",
					"patching_rect" : [ 30.0, 33.0, 205.0, 20.0 ],
					"numinlets" : 3,
					"fontsize" : 12.0,
					"numoutlets" : 1
				}

			}
, 			{
				"box" : 				{
					"maxclass" : "toggle",
					"outlettype" : [ "int" ],
					"id" : "obj-50",
					"patching_rect" : [ 30.0, 56.0, 20.0, 20.0 ],
					"numinlets" : 1,
					"numoutlets" : 1
				}

			}
, 			{
				"box" : 				{
					"maxclass" : "newobj",
					"text" : "Mu.deviceParameter #1 \"Device On\" #2",
					"outlettype" : [ "", "", "" ],
					"id" : "obj-48",
					"fontname" : "Arial",
					"patching_rect" : [ 30.0, 78.0, 301.0, 20.0 ],
					"numinlets" : 3,
					"fontsize" : 12.0,
					"numoutlets" : 3
				}

			}
, 			{
				"box" : 				{
					"maxclass" : "comment",
					"text" : "\"Device On\", 112 0. 1. \"Device On\";\n\"Bit On\", 113 0. 1. \"Bit On\";\n\"Bit Depth\", 114 1. 16. \"Bit Depth\";\n\"Sample Mode\", 115 0. 1. \"Sample Mode\";\n\"Sample Hard\", 116 1. 200. \"Sample Hard\";\n\"Sample Soft\", 117 1. 20. \"Sample Soft\";\n",
					"linecount" : 6,
					"id" : "obj-6",
					"fontname" : "Arial",
					"patching_rect" : [ 16.0, 182.0, 222.0, 75.0 ],
					"numinlets" : 1,
					"fontsize" : 10.0,
					"numoutlets" : 0
				}

			}
 ],
		"lines" : [ 			{
				"patchline" : 				{
					"source" : [ "obj-34", 0 ],
					"destination" : [ "obj-13", 0 ],
					"hidden" : 0,
					"midpoints" : [ 537.5, 75.0, 519.0, 75.0, 519.0, 17.0, 538.5, 17.0 ]
				}

			}
, 			{
				"patchline" : 				{
					"source" : [ "obj-13", 0 ],
					"destination" : [ "obj-34", 0 ],
					"hidden" : 0,
					"midpoints" : [  ]
				}

			}
, 			{
				"patchline" : 				{
					"source" : [ "obj-1", 0 ],
					"destination" : [ "obj-2", 0 ],
					"hidden" : 0,
					"midpoints" : [  ]
				}

			}
, 			{
				"patchline" : 				{
					"source" : [ "obj-2", 0 ],
					"destination" : [ "obj-1", 0 ],
					"hidden" : 0,
					"midpoints" : [ 537.5, 161.0, 519.0, 161.0, 519.0, 105.0, 537.5, 105.0 ]
				}

			}
, 			{
				"patchline" : 				{
					"source" : [ "obj-3", 0 ],
					"destination" : [ "obj-4", 0 ],
					"hidden" : 0,
					"midpoints" : [  ]
				}

			}
, 			{
				"patchline" : 				{
					"source" : [ "obj-4", 0 ],
					"destination" : [ "obj-3", 0 ],
					"hidden" : 0,
					"midpoints" : [ 537.5, 252.0, 518.0, 252.0, 518.0, 194.0, 537.5, 194.0 ]
				}

			}
, 			{
				"patchline" : 				{
					"source" : [ "obj-50", 0 ],
					"destination" : [ "obj-48", 0 ],
					"hidden" : 0,
					"midpoints" : [  ]
				}

			}
, 			{
				"patchline" : 				{
					"source" : [ "obj-48", 0 ],
					"destination" : [ "obj-32", 0 ],
					"hidden" : 0,
					"midpoints" : [ 39.5, 103.0, 24.0, 103.0, 24.0, 27.0, 39.5, 27.0 ]
				}

			}
, 			{
				"patchline" : 				{
					"source" : [ "obj-32", 0 ],
					"destination" : [ "obj-50", 0 ],
					"hidden" : 0,
					"midpoints" : [  ]
				}

			}
 ]
	}

}
