{
	"patcher" : 	{
		"fileversion" : 1,
		"rect" : [ 264.0, 112.0, 790.0, 655.0 ],
		"bglocked" : 0,
		"defrect" : [ 264.0, 112.0, 790.0, 655.0 ],
		"openrect" : [ 0.0, 0.0, 0.0, 0.0 ],
		"openinpresentation" : 0,
		"default_fontsize" : 12.0,
		"default_fontface" : 0,
		"default_fontname" : "Arial",
		"gridonopen" : 0,
		"gridsize" : [ 15.0, 15.0 ],
		"gridsnaponopen" : 0,
		"toolbarvisible" : 1,
		"boxanimatetime" : 200,
		"imprint" : 0,
		"enablehscroll" : 1,
		"enablevscroll" : 1,
		"devicewidth" : 0.0,
		"boxes" : [ 			{
				"box" : 				{
					"maxclass" : "newobj",
					"text" : "Mu.lemurClient #1/performanceMode/x #2",
					"patching_rect" : [ 43.0, 567.0, 235.0, 20.0 ],
					"id" : "obj-14",
					"fontname" : "Arial",
					"numinlets" : 3,
					"numoutlets" : 1,
					"fontsize" : 12.0,
					"outlettype" : [ "" ]
				}

			}
, 			{
				"box" : 				{
					"maxclass" : "newobj",
					"text" : "Mu.deviceParameter #1 performanceMode  #2",
					"patching_rect" : [ 43.0, 593.0, 259.0, 20.0 ],
					"id" : "obj-15",
					"fontname" : "Arial",
					"numinlets" : 3,
					"numoutlets" : 3,
					"fontsize" : 12.0,
					"outlettype" : [ "", "", "" ]
				}

			}
, 			{
				"box" : 				{
					"maxclass" : "newobj",
					"text" : "Mu.lemurClient #1/followView/x #2",
					"patching_rect" : [ 43.0, 475.0, 194.0, 20.0 ],
					"id" : "obj-12",
					"fontname" : "Arial",
					"numinlets" : 3,
					"numoutlets" : 1,
					"fontsize" : 12.0,
					"outlettype" : [ "" ]
				}

			}
, 			{
				"box" : 				{
					"maxclass" : "newobj",
					"text" : "Mu.deviceParameter #1 followView  #2",
					"patching_rect" : [ 43.0, 501.0, 218.0, 20.0 ],
					"id" : "obj-13",
					"fontname" : "Arial",
					"numinlets" : 3,
					"numoutlets" : 3,
					"fontsize" : 12.0,
					"outlettype" : [ "", "", "" ]
				}

			}
, 			{
				"box" : 				{
					"maxclass" : "newobj",
					"text" : "Mu.lemurClient #1/layoutAnimations/x #2",
					"patching_rect" : [ 43.0, 392.0, 229.0, 20.0 ],
					"id" : "obj-10",
					"fontname" : "Arial",
					"numinlets" : 3,
					"numoutlets" : 1,
					"fontsize" : 12.0,
					"outlettype" : [ "" ]
				}

			}
, 			{
				"box" : 				{
					"maxclass" : "newobj",
					"text" : "Mu.deviceParameter #1 layoutAnimations  #2",
					"patching_rect" : [ 43.0, 418.0, 253.0, 20.0 ],
					"id" : "obj-11",
					"fontname" : "Arial",
					"numinlets" : 3,
					"numoutlets" : 3,
					"fontsize" : 12.0,
					"outlettype" : [ "", "", "" ]
				}

			}
, 			{
				"box" : 				{
					"maxclass" : "newobj",
					"text" : "Mu.lemurClient #1/masterFader/x #2",
					"patching_rect" : [ 43.0, 310.0, 205.0, 20.0 ],
					"id" : "obj-7",
					"fontname" : "Arial",
					"numinlets" : 3,
					"numoutlets" : 1,
					"fontsize" : 12.0,
					"outlettype" : [ "" ]
				}

			}
, 			{
				"box" : 				{
					"maxclass" : "newobj",
					"text" : "Mu.deviceParameter #1 masterVolume  #2",
					"patching_rect" : [ 43.0, 336.0, 238.0, 20.0 ],
					"id" : "obj-9",
					"fontname" : "Arial",
					"numinlets" : 3,
					"numoutlets" : 3,
					"fontsize" : 12.0,
					"outlettype" : [ "", "", "" ]
				}

			}
, 			{
				"box" : 				{
					"maxclass" : "newobj",
					"text" : "- 1",
					"patching_rect" : [ 43.0, 206.0, 32.5, 20.0 ],
					"id" : "obj-8",
					"fontname" : "Arial",
					"numinlets" : 2,
					"numoutlets" : 1,
					"fontsize" : 12.0,
					"outlettype" : [ "int" ]
				}

			}
, 			{
				"box" : 				{
					"maxclass" : "newobj",
					"text" : "zl sub 1.",
					"patching_rect" : [ 43.0, 181.0, 55.0, 20.0 ],
					"id" : "obj-3",
					"fontname" : "Arial",
					"numinlets" : 2,
					"numoutlets" : 2,
					"fontsize" : 12.0,
					"outlettype" : [ "", "" ]
				}

			}
, 			{
				"box" : 				{
					"maxclass" : "newobj",
					"text" : "Mu.id2list 2",
					"patching_rect" : [ 43.0, 253.0, 71.0, 20.0 ],
					"id" : "obj-1",
					"fontname" : "Arial",
					"numinlets" : 1,
					"numoutlets" : 1,
					"fontsize" : 12.0,
					"outlettype" : [ "" ]
				}

			}
, 			{
				"box" : 				{
					"maxclass" : "newobj",
					"text" : "Mu.lemurClient #1/volumeLimit/x #2",
					"patching_rect" : [ 43.0, 157.0, 201.0, 20.0 ],
					"id" : "obj-51",
					"fontname" : "Arial",
					"numinlets" : 3,
					"numoutlets" : 1,
					"fontsize" : 12.0,
					"outlettype" : [ "" ]
				}

			}
, 			{
				"box" : 				{
					"maxclass" : "newobj",
					"text" : "Mu.deviceParameter #1 volumeLimit #2",
					"patching_rect" : [ 43.0, 229.0, 222.0, 20.0 ],
					"id" : "obj-28",
					"fontname" : "Arial",
					"numinlets" : 3,
					"numoutlets" : 3,
					"fontsize" : 12.0,
					"outlettype" : [ "", "", "" ]
				}

			}
, 			{
				"box" : 				{
					"maxclass" : "newobj",
					"text" : "Mu.lemurClient #1/DeviceOn/x #2",
					"patching_rect" : [ 43.0, 34.0, 205.0, 20.0 ],
					"id" : "obj-32",
					"fontname" : "Arial",
					"numinlets" : 3,
					"numoutlets" : 1,
					"fontsize" : 12.0,
					"outlettype" : [ "" ]
				}

			}
, 			{
				"box" : 				{
					"maxclass" : "toggle",
					"patching_rect" : [ 43.0, 57.0, 20.0, 20.0 ],
					"id" : "obj-50",
					"numinlets" : 1,
					"numoutlets" : 1,
					"outlettype" : [ "int" ]
				}

			}
, 			{
				"box" : 				{
					"maxclass" : "newobj",
					"text" : "Mu.deviceParameter #1 \"Device On\" #2",
					"patching_rect" : [ 43.0, 79.0, 301.0, 20.0 ],
					"id" : "obj-48",
					"fontname" : "Arial",
					"numinlets" : 3,
					"numoutlets" : 3,
					"fontsize" : 12.0,
					"outlettype" : [ "", "", "" ]
				}

			}
, 			{
				"box" : 				{
					"maxclass" : "comment",
					"text" : "\"Device On\", 25 0. 1. \"Device On\";\nfollowView, 26 0. 1. followView;\nlayoutAnimations, 27 0. 1. layoutAnimations;\nlive.text, 28 0. 1. live.text;\nmasterVolume, 29 0. 1. masterVolume;\nperformanceMode, 30 0. 1. performanceMode;\ntempoStepSize, 31 0.001 10. tempoStepSize;\nvolumeLimit, 32 0. 1. volumeLimit;\n",
					"linecount" : 8,
					"patching_rect" : [ 403.0, 462.0, 288.0, 117.0 ],
					"id" : "obj-2",
					"fontname" : "Arial",
					"numinlets" : 1,
					"numoutlets" : 0,
					"fontsize" : 12.0
				}

			}
 ],
		"lines" : [ 			{
				"patchline" : 				{
					"source" : [ "obj-9", 0 ],
					"destination" : [ "obj-7", 0 ],
					"hidden" : 0,
					"midpoints" : [ 52.5, 364.0, 37.0, 364.0, 37.0, 301.0, 52.5, 301.0 ]
				}

			}
, 			{
				"patchline" : 				{
					"source" : [ "obj-7", 0 ],
					"destination" : [ "obj-9", 0 ],
					"hidden" : 0,
					"midpoints" : [  ]
				}

			}
, 			{
				"patchline" : 				{
					"source" : [ "obj-15", 0 ],
					"destination" : [ "obj-14", 0 ],
					"hidden" : 0,
					"midpoints" : [ 52.5, 621.0, 34.0, 621.0, 34.0, 558.0, 52.5, 558.0 ]
				}

			}
, 			{
				"patchline" : 				{
					"source" : [ "obj-14", 0 ],
					"destination" : [ "obj-15", 0 ],
					"hidden" : 0,
					"midpoints" : [  ]
				}

			}
, 			{
				"patchline" : 				{
					"source" : [ "obj-12", 0 ],
					"destination" : [ "obj-13", 0 ],
					"hidden" : 0,
					"midpoints" : [  ]
				}

			}
, 			{
				"patchline" : 				{
					"source" : [ "obj-13", 0 ],
					"destination" : [ "obj-12", 0 ],
					"hidden" : 0,
					"midpoints" : [ 52.5, 529.0, 35.0, 529.0, 35.0, 466.0, 52.5, 466.0 ]
				}

			}
, 			{
				"patchline" : 				{
					"source" : [ "obj-11", 0 ],
					"destination" : [ "obj-10", 0 ],
					"hidden" : 0,
					"midpoints" : [ 52.5, 446.0, 37.0, 446.0, 37.0, 383.0, 52.5, 383.0 ]
				}

			}
, 			{
				"patchline" : 				{
					"source" : [ "obj-10", 0 ],
					"destination" : [ "obj-11", 0 ],
					"hidden" : 0,
					"midpoints" : [  ]
				}

			}
, 			{
				"patchline" : 				{
					"source" : [ "obj-1", 0 ],
					"destination" : [ "obj-51", 0 ],
					"hidden" : 0,
					"midpoints" : [ 52.5, 282.0, 37.5, 282.0, 37.5, 147.0, 52.5, 147.0 ]
				}

			}
, 			{
				"patchline" : 				{
					"source" : [ "obj-28", 0 ],
					"destination" : [ "obj-1", 0 ],
					"hidden" : 0,
					"midpoints" : [  ]
				}

			}
, 			{
				"patchline" : 				{
					"source" : [ "obj-51", 0 ],
					"destination" : [ "obj-3", 0 ],
					"hidden" : 0,
					"midpoints" : [  ]
				}

			}
, 			{
				"patchline" : 				{
					"source" : [ "obj-3", 0 ],
					"destination" : [ "obj-8", 0 ],
					"hidden" : 0,
					"midpoints" : [  ]
				}

			}
, 			{
				"patchline" : 				{
					"source" : [ "obj-50", 0 ],
					"destination" : [ "obj-48", 0 ],
					"hidden" : 0,
					"midpoints" : [  ]
				}

			}
, 			{
				"patchline" : 				{
					"source" : [ "obj-48", 0 ],
					"destination" : [ "obj-32", 0 ],
					"hidden" : 0,
					"midpoints" : [ 52.5, 104.0, 37.0, 104.0, 37.0, 28.0, 52.5, 28.0 ]
				}

			}
, 			{
				"patchline" : 				{
					"source" : [ "obj-32", 0 ],
					"destination" : [ "obj-50", 0 ],
					"hidden" : 0,
					"midpoints" : [  ]
				}

			}
, 			{
				"patchline" : 				{
					"source" : [ "obj-8", 0 ],
					"destination" : [ "obj-28", 0 ],
					"hidden" : 0,
					"midpoints" : [  ]
				}

			}
 ]
	}

}
