{
	"patcher" : 	{
		"fileversion" : 1,
		"rect" : [ 570.0, 189.0, 870.0, 312.0 ],
		"bglocked" : 0,
		"defrect" : [ 570.0, 189.0, 870.0, 312.0 ],
		"openrect" : [ 0.0, 0.0, 0.0, 0.0 ],
		"openinpresentation" : 0,
		"default_fontsize" : 12.0,
		"default_fontface" : 0,
		"default_fontname" : "Arial",
		"gridonopen" : 0,
		"gridsize" : [ 15.0, 15.0 ],
		"gridsnaponopen" : 0,
		"toolbarvisible" : 1,
		"boxanimatetime" : 200,
		"imprint" : 0,
		"enablehscroll" : 1,
		"enablevscroll" : 1,
		"devicewidth" : 0.0,
		"boxes" : [ 			{
				"box" : 				{
					"maxclass" : "newobj",
					"text" : "Mu.lemurClient #1/Width/x #2",
					"outlettype" : [ "" ],
					"id" : "obj-1",
					"fontname" : "Arial",
					"patching_rect" : [ 354.0, 118.0, 183.0, 20.0 ],
					"numinlets" : 3,
					"fontsize" : 12.0,
					"numoutlets" : 1
				}

			}
, 			{
				"box" : 				{
					"maxclass" : "newobj",
					"text" : "Mu.deviceParameter #1 StereoSeparation #2",
					"outlettype" : [ "", "", "" ],
					"id" : "obj-2",
					"fontname" : "Arial",
					"patching_rect" : [ 354.0, 140.0, 330.0, 20.0 ],
					"numinlets" : 3,
					"fontsize" : 12.0,
					"numoutlets" : 3
				}

			}
, 			{
				"box" : 				{
					"maxclass" : "newobj",
					"text" : "Mu.lemurClient #1/Gain/x #2",
					"outlettype" : [ "" ],
					"id" : "obj-13",
					"fontname" : "Arial",
					"patching_rect" : [ 355.0, 29.0, 178.0, 20.0 ],
					"numinlets" : 3,
					"fontsize" : 12.0,
					"numoutlets" : 1
				}

			}
, 			{
				"box" : 				{
					"maxclass" : "newobj",
					"text" : "Mu.deviceParameter #1 Gain #2",
					"outlettype" : [ "", "", "" ],
					"id" : "obj-34",
					"fontname" : "Arial",
					"patching_rect" : [ 354.0, 52.0, 262.0, 20.0 ],
					"numinlets" : 3,
					"fontsize" : 12.0,
					"numoutlets" : 3
				}

			}
, 			{
				"box" : 				{
					"maxclass" : "newobj",
					"text" : "Mu.lemurClient #1/DeviceOn/x #2",
					"outlettype" : [ "" ],
					"id" : "obj-32",
					"fontname" : "Arial",
					"patching_rect" : [ 30.0, 33.0, 205.0, 20.0 ],
					"numinlets" : 3,
					"fontsize" : 12.0,
					"numoutlets" : 1
				}

			}
, 			{
				"box" : 				{
					"maxclass" : "toggle",
					"outlettype" : [ "int" ],
					"id" : "obj-50",
					"patching_rect" : [ 30.0, 56.0, 20.0, 20.0 ],
					"numinlets" : 1,
					"numoutlets" : 1
				}

			}
, 			{
				"box" : 				{
					"maxclass" : "newobj",
					"text" : "Mu.deviceParameter #1 \"Device On\" #2",
					"outlettype" : [ "", "", "" ],
					"id" : "obj-48",
					"fontname" : "Arial",
					"patching_rect" : [ 30.0, 78.0, 301.0, 20.0 ],
					"numinlets" : 3,
					"fontsize" : 12.0,
					"numoutlets" : 3
				}

			}
, 			{
				"box" : 				{
					"maxclass" : "comment",
					"text" : "\"Device On\", 35 0. 1. \"Device On\";\nGain, 36 -35. 35. Gain;\nPanorama, 37 -1. 1. Panorama;\n\"Signal Source\", 38 0. 3. \"Signal Source\";\nStereoSeparation, 39 0. 2. StereoSeparation;\nPhaseInvertL, 40 0. 1. PhaseInvertL;\nPhaseInvertR, 41 0. 1. PhaseInvertR;\nMute, 42 0. 1. Mute;\nBlockDc, 43 0. 1. BlockDc;\n",
					"linecount" : 9,
					"id" : "obj-6",
					"fontname" : "Arial",
					"patching_rect" : [ 16.0, 182.0, 220.0, 110.0 ],
					"numinlets" : 1,
					"fontsize" : 10.0,
					"numoutlets" : 0
				}

			}
 ],
		"lines" : [ 			{
				"patchline" : 				{
					"source" : [ "obj-2", 0 ],
					"destination" : [ "obj-1", 0 ],
					"hidden" : 0,
					"midpoints" : [ 363.5, 165.0, 345.0, 165.0, 345.0, 109.0, 363.5, 109.0 ]
				}

			}
, 			{
				"patchline" : 				{
					"source" : [ "obj-1", 0 ],
					"destination" : [ "obj-2", 0 ],
					"hidden" : 0,
					"midpoints" : [  ]
				}

			}
, 			{
				"patchline" : 				{
					"source" : [ "obj-13", 0 ],
					"destination" : [ "obj-34", 0 ],
					"hidden" : 0,
					"midpoints" : [  ]
				}

			}
, 			{
				"patchline" : 				{
					"source" : [ "obj-34", 0 ],
					"destination" : [ "obj-13", 0 ],
					"hidden" : 0,
					"midpoints" : [ 363.5, 79.0, 345.0, 79.0, 345.0, 21.0, 364.5, 21.0 ]
				}

			}
, 			{
				"patchline" : 				{
					"source" : [ "obj-50", 0 ],
					"destination" : [ "obj-48", 0 ],
					"hidden" : 0,
					"midpoints" : [  ]
				}

			}
, 			{
				"patchline" : 				{
					"source" : [ "obj-48", 0 ],
					"destination" : [ "obj-32", 0 ],
					"hidden" : 0,
					"midpoints" : [ 39.5, 103.0, 24.0, 103.0, 24.0, 27.0, 39.5, 27.0 ]
				}

			}
, 			{
				"patchline" : 				{
					"source" : [ "obj-32", 0 ],
					"destination" : [ "obj-50", 0 ],
					"hidden" : 0,
					"midpoints" : [  ]
				}

			}
 ]
	}

}
