{
	"patcher" : 	{
		"fileversion" : 1,
		"rect" : [ 268.0, 44.0, 1096.0, 619.0 ],
		"bglocked" : 0,
		"defrect" : [ 268.0, 44.0, 1096.0, 619.0 ],
		"openrect" : [ 0.0, 0.0, 0.0, 0.0 ],
		"openinpresentation" : 0,
		"default_fontsize" : 12.0,
		"default_fontface" : 0,
		"default_fontname" : "Arial",
		"gridonopen" : 0,
		"gridsize" : [ 15.0, 15.0 ],
		"gridsnaponopen" : 0,
		"toolbarvisible" : 1,
		"boxanimatetime" : 200,
		"imprint" : 0,
		"enablehscroll" : 1,
		"enablevscroll" : 1,
		"devicewidth" : 0.0,
		"boxes" : [ 			{
				"box" : 				{
					"maxclass" : "newobj",
					"text" : "Mu.lemurClient #1/ColorDepth/x #2",
					"fontname" : "Arial",
					"id" : "obj-37",
					"numinlets" : 3,
					"numoutlets" : 1,
					"fontsize" : 12.0,
					"patching_rect" : [ 427.0, 259.0, 178.0, 20.0 ],
					"outlettype" : [ "" ]
				}

			}
, 			{
				"box" : 				{
					"maxclass" : "newobj",
					"text" : "Mu.deviceParameter #1 Depth #2",
					"fontname" : "Arial",
					"id" : "obj-38",
					"numinlets" : 3,
					"numoutlets" : 3,
					"fontsize" : 12.0,
					"patching_rect" : [ 427.0, 281.0, 233.0, 20.0 ],
					"outlettype" : [ "", "", "" ]
				}

			}
, 			{
				"box" : 				{
					"maxclass" : "newobj",
					"text" : "Mu.lemurClient #1/Width/x #2",
					"fontname" : "Arial",
					"id" : "obj-35",
					"numinlets" : 3,
					"numoutlets" : 1,
					"fontsize" : 12.0,
					"patching_rect" : [ 427.0, 199.0, 148.0, 20.0 ],
					"outlettype" : [ "" ]
				}

			}
, 			{
				"box" : 				{
					"maxclass" : "newobj",
					"text" : "Mu.deviceParameter #1 Width #2",
					"fontname" : "Arial",
					"id" : "obj-36",
					"numinlets" : 3,
					"numoutlets" : 3,
					"fontsize" : 12.0,
					"patching_rect" : [ 427.0, 221.0, 232.0, 20.0 ],
					"outlettype" : [ "", "", "" ]
				}

			}
, 			{
				"box" : 				{
					"maxclass" : "newobj",
					"text" : "Mu.lemurClient #1/Freq/x #2",
					"fontname" : "Arial",
					"id" : "obj-33",
					"numinlets" : 3,
					"numoutlets" : 1,
					"fontsize" : 12.0,
					"patching_rect" : [ 427.0, 139.0, 142.0, 20.0 ],
					"outlettype" : [ "" ]
				}

			}
, 			{
				"box" : 				{
					"maxclass" : "newobj",
					"text" : "Mu.deviceParameter #1 Frequency #2",
					"fontname" : "Arial",
					"id" : "obj-34",
					"numinlets" : 3,
					"numoutlets" : 3,
					"fontsize" : 12.0,
					"patching_rect" : [ 427.0, 161.0, 258.0, 20.0 ],
					"outlettype" : [ "", "", "" ]
				}

			}
, 			{
				"box" : 				{
					"maxclass" : "newobj",
					"text" : "Mu.lemurClient #1/Base/x #2",
					"fontname" : "Arial",
					"id" : "obj-30",
					"numinlets" : 3,
					"numoutlets" : 1,
					"fontsize" : 12.0,
					"patching_rect" : [ 427.0, 79.0, 145.0, 20.0 ],
					"outlettype" : [ "" ]
				}

			}
, 			{
				"box" : 				{
					"maxclass" : "newobj",
					"text" : "Mu.deviceParameter #1 Base #2",
					"fontname" : "Arial",
					"id" : "obj-31",
					"numinlets" : 3,
					"numoutlets" : 3,
					"fontsize" : 12.0,
					"patching_rect" : [ 427.0, 101.0, 229.0, 20.0 ],
					"outlettype" : [ "", "", "" ]
				}

			}
, 			{
				"box" : 				{
					"maxclass" : "newobj",
					"text" : "Mu.lemurClient #1/Color/x #2",
					"fontname" : "Arial",
					"id" : "obj-28",
					"numinlets" : 3,
					"numoutlets" : 1,
					"fontsize" : 12.0,
					"patching_rect" : [ 427.0, 19.0, 146.0, 20.0 ],
					"outlettype" : [ "" ]
				}

			}
, 			{
				"box" : 				{
					"maxclass" : "newobj",
					"text" : "Mu.deviceParameter #1 \"Color\" #2",
					"fontname" : "Arial",
					"id" : "obj-29",
					"numinlets" : 3,
					"numoutlets" : 3,
					"fontsize" : 12.0,
					"patching_rect" : [ 427.0, 41.0, 238.0, 20.0 ],
					"outlettype" : [ "", "", "" ]
				}

			}
, 			{
				"box" : 				{
					"maxclass" : "newobj",
					"text" : "Mu.lemurClient #1/Period/x #2",
					"fontname" : "Arial",
					"id" : "obj-26",
					"numinlets" : 3,
					"numoutlets" : 1,
					"fontsize" : 12.0,
					"patching_rect" : [ 798.0, 467.0, 152.0, 20.0 ],
					"outlettype" : [ "" ]
				}

			}
, 			{
				"box" : 				{
					"maxclass" : "newobj",
					"text" : "Mu.deviceParameter #1 \"WS Period\" #2",
					"fontname" : "Arial",
					"id" : "obj-27",
					"numinlets" : 3,
					"numoutlets" : 3,
					"fontsize" : 12.0,
					"patching_rect" : [ 798.0, 489.0, 267.0, 20.0 ],
					"outlettype" : [ "", "", "" ]
				}

			}
, 			{
				"box" : 				{
					"maxclass" : "newobj",
					"text" : "Mu.lemurClient #1/Damp/x #2",
					"fontname" : "Arial",
					"id" : "obj-24",
					"numinlets" : 3,
					"numoutlets" : 1,
					"fontsize" : 12.0,
					"patching_rect" : [ 798.0, 403.0, 149.0, 20.0 ],
					"outlettype" : [ "" ]
				}

			}
, 			{
				"box" : 				{
					"maxclass" : "newobj",
					"text" : "Mu.deviceParameter #1 \"WS Damp\" #2",
					"fontname" : "Arial",
					"id" : "obj-25",
					"numinlets" : 3,
					"numoutlets" : 3,
					"fontsize" : 12.0,
					"patching_rect" : [ 798.0, 425.0, 264.0, 20.0 ],
					"outlettype" : [ "", "", "" ]
				}

			}
, 			{
				"box" : 				{
					"maxclass" : "newobj",
					"text" : "Mu.lemurClient #1/Lin/x #2",
					"fontname" : "Arial",
					"id" : "obj-22",
					"numinlets" : 3,
					"numoutlets" : 1,
					"fontsize" : 12.0,
					"patching_rect" : [ 798.0, 339.0, 133.0, 20.0 ],
					"outlettype" : [ "" ]
				}

			}
, 			{
				"box" : 				{
					"maxclass" : "newobj",
					"text" : "Mu.deviceParameter #1 \"WS Lin\" #2",
					"fontname" : "Arial",
					"id" : "obj-23",
					"numinlets" : 3,
					"numoutlets" : 3,
					"fontsize" : 12.0,
					"patching_rect" : [ 798.0, 361.0, 248.0, 20.0 ],
					"outlettype" : [ "", "", "" ]
				}

			}
, 			{
				"box" : 				{
					"maxclass" : "newobj",
					"text" : "Mu.lemurClient #1/Depth/x #2",
					"fontname" : "Arial",
					"id" : "obj-18",
					"numinlets" : 3,
					"presentation_rect" : [ 690.0, 608.0, 0.0, 0.0 ],
					"numoutlets" : 1,
					"fontsize" : 12.0,
					"patching_rect" : [ 798.0, 275.0, 149.0, 20.0 ],
					"outlettype" : [ "" ]
				}

			}
, 			{
				"box" : 				{
					"maxclass" : "newobj",
					"text" : "Mu.deviceParameter #1 \"WS Depth\" #2",
					"fontname" : "Arial",
					"id" : "obj-19",
					"numinlets" : 3,
					"presentation_rect" : [ 690.0, 630.0, 0.0, 0.0 ],
					"numoutlets" : 3,
					"fontsize" : 12.0,
					"patching_rect" : [ 798.0, 297.0, 264.0, 20.0 ],
					"outlettype" : [ "", "", "" ]
				}

			}
, 			{
				"box" : 				{
					"maxclass" : "newobj",
					"text" : "Mu.lemurClient #1/Depth/x #2",
					"fontname" : "Arial",
					"id" : "obj-16",
					"numinlets" : 3,
					"presentation_rect" : [ 692.0, 555.0, 0.0, 0.0 ],
					"numoutlets" : 1,
					"fontsize" : 12.0,
					"patching_rect" : [ 798.0, 211.0, 149.0, 20.0 ],
					"outlettype" : [ "" ]
				}

			}
, 			{
				"box" : 				{
					"maxclass" : "newobj",
					"text" : "Mu.deviceParameter #1 \"WS Depth\" #2",
					"fontname" : "Arial",
					"id" : "obj-17",
					"numinlets" : 3,
					"presentation_rect" : [ 692.0, 577.0, 0.0, 0.0 ],
					"numoutlets" : 3,
					"fontsize" : 12.0,
					"patching_rect" : [ 798.0, 233.0, 264.0, 20.0 ],
					"outlettype" : [ "", "", "" ]
				}

			}
, 			{
				"box" : 				{
					"maxclass" : "newobj",
					"text" : "Mu.lemurClient #1/Depth/x #2",
					"fontname" : "Arial",
					"id" : "obj-14",
					"numinlets" : 3,
					"numoutlets" : 1,
					"fontsize" : 12.0,
					"patching_rect" : [ 798.0, 147.0, 149.0, 20.0 ],
					"outlettype" : [ "" ]
				}

			}
, 			{
				"box" : 				{
					"maxclass" : "newobj",
					"text" : "Mu.deviceParameter #1 \"WS Depth\" #2",
					"fontname" : "Arial",
					"id" : "obj-15",
					"numinlets" : 3,
					"numoutlets" : 3,
					"fontsize" : 12.0,
					"patching_rect" : [ 798.0, 169.0, 264.0, 20.0 ],
					"outlettype" : [ "", "", "" ]
				}

			}
, 			{
				"box" : 				{
					"maxclass" : "newobj",
					"text" : "Mu.lemurClient #1/Curve/x #2",
					"fontname" : "Arial",
					"id" : "obj-12",
					"numinlets" : 3,
					"numoutlets" : 1,
					"fontsize" : 12.0,
					"patching_rect" : [ 798.0, 83.0, 149.0, 20.0 ],
					"outlettype" : [ "" ]
				}

			}
, 			{
				"box" : 				{
					"maxclass" : "newobj",
					"text" : "Mu.deviceParameter #1 \"WS Curve\" #2",
					"fontname" : "Arial",
					"id" : "obj-13",
					"numinlets" : 3,
					"numoutlets" : 3,
					"fontsize" : 12.0,
					"patching_rect" : [ 798.0, 105.0, 264.0, 20.0 ],
					"outlettype" : [ "", "", "" ]
				}

			}
, 			{
				"box" : 				{
					"maxclass" : "newobj",
					"text" : "Mu.lemurClient #1/Drive/x #2",
					"fontname" : "Arial",
					"id" : "obj-10",
					"numinlets" : 3,
					"numoutlets" : 1,
					"fontsize" : 12.0,
					"patching_rect" : [ 798.0, 19.0, 145.0, 20.0 ],
					"outlettype" : [ "" ]
				}

			}
, 			{
				"box" : 				{
					"maxclass" : "newobj",
					"text" : "Mu.deviceParameter #1 \"WS Drive\" #2",
					"fontname" : "Arial",
					"id" : "obj-11",
					"numinlets" : 3,
					"numoutlets" : 3,
					"fontsize" : 12.0,
					"patching_rect" : [ 798.0, 41.0, 260.0, 20.0 ],
					"outlettype" : [ "", "", "" ]
				}

			}
, 			{
				"box" : 				{
					"maxclass" : "newobj",
					"text" : "Mu.lemurClient #1/SoftClip/x #2",
					"fontname" : "Arial",
					"id" : "obj-8",
					"numinlets" : 3,
					"numoutlets" : 1,
					"fontsize" : 12.0,
					"patching_rect" : [ 16.0, 113.0, 159.0, 20.0 ],
					"outlettype" : [ "" ]
				}

			}
, 			{
				"box" : 				{
					"maxclass" : "newobj",
					"text" : "Mu.deviceParameter #1 \"Soft Clip\" #2",
					"fontname" : "Arial",
					"id" : "obj-9",
					"numinlets" : 3,
					"numoutlets" : 3,
					"fontsize" : 12.0,
					"patching_rect" : [ 16.0, 135.0, 255.0, 20.0 ],
					"outlettype" : [ "", "", "" ]
				}

			}
, 			{
				"box" : 				{
					"maxclass" : "newobj",
					"text" : "Mu.lemurClient #1/CurveType/selection #2",
					"fontname" : "Arial",
					"id" : "obj-5",
					"numinlets" : 3,
					"numoutlets" : 1,
					"fontsize" : 12.0,
					"patching_rect" : [ 138.0, 405.0, 217.0, 20.0 ],
					"outlettype" : [ "" ]
				}

			}
, 			{
				"box" : 				{
					"maxclass" : "newobj",
					"text" : "Mu.deviceParameter #1 Type #2",
					"fontname" : "Arial",
					"id" : "obj-7",
					"numinlets" : 3,
					"numoutlets" : 3,
					"fontsize" : 12.0,
					"patching_rect" : [ 34.0, 432.0, 227.0, 20.0 ],
					"outlettype" : [ "", "", "" ]
				}

			}
, 			{
				"box" : 				{
					"maxclass" : "newobj",
					"text" : "Mu.lemurClient #1/Output/x #2",
					"fontname" : "Arial",
					"id" : "obj-3",
					"numinlets" : 3,
					"numoutlets" : 1,
					"fontsize" : 12.0,
					"patching_rect" : [ 16.0, 330.0, 153.0, 20.0 ],
					"outlettype" : [ "" ]
				}

			}
, 			{
				"box" : 				{
					"maxclass" : "newobj",
					"text" : "Mu.deviceParameter #1 \"Output\" #2",
					"fontname" : "Arial",
					"id" : "obj-4",
					"numinlets" : 3,
					"numoutlets" : 3,
					"fontsize" : 12.0,
					"patching_rect" : [ 16.0, 352.0, 246.0, 20.0 ],
					"outlettype" : [ "", "", "" ]
				}

			}
, 			{
				"box" : 				{
					"maxclass" : "newobj",
					"text" : "Mu.lemurClient #1/InputDrive/x #2",
					"fontname" : "Arial",
					"id" : "obj-1",
					"numinlets" : 3,
					"numoutlets" : 1,
					"fontsize" : 12.0,
					"patching_rect" : [ 16.0, 254.0, 172.0, 20.0 ],
					"outlettype" : [ "" ]
				}

			}
, 			{
				"box" : 				{
					"maxclass" : "newobj",
					"text" : "Mu.deviceParameter #1 \"Drive\" #2",
					"fontname" : "Arial",
					"id" : "obj-2",
					"numinlets" : 3,
					"numoutlets" : 3,
					"fontsize" : 12.0,
					"patching_rect" : [ 16.0, 276.0, 238.0, 20.0 ],
					"outlettype" : [ "", "", "" ]
				}

			}
, 			{
				"box" : 				{
					"maxclass" : "newobj",
					"text" : "Mu.lemurClient #1/DryWet/x #2",
					"fontname" : "Arial",
					"id" : "obj-20",
					"numinlets" : 3,
					"numoutlets" : 1,
					"fontsize" : 12.0,
					"patching_rect" : [ 16.0, 180.0, 157.0, 20.0 ],
					"outlettype" : [ "" ]
				}

			}
, 			{
				"box" : 				{
					"maxclass" : "newobj",
					"text" : "Mu.deviceParameter #1 \"Dry/Wet\" #2",
					"fontname" : "Arial",
					"id" : "obj-21",
					"numinlets" : 3,
					"numoutlets" : 3,
					"fontsize" : 12.0,
					"patching_rect" : [ 16.0, 202.0, 253.0, 20.0 ],
					"outlettype" : [ "", "", "" ]
				}

			}
, 			{
				"box" : 				{
					"maxclass" : "comment",
					"text" : "\"Device On\", 148 0. 1. \"Device On\";\nDry/Wet, 149 0. 1. Dry/Wet;\nDrive, 150 -36. 36. Drive;\nOutput, 151 -36. 0. Output;\nType, 152 0. 6. Type;\nBase, 153 -36. 36. Base;\nColor, 154 0. 1. Color;\nFrequency, 155 0. 1. Frequency;\nWidth, 156 0. 1. Width;\nDepth, 157 -24. 24. Depth;\n\"Soft Clip\", 158 0. 1. \"Soft Clip\";\n\"WS Drive\", 159 0. 1. \"WS Drive\";\n\"WS Lin\", 160 0. 1. \"WS Lin\";\n\"WS Curve\", 161 0. 1. \"WS Curve\";\n\"WS Damp\", 162 0. 1. \"WS Damp\";\n\"WS Period\", 163 0. 1. \"WS Period\";\n\"WS Depth\", 164 0. 1. \"WS Depth\";\n",
					"linecount" : 17,
					"fontname" : "Arial",
					"id" : "obj-6",
					"numinlets" : 1,
					"numoutlets" : 0,
					"fontsize" : 12.0,
					"patching_rect" : [ 438.0, 341.0, 207.0, 241.0 ]
				}

			}
, 			{
				"box" : 				{
					"maxclass" : "newobj",
					"text" : "Mu.lemurClient #1/DeviceOn/x #2",
					"fontname" : "Arial",
					"id" : "obj-32",
					"numinlets" : 3,
					"numoutlets" : 1,
					"fontsize" : 12.0,
					"patching_rect" : [ 16.0, 19.0, 205.0, 20.0 ],
					"outlettype" : [ "" ]
				}

			}
, 			{
				"box" : 				{
					"maxclass" : "toggle",
					"id" : "obj-50",
					"numinlets" : 1,
					"numoutlets" : 1,
					"patching_rect" : [ 16.0, 42.0, 20.0, 20.0 ],
					"outlettype" : [ "int" ]
				}

			}
, 			{
				"box" : 				{
					"maxclass" : "newobj",
					"text" : "Mu.deviceParameter #1 \"Device On\" #2",
					"fontname" : "Arial",
					"id" : "obj-48",
					"numinlets" : 3,
					"numoutlets" : 3,
					"fontsize" : 12.0,
					"patching_rect" : [ 16.0, 64.0, 301.0, 20.0 ],
					"outlettype" : [ "", "", "" ]
				}

			}
 ],
		"lines" : [ 			{
				"patchline" : 				{
					"source" : [ "obj-38", 0 ],
					"destination" : [ "obj-37", 0 ],
					"hidden" : 0,
					"midpoints" : [ 436.5, 307.0, 422.5, 307.0, 422.5, 249.0, 436.5, 249.0 ]
				}

			}
, 			{
				"patchline" : 				{
					"source" : [ "obj-37", 0 ],
					"destination" : [ "obj-38", 0 ],
					"hidden" : 0,
					"midpoints" : [  ]
				}

			}
, 			{
				"patchline" : 				{
					"source" : [ "obj-35", 0 ],
					"destination" : [ "obj-36", 0 ],
					"hidden" : 0,
					"midpoints" : [  ]
				}

			}
, 			{
				"patchline" : 				{
					"source" : [ "obj-36", 0 ],
					"destination" : [ "obj-35", 0 ],
					"hidden" : 0,
					"midpoints" : [ 436.5, 247.0, 422.5, 247.0, 422.5, 189.0, 436.5, 189.0 ]
				}

			}
, 			{
				"patchline" : 				{
					"source" : [ "obj-34", 0 ],
					"destination" : [ "obj-33", 0 ],
					"hidden" : 0,
					"midpoints" : [ 436.5, 187.0, 422.5, 187.0, 422.5, 129.0, 436.5, 129.0 ]
				}

			}
, 			{
				"patchline" : 				{
					"source" : [ "obj-33", 0 ],
					"destination" : [ "obj-34", 0 ],
					"hidden" : 0,
					"midpoints" : [  ]
				}

			}
, 			{
				"patchline" : 				{
					"source" : [ "obj-30", 0 ],
					"destination" : [ "obj-31", 0 ],
					"hidden" : 0,
					"midpoints" : [  ]
				}

			}
, 			{
				"patchline" : 				{
					"source" : [ "obj-31", 0 ],
					"destination" : [ "obj-30", 0 ],
					"hidden" : 0,
					"midpoints" : [ 436.5, 127.0, 422.5, 127.0, 422.5, 69.0, 436.5, 69.0 ]
				}

			}
, 			{
				"patchline" : 				{
					"source" : [ "obj-29", 0 ],
					"destination" : [ "obj-28", 0 ],
					"hidden" : 0,
					"midpoints" : [ 436.5, 67.0, 422.5, 67.0, 422.5, 9.0, 436.5, 9.0 ]
				}

			}
, 			{
				"patchline" : 				{
					"source" : [ "obj-28", 0 ],
					"destination" : [ "obj-29", 0 ],
					"hidden" : 0,
					"midpoints" : [  ]
				}

			}
, 			{
				"patchline" : 				{
					"source" : [ "obj-27", 0 ],
					"destination" : [ "obj-26", 0 ],
					"hidden" : 0,
					"midpoints" : [ 807.5, 518.0, 795.5, 518.0, 795.5, 456.0, 807.5, 456.0 ]
				}

			}
, 			{
				"patchline" : 				{
					"source" : [ "obj-26", 0 ],
					"destination" : [ "obj-27", 0 ],
					"hidden" : 0,
					"midpoints" : [  ]
				}

			}
, 			{
				"patchline" : 				{
					"source" : [ "obj-24", 0 ],
					"destination" : [ "obj-25", 0 ],
					"hidden" : 0,
					"midpoints" : [  ]
				}

			}
, 			{
				"patchline" : 				{
					"source" : [ "obj-25", 0 ],
					"destination" : [ "obj-24", 0 ],
					"hidden" : 0,
					"midpoints" : [ 807.5, 454.0, 795.5, 454.0, 795.5, 392.0, 807.5, 392.0 ]
				}

			}
, 			{
				"patchline" : 				{
					"source" : [ "obj-23", 0 ],
					"destination" : [ "obj-22", 0 ],
					"hidden" : 0,
					"midpoints" : [ 807.5, 390.0, 795.5, 390.0, 795.5, 328.0, 807.5, 328.0 ]
				}

			}
, 			{
				"patchline" : 				{
					"source" : [ "obj-22", 0 ],
					"destination" : [ "obj-23", 0 ],
					"hidden" : 0,
					"midpoints" : [  ]
				}

			}
, 			{
				"patchline" : 				{
					"source" : [ "obj-18", 0 ],
					"destination" : [ "obj-19", 0 ],
					"hidden" : 0,
					"midpoints" : [  ]
				}

			}
, 			{
				"patchline" : 				{
					"source" : [ "obj-19", 0 ],
					"destination" : [ "obj-18", 0 ],
					"hidden" : 0,
					"midpoints" : [ 807.5, 326.0, 795.5, 326.0, 795.5, 264.0, 807.5, 264.0 ]
				}

			}
, 			{
				"patchline" : 				{
					"source" : [ "obj-17", 0 ],
					"destination" : [ "obj-16", 0 ],
					"hidden" : 0,
					"midpoints" : [ 807.5, 262.0, 795.5, 262.0, 795.5, 200.0, 807.5, 200.0 ]
				}

			}
, 			{
				"patchline" : 				{
					"source" : [ "obj-16", 0 ],
					"destination" : [ "obj-17", 0 ],
					"hidden" : 0,
					"midpoints" : [  ]
				}

			}
, 			{
				"patchline" : 				{
					"source" : [ "obj-14", 0 ],
					"destination" : [ "obj-15", 0 ],
					"hidden" : 0,
					"midpoints" : [  ]
				}

			}
, 			{
				"patchline" : 				{
					"source" : [ "obj-15", 0 ],
					"destination" : [ "obj-14", 0 ],
					"hidden" : 0,
					"midpoints" : [ 807.5, 198.0, 795.5, 198.0, 795.5, 136.0, 807.5, 136.0 ]
				}

			}
, 			{
				"patchline" : 				{
					"source" : [ "obj-12", 0 ],
					"destination" : [ "obj-13", 0 ],
					"hidden" : 0,
					"midpoints" : [  ]
				}

			}
, 			{
				"patchline" : 				{
					"source" : [ "obj-13", 0 ],
					"destination" : [ "obj-12", 0 ],
					"hidden" : 0,
					"midpoints" : [ 807.5, 134.0, 795.5, 134.0, 795.5, 72.0, 807.5, 72.0 ]
				}

			}
, 			{
				"patchline" : 				{
					"source" : [ "obj-10", 0 ],
					"destination" : [ "obj-11", 0 ],
					"hidden" : 0,
					"midpoints" : [  ]
				}

			}
, 			{
				"patchline" : 				{
					"source" : [ "obj-11", 0 ],
					"destination" : [ "obj-10", 0 ],
					"hidden" : 0,
					"midpoints" : [ 807.5, 70.0, 795.5, 70.0, 795.5, 8.0, 807.5, 8.0 ]
				}

			}
, 			{
				"patchline" : 				{
					"source" : [ "obj-9", 0 ],
					"destination" : [ "obj-8", 0 ],
					"hidden" : 0,
					"midpoints" : [ 25.5, 164.0, 11.5, 164.0, 11.5, 102.0, 25.5, 102.0 ]
				}

			}
, 			{
				"patchline" : 				{
					"source" : [ "obj-8", 0 ],
					"destination" : [ "obj-9", 0 ],
					"hidden" : 0,
					"midpoints" : [  ]
				}

			}
, 			{
				"patchline" : 				{
					"source" : [ "obj-32", 0 ],
					"destination" : [ "obj-50", 0 ],
					"hidden" : 0,
					"midpoints" : [  ]
				}

			}
, 			{
				"patchline" : 				{
					"source" : [ "obj-48", 0 ],
					"destination" : [ "obj-32", 0 ],
					"hidden" : 0,
					"midpoints" : [ 25.5, 89.0, 10.0, 89.0, 10.0, 13.0, 25.5, 13.0 ]
				}

			}
, 			{
				"patchline" : 				{
					"source" : [ "obj-50", 0 ],
					"destination" : [ "obj-48", 0 ],
					"hidden" : 0,
					"midpoints" : [  ]
				}

			}
, 			{
				"patchline" : 				{
					"source" : [ "obj-20", 0 ],
					"destination" : [ "obj-21", 0 ],
					"hidden" : 0,
					"midpoints" : [  ]
				}

			}
, 			{
				"patchline" : 				{
					"source" : [ "obj-21", 0 ],
					"destination" : [ "obj-20", 0 ],
					"hidden" : 0,
					"midpoints" : [ 25.5, 231.0, 11.5, 231.0, 11.5, 169.0, 25.5, 169.0 ]
				}

			}
, 			{
				"patchline" : 				{
					"source" : [ "obj-1", 0 ],
					"destination" : [ "obj-2", 0 ],
					"hidden" : 0,
					"midpoints" : [  ]
				}

			}
, 			{
				"patchline" : 				{
					"source" : [ "obj-2", 0 ],
					"destination" : [ "obj-1", 0 ],
					"hidden" : 0,
					"midpoints" : [ 25.5, 305.0, 12.5, 305.0, 12.5, 243.0, 25.5, 243.0 ]
				}

			}
, 			{
				"patchline" : 				{
					"source" : [ "obj-4", 0 ],
					"destination" : [ "obj-3", 0 ],
					"hidden" : 0,
					"midpoints" : [ 25.5, 381.0, 13.5, 381.0, 13.5, 319.0, 25.5, 319.0 ]
				}

			}
, 			{
				"patchline" : 				{
					"source" : [ "obj-3", 0 ],
					"destination" : [ "obj-4", 0 ],
					"hidden" : 0,
					"midpoints" : [  ]
				}

			}
, 			{
				"patchline" : 				{
					"source" : [ "obj-5", 0 ],
					"destination" : [ "obj-7", 1 ],
					"hidden" : 0,
					"midpoints" : [  ]
				}

			}
, 			{
				"patchline" : 				{
					"source" : [ "obj-7", 1 ],
					"destination" : [ "obj-5", 0 ],
					"hidden" : 0,
					"midpoints" : [ 147.5, 468.0, 16.5, 468.0, 16.5, 393.0, 147.5, 393.0 ]
				}

			}
 ]
	}

}
