{
	"patcher" : 	{
		"fileversion" : 1,
		"rect" : [ 857.0, 187.0, 859.0, 680.0 ],
		"bglocked" : 0,
		"defrect" : [ 857.0, 187.0, 859.0, 680.0 ],
		"openrect" : [ 0.0, 0.0, 0.0, 0.0 ],
		"openinpresentation" : 0,
		"default_fontsize" : 12.0,
		"default_fontface" : 0,
		"default_fontname" : "Arial",
		"gridonopen" : 0,
		"gridsize" : [ 15.0, 15.0 ],
		"gridsnaponopen" : 0,
		"toolbarvisible" : 1,
		"boxanimatetime" : 200,
		"imprint" : 0,
		"enablehscroll" : 1,
		"enablevscroll" : 1,
		"devicewidth" : 0.0,
		"boxes" : [ 			{
				"box" : 				{
					"maxclass" : "newobj",
					"text" : "p knobControl",
					"fontsize" : 12.0,
					"patching_rect" : [ 23.0, 163.0, 85.0, 20.0 ],
					"numinlets" : 0,
					"id" : "obj-7",
					"fontname" : "Arial",
					"numoutlets" : 0,
					"patcher" : 					{
						"fileversion" : 1,
						"rect" : [ 25.0, 69.0, 1228.0, 928.0 ],
						"bglocked" : 0,
						"defrect" : [ 25.0, 69.0, 1228.0, 928.0 ],
						"openrect" : [ 0.0, 0.0, 0.0, 0.0 ],
						"openinpresentation" : 0,
						"default_fontsize" : 12.0,
						"default_fontface" : 0,
						"default_fontname" : "Arial",
						"gridonopen" : 0,
						"gridsize" : [ 15.0, 15.0 ],
						"gridsnaponopen" : 0,
						"toolbarvisible" : 1,
						"boxanimatetime" : 200,
						"imprint" : 0,
						"enablehscroll" : 1,
						"enablevscroll" : 1,
						"devicewidth" : 0.0,
						"boxes" : [ 							{
								"box" : 								{
									"maxclass" : "newobj",
									"text" : "Mu.deviceParameter #1 \"Macro 8\"",
									"outlettype" : [ "", "", "" ],
									"fontsize" : 12.0,
									"patching_rect" : [ 675.0, 510.0, 236.0, 20.0 ],
									"numinlets" : 3,
									"id" : "obj-15",
									"fontname" : "Arial",
									"numoutlets" : 3
								}

							}
, 							{
								"box" : 								{
									"maxclass" : "newobj",
									"text" : "Mu.lemurClient #1/Knob8/x",
									"outlettype" : [ "" ],
									"fontsize" : 12.0,
									"patching_rect" : [ 675.0, 480.0, 135.0, 20.0 ],
									"numinlets" : 3,
									"id" : "obj-16",
									"fontname" : "Arial",
									"numoutlets" : 1
								}

							}
, 							{
								"box" : 								{
									"maxclass" : "newobj",
									"text" : "Mu.deviceParameter #1 \"Macro 7\"",
									"outlettype" : [ "", "", "" ],
									"fontsize" : 12.0,
									"patching_rect" : [ 675.0, 435.0, 236.0, 20.0 ],
									"numinlets" : 3,
									"id" : "obj-17",
									"fontname" : "Arial",
									"numoutlets" : 3
								}

							}
, 							{
								"box" : 								{
									"maxclass" : "newobj",
									"text" : "Mu.lemurClient #1/Knob7/x",
									"outlettype" : [ "" ],
									"fontsize" : 12.0,
									"patching_rect" : [ 675.0, 405.0, 135.0, 20.0 ],
									"numinlets" : 3,
									"id" : "obj-18",
									"fontname" : "Arial",
									"numoutlets" : 1
								}

							}
, 							{
								"box" : 								{
									"maxclass" : "newobj",
									"text" : "Mu.deviceParameter #1 \"Macro 6\"",
									"outlettype" : [ "", "", "" ],
									"fontsize" : 12.0,
									"patching_rect" : [ 675.0, 360.0, 236.0, 20.0 ],
									"numinlets" : 3,
									"id" : "obj-11",
									"fontname" : "Arial",
									"numoutlets" : 3
								}

							}
, 							{
								"box" : 								{
									"maxclass" : "newobj",
									"text" : "Mu.lemurClient #1/Knob6/x",
									"outlettype" : [ "" ],
									"fontsize" : 12.0,
									"patching_rect" : [ 675.0, 330.0, 135.0, 20.0 ],
									"numinlets" : 3,
									"id" : "obj-12",
									"fontname" : "Arial",
									"numoutlets" : 1
								}

							}
, 							{
								"box" : 								{
									"maxclass" : "newobj",
									"text" : "Mu.deviceParameter #1 \"Macro 5\"",
									"outlettype" : [ "", "", "" ],
									"fontsize" : 12.0,
									"patching_rect" : [ 675.0, 285.0, 236.0, 20.0 ],
									"numinlets" : 3,
									"id" : "obj-13",
									"fontname" : "Arial",
									"numoutlets" : 3
								}

							}
, 							{
								"box" : 								{
									"maxclass" : "newobj",
									"text" : "Mu.lemurClient #1/Knob5/x",
									"outlettype" : [ "" ],
									"fontsize" : 12.0,
									"patching_rect" : [ 675.0, 255.0, 135.0, 20.0 ],
									"numinlets" : 3,
									"id" : "obj-14",
									"fontname" : "Arial",
									"numoutlets" : 1
								}

							}
, 							{
								"box" : 								{
									"maxclass" : "newobj",
									"text" : "Mu.deviceParameter #1 \"Macro 4\"",
									"outlettype" : [ "", "", "" ],
									"fontsize" : 12.0,
									"patching_rect" : [ 240.0, 495.0, 236.0, 20.0 ],
									"numinlets" : 3,
									"id" : "obj-7",
									"fontname" : "Arial",
									"numoutlets" : 3
								}

							}
, 							{
								"box" : 								{
									"maxclass" : "newobj",
									"text" : "Mu.lemurClient #1/Knob4/x",
									"outlettype" : [ "" ],
									"fontsize" : 12.0,
									"patching_rect" : [ 240.0, 465.0, 135.0, 20.0 ],
									"numinlets" : 3,
									"id" : "obj-8",
									"fontname" : "Arial",
									"numoutlets" : 1
								}

							}
, 							{
								"box" : 								{
									"maxclass" : "newobj",
									"text" : "Mu.deviceParameter #1 \"Macro 3\"",
									"outlettype" : [ "", "", "" ],
									"fontsize" : 12.0,
									"patching_rect" : [ 240.0, 420.0, 236.0, 20.0 ],
									"numinlets" : 3,
									"id" : "obj-9",
									"fontname" : "Arial",
									"numoutlets" : 3
								}

							}
, 							{
								"box" : 								{
									"maxclass" : "newobj",
									"text" : "Mu.lemurClient #1/Knob3/x",
									"outlettype" : [ "" ],
									"fontsize" : 12.0,
									"patching_rect" : [ 240.0, 390.0, 135.0, 20.0 ],
									"numinlets" : 3,
									"id" : "obj-10",
									"fontname" : "Arial",
									"numoutlets" : 1
								}

							}
, 							{
								"box" : 								{
									"maxclass" : "newobj",
									"text" : "Mu.deviceParameter #1 \"Macro 2\"",
									"outlettype" : [ "", "", "" ],
									"fontsize" : 12.0,
									"patching_rect" : [ 240.0, 345.0, 236.0, 20.0 ],
									"numinlets" : 3,
									"id" : "obj-5",
									"fontname" : "Arial",
									"numoutlets" : 3
								}

							}
, 							{
								"box" : 								{
									"maxclass" : "newobj",
									"text" : "Mu.lemurClient #1/Knob2/x",
									"outlettype" : [ "" ],
									"fontsize" : 12.0,
									"patching_rect" : [ 240.0, 315.0, 135.0, 20.0 ],
									"numinlets" : 3,
									"id" : "obj-6",
									"fontname" : "Arial",
									"numoutlets" : 1
								}

							}
, 							{
								"box" : 								{
									"maxclass" : "newobj",
									"text" : "Mu.deviceParameter #1 \"Macro 1\"",
									"outlettype" : [ "", "", "" ],
									"fontsize" : 12.0,
									"patching_rect" : [ 240.0, 255.0, 236.0, 20.0 ],
									"numinlets" : 3,
									"id" : "obj-4",
									"fontname" : "Arial",
									"numoutlets" : 3
								}

							}
, 							{
								"box" : 								{
									"maxclass" : "newobj",
									"text" : "Mu.lemurClient #1/Knob1/x",
									"outlettype" : [ "" ],
									"fontsize" : 12.0,
									"patching_rect" : [ 240.0, 225.0, 135.0, 20.0 ],
									"numinlets" : 3,
									"id" : "obj-3",
									"fontname" : "Arial",
									"numoutlets" : 1
								}

							}
, 							{
								"box" : 								{
									"maxclass" : "comment",
									"fontsize" : 12.0,
									"patching_rect" : [ 0.0, 0.0, 150.0, 20.0 ],
									"numinlets" : 1,
									"id" : "obj-2",
									"fontname" : "Arial",
									"numoutlets" : 0
								}

							}
 ],
						"lines" : [ 							{
								"patchline" : 								{
									"source" : [ "obj-16", 0 ],
									"destination" : [ "obj-15", 0 ],
									"hidden" : 0,
									"midpoints" : [  ]
								}

							}
, 							{
								"patchline" : 								{
									"source" : [ "obj-15", 0 ],
									"destination" : [ "obj-16", 0 ],
									"hidden" : 0,
									"midpoints" : [ 684.5, 540.0, 675.0, 540.0, 675.0, 477.0, 684.5, 477.0 ]
								}

							}
, 							{
								"patchline" : 								{
									"source" : [ "obj-17", 0 ],
									"destination" : [ "obj-18", 0 ],
									"hidden" : 0,
									"midpoints" : [ 684.5, 465.5, 673.5, 465.5, 673.5, 402.5, 684.5, 402.5 ]
								}

							}
, 							{
								"patchline" : 								{
									"source" : [ "obj-18", 0 ],
									"destination" : [ "obj-17", 0 ],
									"hidden" : 0,
									"midpoints" : [  ]
								}

							}
, 							{
								"patchline" : 								{
									"source" : [ "obj-12", 0 ],
									"destination" : [ "obj-11", 0 ],
									"hidden" : 0,
									"midpoints" : [  ]
								}

							}
, 							{
								"patchline" : 								{
									"source" : [ "obj-11", 0 ],
									"destination" : [ "obj-12", 0 ],
									"hidden" : 0,
									"midpoints" : [ 684.5, 381.0, 674.0, 381.0, 674.0, 318.0, 684.5, 318.0 ]
								}

							}
, 							{
								"patchline" : 								{
									"source" : [ "obj-13", 0 ],
									"destination" : [ "obj-14", 0 ],
									"hidden" : 0,
									"midpoints" : [ 684.5, 306.5, 670.5, 306.5, 670.5, 243.5, 684.5, 243.5 ]
								}

							}
, 							{
								"patchline" : 								{
									"source" : [ "obj-14", 0 ],
									"destination" : [ "obj-13", 0 ],
									"hidden" : 0,
									"midpoints" : [  ]
								}

							}
, 							{
								"patchline" : 								{
									"source" : [ "obj-8", 0 ],
									"destination" : [ "obj-7", 0 ],
									"hidden" : 0,
									"midpoints" : [  ]
								}

							}
, 							{
								"patchline" : 								{
									"source" : [ "obj-7", 0 ],
									"destination" : [ "obj-8", 0 ],
									"hidden" : 0,
									"midpoints" : [ 249.5, 521.0, 238.0, 521.0, 238.0, 458.0, 249.5, 458.0 ]
								}

							}
, 							{
								"patchline" : 								{
									"source" : [ "obj-9", 0 ],
									"destination" : [ "obj-10", 0 ],
									"hidden" : 0,
									"midpoints" : [ 249.5, 446.5, 236.5, 446.5, 236.5, 383.5, 249.5, 383.5 ]
								}

							}
, 							{
								"patchline" : 								{
									"source" : [ "obj-10", 0 ],
									"destination" : [ "obj-9", 0 ],
									"hidden" : 0,
									"midpoints" : [  ]
								}

							}
, 							{
								"patchline" : 								{
									"source" : [ "obj-6", 0 ],
									"destination" : [ "obj-5", 0 ],
									"hidden" : 0,
									"midpoints" : [  ]
								}

							}
, 							{
								"patchline" : 								{
									"source" : [ "obj-5", 0 ],
									"destination" : [ "obj-6", 0 ],
									"hidden" : 0,
									"midpoints" : [ 249.5, 368.0, 236.0, 368.0, 236.0, 305.0, 249.5, 305.0 ]
								}

							}
, 							{
								"patchline" : 								{
									"source" : [ "obj-4", 0 ],
									"destination" : [ "obj-3", 0 ],
									"hidden" : 0,
									"midpoints" : [ 249.5, 278.0, 240.0, 278.0, 240.0, 215.0, 249.5, 215.0 ]
								}

							}
, 							{
								"patchline" : 								{
									"source" : [ "obj-3", 0 ],
									"destination" : [ "obj-4", 0 ],
									"hidden" : 0,
									"midpoints" : [  ]
								}

							}
 ]
					}
,
					"saved_object_attributes" : 					{
						"globalpatchername" : "",
						"fontface" : 0,
						"fontsize" : 12.0,
						"default_fontface" : 0,
						"default_fontname" : "Arial",
						"fontname" : "Arial",
						"default_fontsize" : 12.0
					}

				}

			}
, 			{
				"box" : 				{
					"maxclass" : "newobj",
					"text" : "Mu.lemurClient #1/DeviceOn/x",
					"outlettype" : [ "" ],
					"fontsize" : 12.0,
					"patching_rect" : [ 31.5, 32.5, 153.0, 20.0 ],
					"numinlets" : 3,
					"id" : "obj-32",
					"fontname" : "Arial",
					"numoutlets" : 1
				}

			}
, 			{
				"box" : 				{
					"maxclass" : "toggle",
					"outlettype" : [ "int" ],
					"patching_rect" : [ 31.5, 55.5, 20.0, 20.0 ],
					"numinlets" : 1,
					"id" : "obj-50",
					"numoutlets" : 1
				}

			}
, 			{
				"box" : 				{
					"maxclass" : "newobj",
					"text" : "Mu.deviceParameter #1 \"Device On\"",
					"outlettype" : [ "", "", "" ],
					"fontsize" : 12.0,
					"patching_rect" : [ 31.5, 77.5, 247.0, 20.0 ],
					"numinlets" : 3,
					"id" : "obj-48",
					"fontname" : "Arial",
					"numoutlets" : 3
				}

			}
 ],
		"lines" : [ 			{
				"patchline" : 				{
					"source" : [ "obj-32", 0 ],
					"destination" : [ "obj-50", 0 ],
					"hidden" : 0,
					"midpoints" : [  ]
				}

			}
, 			{
				"patchline" : 				{
					"source" : [ "obj-48", 0 ],
					"destination" : [ "obj-32", 0 ],
					"hidden" : 0,
					"midpoints" : [ 41.0, 102.5, 25.5, 102.5, 25.5, 26.5, 41.0, 26.5 ]
				}

			}
, 			{
				"patchline" : 				{
					"source" : [ "obj-50", 0 ],
					"destination" : [ "obj-48", 0 ],
					"hidden" : 0,
					"midpoints" : [  ]
				}

			}
 ]
	}

}
