{
	"patcher" : 	{
		"fileversion" : 1,
		"rect" : [ 426.0, 62.0, 640.0, 480.0 ],
		"bglocked" : 0,
		"defrect" : [ 426.0, 62.0, 640.0, 480.0 ],
		"openrect" : [ 0.0, 0.0, 0.0, 0.0 ],
		"openinpresentation" : 1,
		"default_fontsize" : 12.0,
		"default_fontface" : 0,
		"default_fontname" : "Arial",
		"gridonopen" : 0,
		"gridsize" : [ 15.0, 15.0 ],
		"gridsnaponopen" : 0,
		"toolbarvisible" : 1,
		"boxanimatetime" : 200,
		"imprint" : 0,
		"enablehscroll" : 1,
		"enablevscroll" : 1,
		"devicewidth" : 0.0,
		"boxes" : [ 			{
				"box" : 				{
					"fontname" : "Arial Bold",
					"fontsize" : 9.0,
					"id" : "obj-4",
					"maxclass" : "textbutton",
					"numinlets" : 1,
					"numoutlets" : 3,
					"outlettype" : [ "", "", "int" ],
					"outputmode" : 0,
					"patching_rect" : [ 164.0, 40.0, 38.0, 15.0 ],
					"presentation" : 1,
					"presentation_rect" : [ 1.0, 1.0, 38.0, 16.0 ],
					"rounded" : 4.0,
					"text" : "refresh"
				}

			}
, 			{
				"box" : 				{
					"comment" : "",
					"id" : "obj-1",
					"maxclass" : "inlet",
					"numinlets" : 0,
					"numoutlets" : 1,
					"outlettype" : [ "" ],
					"patching_rect" : [ 108.0, 74.0, 25.0, 25.0 ]
				}

			}
, 			{
				"box" : 				{
					"args" : [  ],
					"id" : "obj-7",
					"maxclass" : "bpatcher",
					"name" : "Mu.api.SelectParameter.maxpat",
					"numinlets" : 1,
					"numoutlets" : 1,
					"outlettype" : [ "" ],
					"patching_rect" : [ 164.0, 98.0, 116.0, 31.0 ],
					"presentation" : 1,
					"presentation_rect" : [ 166.0, 0.0, 103.0, 20.0 ],
					"varname" : "SelectParameter"
				}

			}
, 			{
				"box" : 				{
					"args" : [  ],
					"id" : "obj-12",
					"maxclass" : "bpatcher",
					"name" : "Mu.api.SelectDevice.maxpat",
					"numinlets" : 1,
					"numoutlets" : 1,
					"outlettype" : [ "" ],
					"patching_rect" : [ 164.0, 59.0, 136.0, 31.0 ],
					"presentation" : 1,
					"presentation_rect" : [ 40.0, 0.0, 125.0, 20.0 ],
					"varname" : "SelectDevice"
				}

			}
, 			{
				"box" : 				{
					"color" : [ 0.545098, 0.85098, 0.592157, 1.0 ],
					"fontname" : "Arial Bold",
					"fontsize" : 10.0,
					"id" : "obj-13",
					"maxclass" : "newobj",
					"numinlets" : 3,
					"numoutlets" : 3,
					"outlettype" : [ "", "", "" ],
					"patching_rect" : [ 52.0, 145.0, 131.0, 18.0 ],
					"text" : "M4L.api.DeviceParameter",
					"varname" : "M4L.api.DeviceParameter"
				}

			}
, 			{
				"box" : 				{
					"fontname" : "Arial Bold",
					"fontsize" : 10.0,
					"id" : "obj-17",
					"maxclass" : "flonum",
					"maximum" : 1.0,
					"minimum" : 0.0,
					"numinlets" : 1,
					"numoutlets" : 2,
					"outlettype" : [ "float", "bang" ],
					"patching_rect" : [ 108.0, 114.0, 50.0, 18.0 ],
					"presentation" : 1,
					"presentation_rect" : [ 267.0, 0.0, 50.0, 18.0 ]
				}

			}
 ],
		"lines" : [ 			{
				"patchline" : 				{
					"destination" : [ "obj-17", 0 ],
					"hidden" : 0,
					"midpoints" : [  ],
					"source" : [ "obj-1", 0 ]
				}

			}
, 			{
				"patchline" : 				{
					"destination" : [ "obj-7", 0 ],
					"hidden" : 0,
					"midpoints" : [  ],
					"source" : [ "obj-12", 0 ]
				}

			}
, 			{
				"patchline" : 				{
					"destination" : [ "obj-13", 1 ],
					"hidden" : 0,
					"midpoints" : [  ],
					"source" : [ "obj-17", 0 ]
				}

			}
, 			{
				"patchline" : 				{
					"destination" : [ "obj-12", 0 ],
					"hidden" : 0,
					"midpoints" : [  ],
					"source" : [ "obj-4", 0 ]
				}

			}
, 			{
				"patchline" : 				{
					"destination" : [ "obj-13", 2 ],
					"hidden" : 0,
					"midpoints" : [  ],
					"source" : [ "obj-7", 0 ]
				}

			}
 ],
		"parameters" : 		{
			"obj-7::obj-16::obj-14" : [ "live-path", "live-path", 0 ],
			"obj-13::obj-15::obj-14" : [ "live-path[1]", "live-path", 0 ],
			"obj-12::obj-19::obj-7" : [ "saved-string[1]", "saved-string", 0 ],
			"obj-7::obj-19::obj-19" : [ "saved-int", "saved-int", 0 ]
		}

	}

}
