{
	"patcher" : 	{
		"fileversion" : 1,
		"rect" : [ 347.0, 235.0, 640.0, 480.0 ],
		"bglocked" : 0,
		"defrect" : [ 347.0, 235.0, 640.0, 480.0 ],
		"openrect" : [ 0.0, 0.0, 0.0, 0.0 ],
		"openinpresentation" : 0,
		"default_fontsize" : 12.0,
		"default_fontface" : 0,
		"default_fontname" : "Arial",
		"gridonopen" : 0,
		"gridsize" : [ 15.0, 15.0 ],
		"gridsnaponopen" : 0,
		"toolbarvisible" : 1,
		"boxanimatetime" : 200,
		"imprint" : 0,
		"enablehscroll" : 1,
		"enablevscroll" : 1,
		"devicewidth" : 0.0,
		"boxes" : [ 			{
				"box" : 				{
					"maxclass" : "outlet",
					"numinlets" : 1,
					"patching_rect" : [ 176.0, 428.0, 25.0, 25.0 ],
					"numoutlets" : 0,
					"id" : "obj-1",
					"comment" : ""
				}

			}
, 			{
				"box" : 				{
					"maxclass" : "newobj",
					"text" : "r ---sendsOnOff",
					"numinlets" : 0,
					"patching_rect" : [ 93.0, 280.0, 94.0, 20.0 ],
					"numoutlets" : 1,
					"fontname" : "Arial",
					"outlettype" : [ "" ],
					"id" : "obj-12",
					"fontsize" : 12.0
				}

			}
, 			{
				"box" : 				{
					"maxclass" : "newobj",
					"text" : "sel 1",
					"numinlets" : 2,
					"patching_rect" : [ 93.0, 362.0, 36.0, 20.0 ],
					"numoutlets" : 2,
					"fontname" : "Arial",
					"outlettype" : [ "bang", "" ],
					"id" : "obj-7",
					"fontsize" : 12.0
				}

			}
, 			{
				"box" : 				{
					"maxclass" : "newobj",
					"text" : "i",
					"numinlets" : 2,
					"patching_rect" : [ 93.0, 324.0, 32.5, 20.0 ],
					"numoutlets" : 1,
					"fontname" : "Arial",
					"outlettype" : [ "int" ],
					"id" : "obj-3",
					"fontsize" : 12.0
				}

			}
, 			{
				"box" : 				{
					"maxclass" : "newobj",
					"text" : "p send",
					"numinlets" : 1,
					"patching_rect" : [ 176.0, 390.0, 47.0, 20.0 ],
					"numoutlets" : 1,
					"fontname" : "Arial",
					"outlettype" : [ "" ],
					"id" : "obj-13",
					"fontsize" : 12.0,
					"patcher" : 					{
						"fileversion" : 1,
						"rect" : [ 246.0, 44.0, 790.0, 826.0 ],
						"bglocked" : 0,
						"defrect" : [ 246.0, 44.0, 790.0, 826.0 ],
						"openrect" : [ 0.0, 0.0, 0.0, 0.0 ],
						"openinpresentation" : 0,
						"default_fontsize" : 12.0,
						"default_fontface" : 0,
						"default_fontname" : "Arial",
						"gridonopen" : 0,
						"gridsize" : [ 15.0, 15.0 ],
						"gridsnaponopen" : 0,
						"toolbarvisible" : 1,
						"boxanimatetime" : 200,
						"imprint" : 0,
						"enablehscroll" : 1,
						"enablevscroll" : 1,
						"devicewidth" : 0.0,
						"boxes" : [ 							{
								"box" : 								{
									"maxclass" : "comment",
									"text" : "mute live.observer while multislider is being touched",
									"linecount" : 2,
									"numinlets" : 1,
									"patching_rect" : [ 93.0, 498.0, 153.0, 34.0 ],
									"numoutlets" : 0,
									"fontname" : "Arial",
									"id" : "obj-28",
									"fontsize" : 12.0
								}

							}
, 							{
								"box" : 								{
									"maxclass" : "toggle",
									"numinlets" : 1,
									"patching_rect" : [ 313.0, 599.0, 20.0, 20.0 ],
									"numoutlets" : 1,
									"outlettype" : [ "int" ],
									"id" : "obj-24"
								}

							}
, 							{
								"box" : 								{
									"maxclass" : "newobj",
									"text" : "t f 1",
									"numinlets" : 1,
									"patching_rect" : [ 250.0, 567.0, 32.5, 20.0 ],
									"numoutlets" : 2,
									"fontname" : "Arial",
									"outlettype" : [ "float", "int" ],
									"id" : "obj-23",
									"fontsize" : 12.0
								}

							}
, 							{
								"box" : 								{
									"maxclass" : "newobj",
									"text" : "qlim 10",
									"numinlets" : 2,
									"patching_rect" : [ 51.0, 306.0, 44.0, 17.0 ],
									"numoutlets" : 1,
									"fontname" : "Verdana",
									"outlettype" : [ "" ],
									"id" : "obj-17",
									"fontsize" : 9.0
								}

							}
, 							{
								"box" : 								{
									"maxclass" : "newobj",
									"text" : "deferlow",
									"numinlets" : 1,
									"patching_rect" : [ 250.0, 545.0, 56.0, 20.0 ],
									"numoutlets" : 1,
									"fontname" : "Arial",
									"outlettype" : [ "" ],
									"id" : "obj-35",
									"fontsize" : 12.0
								}

							}
, 							{
								"box" : 								{
									"maxclass" : "newobj",
									"text" : "pipe 200",
									"numinlets" : 2,
									"patching_rect" : [ 250.0, 523.0, 57.0, 20.0 ],
									"numoutlets" : 1,
									"fontname" : "Arial",
									"outlettype" : [ "" ],
									"id" : "obj-33",
									"fontsize" : 12.0
								}

							}
, 							{
								"box" : 								{
									"maxclass" : "newobj",
									"text" : "gate 1 1",
									"numinlets" : 2,
									"patching_rect" : [ 313.0, 652.0, 54.0, 20.0 ],
									"numoutlets" : 1,
									"fontname" : "Arial",
									"outlettype" : [ "" ],
									"id" : "obj-15",
									"fontsize" : 12.0
								}

							}
, 							{
								"box" : 								{
									"maxclass" : "newobj",
									"text" : "t f clear 0",
									"numinlets" : 1,
									"patching_rect" : [ 250.0, 494.0, 82.0, 20.0 ],
									"numoutlets" : 3,
									"fontname" : "Arial",
									"outlettype" : [ "float", "clear", "int" ],
									"id" : "obj-11",
									"fontsize" : 12.0
								}

							}
, 							{
								"box" : 								{
									"maxclass" : "outlet",
									"numinlets" : 1,
									"patching_rect" : [ 313.0, 689.0, 25.0, 25.0 ],
									"numoutlets" : 0,
									"id" : "obj-10",
									"comment" : ""
								}

							}
, 							{
								"box" : 								{
									"maxclass" : "newobj",
									"text" : ">",
									"numinlets" : 2,
									"patching_rect" : [ 228.0, 432.0, 32.5, 20.0 ],
									"numoutlets" : 1,
									"fontname" : "Arial",
									"outlettype" : [ "int" ],
									"id" : "obj-13",
									"fontsize" : 12.0
								}

							}
, 							{
								"box" : 								{
									"maxclass" : "newobj",
									"text" : "r ---viewing_tracks",
									"color" : [ 0.415686, 0.239216, 0.109804, 1.0 ],
									"numinlets" : 0,
									"patching_rect" : [ 228.0, 397.0, 109.0, 20.0 ],
									"numoutlets" : 1,
									"fontname" : "Arial",
									"outlettype" : [ "" ],
									"id" : "obj-2",
									"fontsize" : 12.0
								}

							}
, 							{
								"box" : 								{
									"maxclass" : "newobj",
									"text" : "gate 1 0",
									"numinlets" : 2,
									"patching_rect" : [ 348.0, 494.0, 54.0, 20.0 ],
									"numoutlets" : 1,
									"fontname" : "Arial",
									"outlettype" : [ "" ],
									"id" : "obj-12",
									"fontsize" : 12.0
								}

							}
, 							{
								"box" : 								{
									"maxclass" : "message",
									"text" : "id $1",
									"numinlets" : 2,
									"patching_rect" : [ 120.0, 350.0, 33.0, 16.0 ],
									"numoutlets" : 1,
									"fontname" : "Arial Bold",
									"outlettype" : [ "" ],
									"id" : "obj-55",
									"fontsize" : 10.0
								}

							}
, 							{
								"box" : 								{
									"maxclass" : "message",
									"text" : "id $1",
									"numinlets" : 2,
									"patching_rect" : [ 464.0, 309.0, 33.0, 16.0 ],
									"numoutlets" : 1,
									"fontname" : "Arial Bold",
									"outlettype" : [ "" ],
									"id" : "obj-54",
									"fontsize" : 10.0
								}

							}
, 							{
								"box" : 								{
									"maxclass" : "newobj",
									"text" : "swap",
									"numinlets" : 2,
									"patching_rect" : [ 415.0, 150.0, 44.0, 20.0 ],
									"numoutlets" : 2,
									"fontname" : "Arial",
									"outlettype" : [ "int", "int" ],
									"id" : "obj-45",
									"fontsize" : 12.0
								}

							}
, 							{
								"box" : 								{
									"maxclass" : "newobj",
									"text" : "bondo",
									"numinlets" : 2,
									"patching_rect" : [ 415.0, 123.0, 44.0, 20.0 ],
									"numoutlets" : 2,
									"fontname" : "Arial",
									"outlettype" : [ "", "" ],
									"id" : "obj-39",
									"fontsize" : 12.0
								}

							}
, 							{
								"box" : 								{
									"maxclass" : "newobj",
									"text" : "r ---sends_display",
									"color" : [ 0.415686, 0.239216, 0.109804, 1.0 ],
									"numinlets" : 0,
									"patching_rect" : [ 440.0, 92.0, 114.0, 20.0 ],
									"numoutlets" : 1,
									"fontname" : "Verdana",
									"outlettype" : [ "" ],
									"id" : "obj-26",
									"fontsize" : 11.289782
								}

							}
, 							{
								"box" : 								{
									"maxclass" : "message",
									"text" : "#1",
									"numinlets" : 2,
									"patching_rect" : [ 669.0, 133.0, 32.5, 18.0 ],
									"numoutlets" : 1,
									"fontname" : "Arial",
									"outlettype" : [ "" ],
									"id" : "obj-19",
									"fontsize" : 12.0
								}

							}
, 							{
								"box" : 								{
									"maxclass" : "newobj",
									"text" : "loadbang",
									"numinlets" : 1,
									"patching_rect" : [ 669.0, 87.0, 60.0, 20.0 ],
									"numoutlets" : 1,
									"fontname" : "Arial",
									"outlettype" : [ "bang" ],
									"id" : "obj-16",
									"fontsize" : 12.0
								}

							}
, 							{
								"box" : 								{
									"maxclass" : "newobj",
									"text" : "t i i",
									"numinlets" : 1,
									"patching_rect" : [ 336.0, 87.0, 32.5, 20.0 ],
									"numoutlets" : 2,
									"fontname" : "Arial",
									"outlettype" : [ "int", "int" ],
									"id" : "obj-31",
									"fontsize" : 12.0
								}

							}
, 							{
								"box" : 								{
									"maxclass" : "newobj",
									"text" : "t 0",
									"numinlets" : 1,
									"patching_rect" : [ 317.0, 169.0, 24.0, 20.0 ],
									"numoutlets" : 1,
									"fontname" : "Arial",
									"outlettype" : [ "int" ],
									"id" : "obj-30",
									"fontsize" : 12.0
								}

							}
, 							{
								"box" : 								{
									"maxclass" : "newobj",
									"text" : "t 1",
									"numinlets" : 1,
									"patching_rect" : [ 350.0, 169.0, 24.0, 20.0 ],
									"numoutlets" : 1,
									"fontname" : "Arial",
									"outlettype" : [ "int" ],
									"id" : "obj-27",
									"fontsize" : 12.0
								}

							}
, 							{
								"box" : 								{
									"maxclass" : "toggle",
									"numinlets" : 1,
									"patching_rect" : [ 350.0, 208.0, 20.0, 20.0 ],
									"numoutlets" : 1,
									"outlettype" : [ "int" ],
									"id" : "obj-25"
								}

							}
, 							{
								"box" : 								{
									"maxclass" : "newobj",
									"text" : "gate",
									"numinlets" : 2,
									"patching_rect" : [ 384.0, 256.0, 50.0, 20.0 ],
									"numoutlets" : 1,
									"fontname" : "Arial",
									"outlettype" : [ "" ],
									"id" : "obj-22",
									"fontsize" : 12.0
								}

							}
, 							{
								"box" : 								{
									"maxclass" : "comment",
									"text" : "fader # (Lemur)",
									"numinlets" : 1,
									"patching_rect" : [ 669.0, 60.0, 115.0, 20.0 ],
									"numoutlets" : 0,
									"fontname" : "Arial",
									"id" : "obj-46",
									"fontsize" : 12.0
								}

							}
, 							{
								"box" : 								{
									"maxclass" : "comment",
									"text" : "disable",
									"numinlets" : 1,
									"patching_rect" : [ 143.0, 138.0, 49.0, 20.0 ],
									"numoutlets" : 0,
									"fontname" : "Arial",
									"textcolor" : [ 0.929412, 0.360784, 0.866667, 1.0 ],
									"frgb" : [ 0.929412, 0.360784, 0.866667, 1.0 ],
									"id" : "obj-3",
									"fontsize" : 12.0
								}

							}
, 							{
								"box" : 								{
									"maxclass" : "newobj",
									"text" : "sel -1",
									"numinlets" : 2,
									"patching_rect" : [ 238.0, 55.0, 52.0, 20.0 ],
									"numoutlets" : 2,
									"fontname" : "Arial",
									"outlettype" : [ "bang", "" ],
									"id" : "obj-1",
									"fontsize" : 12.0
								}

							}
, 							{
								"box" : 								{
									"maxclass" : "newobj",
									"text" : "r ---from.lemur",
									"numinlets" : 0,
									"patching_rect" : [ 51.0, 205.0, 79.0, 18.0 ],
									"numoutlets" : 1,
									"fontname" : "Arial Bold",
									"outlettype" : [ "" ],
									"id" : "obj-42",
									"fontsize" : 10.0
								}

							}
, 							{
								"box" : 								{
									"maxclass" : "inlet",
									"numinlets" : 0,
									"patching_rect" : [ 238.0, 19.0, 25.0, 25.0 ],
									"numoutlets" : 1,
									"outlettype" : [ "" ],
									"id" : "obj-38",
									"comment" : ""
								}

							}
, 							{
								"box" : 								{
									"maxclass" : "newobj",
									"text" : "t b l",
									"numinlets" : 1,
									"patching_rect" : [ 384.0, 284.0, 98.5, 17.0 ],
									"numoutlets" : 2,
									"fontname" : "Verdana",
									"outlettype" : [ "bang", "" ],
									"id" : "obj-41",
									"fontsize" : 9.0
								}

							}
, 							{
								"box" : 								{
									"maxclass" : "newobj",
									"text" : "zl mth",
									"numinlets" : 2,
									"patching_rect" : [ 51.0, 258.0, 39.0, 17.0 ],
									"numoutlets" : 2,
									"fontname" : "Verdana",
									"outlettype" : [ "", "" ],
									"id" : "obj-14",
									"fontsize" : 9.0
								}

							}
, 							{
								"box" : 								{
									"maxclass" : "newobj",
									"text" : "OSC-route /sends/sendSliders/x",
									"numinlets" : 1,
									"patching_rect" : [ 51.0, 226.0, 163.0, 18.0 ],
									"numoutlets" : 2,
									"fontname" : "Arial Bold",
									"outlettype" : [ "", "" ],
									"id" : "obj-4",
									"fontsize" : 10.0
								}

							}
, 							{
								"box" : 								{
									"maxclass" : "newobj",
									"text" : "sprintf set /sends/setSingle %i",
									"numinlets" : 1,
									"patching_rect" : [ 452.0, 373.0, 150.0, 17.0 ],
									"numoutlets" : 1,
									"fontname" : "Verdana",
									"outlettype" : [ "" ],
									"id" : "obj-9",
									"fontsize" : 9.0
								}

							}
, 							{
								"box" : 								{
									"maxclass" : "newobj",
									"text" : "prepend",
									"numinlets" : 1,
									"patching_rect" : [ 413.0, 403.0, 48.0, 17.0 ],
									"numoutlets" : 1,
									"fontname" : "Verdana",
									"outlettype" : [ "" ],
									"id" : "obj-6",
									"fontsize" : 9.0
								}

							}
, 							{
								"box" : 								{
									"maxclass" : "message",
									"text" : "id 0",
									"numinlets" : 2,
									"bgcolor" : [ 0.929412, 0.360784, 0.866667, 1.0 ],
									"patching_rect" : [ 238.0, 144.0, 32.5, 15.0 ],
									"numoutlets" : 1,
									"fontname" : "Verdana",
									"outlettype" : [ "" ],
									"id" : "obj-7",
									"fontsize" : 9.0
								}

							}
, 							{
								"box" : 								{
									"maxclass" : "message",
									"text" : "property value",
									"numinlets" : 2,
									"patching_rect" : [ 384.0, 309.0, 79.0, 16.0 ],
									"numoutlets" : 1,
									"fontname" : "Arial Bold",
									"outlettype" : [ "" ],
									"id" : "obj-20",
									"fontsize" : 10.0
								}

							}
, 							{
								"box" : 								{
									"maxclass" : "newobj",
									"text" : "live.observer",
									"numinlets" : 2,
									"patching_rect" : [ 384.0, 341.0, 100.0, 18.0 ],
									"numoutlets" : 2,
									"fontname" : "Arial Bold",
									"outlettype" : [ "", "" ],
									"id" : "obj-18",
									"fontsize" : 10.0
								}

							}
, 							{
								"box" : 								{
									"maxclass" : "message",
									"text" : "set value $1",
									"numinlets" : 2,
									"patching_rect" : [ 51.0, 350.0, 67.0, 16.0 ],
									"numoutlets" : 1,
									"fontname" : "Arial Bold",
									"outlettype" : [ "" ],
									"id" : "obj-8",
									"fontsize" : 10.0
								}

							}
, 							{
								"box" : 								{
									"maxclass" : "newobj",
									"text" : "live.object",
									"numinlets" : 2,
									"patching_rect" : [ 51.0, 379.0, 88.0, 18.0 ],
									"numoutlets" : 1,
									"fontname" : "Arial Bold",
									"outlettype" : [ "" ],
									"id" : "obj-5",
									"fontsize" : 10.0
								}

							}
, 							{
								"box" : 								{
									"maxclass" : "newobj",
									"text" : "coll ---sendsIds",
									"numinlets" : 1,
									"patching_rect" : [ 415.0, 188.0, 92.0, 20.0 ],
									"numoutlets" : 4,
									"fontname" : "Arial",
									"outlettype" : [ "", "", "", "" ],
									"id" : "obj-29",
									"fontsize" : 12.0,
									"saved_object_attributes" : 									{
										"embed" : 0
									}

								}

							}
, 							{
								"box" : 								{
									"maxclass" : "newobj",
									"text" : "zl mth 0",
									"numinlets" : 2,
									"patching_rect" : [ 415.0, 219.0, 110.0, 20.0 ],
									"numoutlets" : 2,
									"fontname" : "Arial",
									"outlettype" : [ "", "" ],
									"id" : "obj-34",
									"fontsize" : 12.0
								}

							}
 ],
						"lines" : [ 							{
								"patchline" : 								{
									"source" : [ "obj-23", 0 ],
									"destination" : [ "obj-15", 1 ],
									"hidden" : 0,
									"midpoints" : [ 259.5, 633.0, 357.5, 633.0 ]
								}

							}
, 							{
								"patchline" : 								{
									"source" : [ "obj-23", 1 ],
									"destination" : [ "obj-24", 0 ],
									"hidden" : 0,
									"midpoints" : [  ]
								}

							}
, 							{
								"patchline" : 								{
									"source" : [ "obj-35", 0 ],
									"destination" : [ "obj-23", 0 ],
									"hidden" : 0,
									"midpoints" : [  ]
								}

							}
, 							{
								"patchline" : 								{
									"source" : [ "obj-14", 0 ],
									"destination" : [ "obj-17", 0 ],
									"hidden" : 0,
									"midpoints" : [  ]
								}

							}
, 							{
								"patchline" : 								{
									"source" : [ "obj-17", 0 ],
									"destination" : [ "obj-8", 0 ],
									"hidden" : 0,
									"midpoints" : [  ]
								}

							}
, 							{
								"patchline" : 								{
									"source" : [ "obj-17", 0 ],
									"destination" : [ "obj-11", 0 ],
									"hidden" : 0,
									"midpoints" : [  ]
								}

							}
, 							{
								"patchline" : 								{
									"source" : [ "obj-11", 2 ],
									"destination" : [ "obj-24", 0 ],
									"hidden" : 0,
									"midpoints" : [  ]
								}

							}
, 							{
								"patchline" : 								{
									"source" : [ "obj-11", 1 ],
									"destination" : [ "obj-33", 0 ],
									"hidden" : 0,
									"midpoints" : [  ]
								}

							}
, 							{
								"patchline" : 								{
									"source" : [ "obj-11", 0 ],
									"destination" : [ "obj-33", 0 ],
									"hidden" : 0,
									"midpoints" : [  ]
								}

							}
, 							{
								"patchline" : 								{
									"source" : [ "obj-33", 0 ],
									"destination" : [ "obj-35", 0 ],
									"hidden" : 0,
									"midpoints" : [  ]
								}

							}
, 							{
								"patchline" : 								{
									"source" : [ "obj-18", 0 ],
									"destination" : [ "obj-12", 1 ],
									"hidden" : 0,
									"midpoints" : [  ]
								}

							}
, 							{
								"patchline" : 								{
									"source" : [ "obj-2", 0 ],
									"destination" : [ "obj-13", 0 ],
									"hidden" : 0,
									"midpoints" : [  ]
								}

							}
, 							{
								"patchline" : 								{
									"source" : [ "obj-13", 0 ],
									"destination" : [ "obj-12", 0 ],
									"hidden" : 0,
									"midpoints" : [ 237.5, 455.5, 357.5, 455.5 ]
								}

							}
, 							{
								"patchline" : 								{
									"source" : [ "obj-19", 0 ],
									"destination" : [ "obj-13", 1 ],
									"hidden" : 0,
									"midpoints" : [ 678.5, 425.0, 251.0, 425.0 ]
								}

							}
, 							{
								"patchline" : 								{
									"source" : [ "obj-9", 0 ],
									"destination" : [ "obj-6", 0 ],
									"hidden" : 0,
									"midpoints" : [  ]
								}

							}
, 							{
								"patchline" : 								{
									"source" : [ "obj-1", 0 ],
									"destination" : [ "obj-30", 0 ],
									"hidden" : 0,
									"midpoints" : [  ]
								}

							}
, 							{
								"patchline" : 								{
									"source" : [ "obj-1", 0 ],
									"destination" : [ "obj-7", 0 ],
									"hidden" : 0,
									"midpoints" : [  ]
								}

							}
, 							{
								"patchline" : 								{
									"source" : [ "obj-25", 0 ],
									"destination" : [ "obj-22", 0 ],
									"hidden" : 0,
									"midpoints" : [  ]
								}

							}
, 							{
								"patchline" : 								{
									"source" : [ "obj-27", 0 ],
									"destination" : [ "obj-25", 0 ],
									"hidden" : 0,
									"midpoints" : [  ]
								}

							}
, 							{
								"patchline" : 								{
									"source" : [ "obj-30", 0 ],
									"destination" : [ "obj-25", 0 ],
									"hidden" : 0,
									"midpoints" : [  ]
								}

							}
, 							{
								"patchline" : 								{
									"source" : [ "obj-38", 0 ],
									"destination" : [ "obj-1", 0 ],
									"hidden" : 0,
									"midpoints" : [  ]
								}

							}
, 							{
								"patchline" : 								{
									"source" : [ "obj-41", 0 ],
									"destination" : [ "obj-20", 0 ],
									"hidden" : 0,
									"midpoints" : [  ]
								}

							}
, 							{
								"patchline" : 								{
									"source" : [ "obj-7", 0 ],
									"destination" : [ "obj-5", 1 ],
									"hidden" : 0,
									"color" : [ 0.87451, 0.25098, 0.717647, 1.0 ],
									"midpoints" : [ 247.5, 372.5, 129.5, 372.5 ]
								}

							}
, 							{
								"patchline" : 								{
									"source" : [ "obj-8", 0 ],
									"destination" : [ "obj-5", 0 ],
									"hidden" : 0,
									"midpoints" : [  ]
								}

							}
, 							{
								"patchline" : 								{
									"source" : [ "obj-39", 1 ],
									"destination" : [ "obj-45", 1 ],
									"hidden" : 0,
									"midpoints" : [  ]
								}

							}
, 							{
								"patchline" : 								{
									"source" : [ "obj-39", 0 ],
									"destination" : [ "obj-45", 0 ],
									"hidden" : 0,
									"midpoints" : [  ]
								}

							}
, 							{
								"patchline" : 								{
									"source" : [ "obj-45", 1 ],
									"destination" : [ "obj-34", 1 ],
									"hidden" : 0,
									"midpoints" : [ 449.5, 178.5, 515.5, 178.5 ]
								}

							}
, 							{
								"patchline" : 								{
									"source" : [ "obj-31", 0 ],
									"destination" : [ "obj-39", 0 ],
									"hidden" : 0,
									"midpoints" : [ 345.5, 114.5, 424.5, 114.5 ]
								}

							}
, 							{
								"patchline" : 								{
									"source" : [ "obj-31", 1 ],
									"destination" : [ "obj-27", 0 ],
									"hidden" : 0,
									"midpoints" : [  ]
								}

							}
, 							{
								"patchline" : 								{
									"source" : [ "obj-1", 1 ],
									"destination" : [ "obj-31", 0 ],
									"hidden" : 0,
									"midpoints" : [ 280.5, 80.5, 345.5, 80.5 ]
								}

							}
, 							{
								"patchline" : 								{
									"source" : [ "obj-34", 0 ],
									"destination" : [ "obj-22", 1 ],
									"hidden" : 0,
									"midpoints" : [  ]
								}

							}
, 							{
								"patchline" : 								{
									"source" : [ "obj-22", 0 ],
									"destination" : [ "obj-41", 0 ],
									"hidden" : 0,
									"midpoints" : [  ]
								}

							}
, 							{
								"patchline" : 								{
									"source" : [ "obj-55", 0 ],
									"destination" : [ "obj-5", 1 ],
									"hidden" : 0,
									"midpoints" : [  ]
								}

							}
, 							{
								"patchline" : 								{
									"source" : [ "obj-22", 0 ],
									"destination" : [ "obj-55", 0 ],
									"hidden" : 0,
									"midpoints" : [  ]
								}

							}
, 							{
								"patchline" : 								{
									"source" : [ "obj-4", 0 ],
									"destination" : [ "obj-14", 0 ],
									"hidden" : 0,
									"midpoints" : [  ]
								}

							}
, 							{
								"patchline" : 								{
									"source" : [ "obj-26", 0 ],
									"destination" : [ "obj-39", 1 ],
									"hidden" : 0,
									"midpoints" : [  ]
								}

							}
, 							{
								"patchline" : 								{
									"source" : [ "obj-45", 0 ],
									"destination" : [ "obj-29", 0 ],
									"hidden" : 0,
									"midpoints" : [  ]
								}

							}
, 							{
								"patchline" : 								{
									"source" : [ "obj-29", 0 ],
									"destination" : [ "obj-34", 0 ],
									"hidden" : 0,
									"midpoints" : [  ]
								}

							}
, 							{
								"patchline" : 								{
									"source" : [ "obj-42", 0 ],
									"destination" : [ "obj-4", 0 ],
									"hidden" : 0,
									"midpoints" : [  ]
								}

							}
, 							{
								"patchline" : 								{
									"source" : [ "obj-19", 0 ],
									"destination" : [ "obj-14", 1 ],
									"hidden" : 0,
									"midpoints" : [ 678.5, 249.0, 80.5, 249.0 ]
								}

							}
, 							{
								"patchline" : 								{
									"source" : [ "obj-19", 0 ],
									"destination" : [ "obj-9", 0 ],
									"hidden" : 0,
									"midpoints" : [ 678.5, 366.0, 461.5, 366.0 ]
								}

							}
, 							{
								"patchline" : 								{
									"source" : [ "obj-16", 0 ],
									"destination" : [ "obj-19", 0 ],
									"hidden" : 0,
									"midpoints" : [  ]
								}

							}
, 							{
								"patchline" : 								{
									"source" : [ "obj-20", 0 ],
									"destination" : [ "obj-18", 0 ],
									"hidden" : 0,
									"midpoints" : [  ]
								}

							}
, 							{
								"patchline" : 								{
									"source" : [ "obj-7", 0 ],
									"destination" : [ "obj-18", 1 ],
									"hidden" : 0,
									"color" : [ 0.87451, 0.25098, 0.717647, 1.0 ],
									"midpoints" : [ 247.5, 332.0, 474.5, 332.0 ]
								}

							}
, 							{
								"patchline" : 								{
									"source" : [ "obj-54", 0 ],
									"destination" : [ "obj-18", 1 ],
									"hidden" : 0,
									"midpoints" : [  ]
								}

							}
, 							{
								"patchline" : 								{
									"source" : [ "obj-41", 1 ],
									"destination" : [ "obj-54", 0 ],
									"hidden" : 0,
									"midpoints" : [  ]
								}

							}
, 							{
								"patchline" : 								{
									"source" : [ "obj-18", 0 ],
									"destination" : [ "obj-6", 0 ],
									"hidden" : 0,
									"midpoints" : [  ]
								}

							}
, 							{
								"patchline" : 								{
									"source" : [ "obj-15", 0 ],
									"destination" : [ "obj-10", 0 ],
									"hidden" : 0,
									"midpoints" : [  ]
								}

							}
, 							{
								"patchline" : 								{
									"source" : [ "obj-12", 0 ],
									"destination" : [ "obj-15", 1 ],
									"hidden" : 0,
									"midpoints" : [  ]
								}

							}
, 							{
								"patchline" : 								{
									"source" : [ "obj-24", 0 ],
									"destination" : [ "obj-15", 0 ],
									"hidden" : 0,
									"midpoints" : [  ]
								}

							}
 ]
					}
,
					"saved_object_attributes" : 					{
						"globalpatchername" : "",
						"default_fontface" : 0,
						"default_fontname" : "Arial",
						"fontname" : "Arial",
						"default_fontsize" : 12.0,
						"fontface" : 0,
						"fontsize" : 12.0
					}

				}

			}
, 			{
				"box" : 				{
					"maxclass" : "comment",
					"text" : "bypass for optimization if not used",
					"numinlets" : 1,
					"patching_rect" : [ 238.0, 359.0, 222.0, 20.0 ],
					"numoutlets" : 0,
					"fontname" : "Arial",
					"id" : "obj-4",
					"fontsize" : 12.0
				}

			}
, 			{
				"box" : 				{
					"maxclass" : "newobj",
					"text" : "gate 1 0",
					"numinlets" : 2,
					"patching_rect" : [ 176.0, 359.0, 54.0, 20.0 ],
					"numoutlets" : 1,
					"fontname" : "Arial",
					"outlettype" : [ "" ],
					"id" : "obj-14",
					"fontsize" : 12.0
				}

			}
, 			{
				"box" : 				{
					"maxclass" : "newobj",
					"text" : "loadbang",
					"numinlets" : 1,
					"patching_rect" : [ 227.0, 26.0, 60.0, 20.0 ],
					"numoutlets" : 1,
					"fontname" : "Arial",
					"outlettype" : [ "bang" ],
					"id" : "obj-29",
					"fontsize" : 12.0
				}

			}
, 			{
				"box" : 				{
					"maxclass" : "message",
					"text" : "#1",
					"numinlets" : 2,
					"patching_rect" : [ 227.0, 84.0, 32.5, 18.0 ],
					"numoutlets" : 1,
					"fontname" : "Arial",
					"outlettype" : [ "" ],
					"id" : "obj-5",
					"fontsize" : 12.0
				}

			}
, 			{
				"box" : 				{
					"maxclass" : "comment",
					"text" : "fader #",
					"numinlets" : 1,
					"patching_rect" : [ 177.0, 85.0, 48.0, 20.0 ],
					"numoutlets" : 0,
					"fontname" : "Arial",
					"id" : "obj-8",
					"fontsize" : 12.0
				}

			}
, 			{
				"box" : 				{
					"maxclass" : "newobj",
					"text" : "t -1",
					"numinlets" : 1,
					"patching_rect" : [ 353.0, 280.0, 32.0, 20.0 ],
					"numoutlets" : 1,
					"fontname" : "Arial",
					"outlettype" : [ "int" ],
					"id" : "obj-11",
					"fontsize" : 12.0
				}

			}
, 			{
				"box" : 				{
					"maxclass" : "newobj",
					"text" : "- 1",
					"numinlets" : 2,
					"patching_rect" : [ 353.0, 230.0, 33.0, 20.0 ],
					"numoutlets" : 1,
					"fontname" : "Arial",
					"outlettype" : [ "int" ],
					"id" : "obj-80",
					"fontsize" : 12.0
				}

			}
, 			{
				"box" : 				{
					"maxclass" : "newobj",
					"text" : "i",
					"numinlets" : 2,
					"patching_rect" : [ 211.0, 166.0, 34.5, 20.0 ],
					"numoutlets" : 1,
					"fontname" : "Arial",
					"outlettype" : [ "int" ],
					"id" : "obj-19",
					"fontsize" : 12.0
				}

			}
, 			{
				"box" : 				{
					"maxclass" : "newobj",
					"text" : "t b i",
					"numinlets" : 1,
					"patching_rect" : [ 325.0, 121.0, 47.0, 20.0 ],
					"numoutlets" : 2,
					"fontname" : "Arial",
					"outlettype" : [ "bang", "int" ],
					"id" : "obj-36",
					"fontsize" : 12.0
				}

			}
, 			{
				"box" : 				{
					"maxclass" : "newobj",
					"text" : "split 0 7",
					"numinlets" : 3,
					"patching_rect" : [ 211.0, 253.0, 161.0, 20.0 ],
					"numoutlets" : 2,
					"fontname" : "Arial",
					"outlettype" : [ "int", "int" ],
					"id" : "obj-22",
					"fontsize" : 12.0
				}

			}
, 			{
				"box" : 				{
					"maxclass" : "newobj",
					"text" : "bondo",
					"numinlets" : 2,
					"patching_rect" : [ 211.0, 208.0, 57.0, 20.0 ],
					"numoutlets" : 2,
					"fontname" : "Arial",
					"outlettype" : [ "", "" ],
					"id" : "obj-32",
					"fontsize" : 12.0
				}

			}
, 			{
				"box" : 				{
					"maxclass" : "newobj",
					"text" : "+ 0",
					"numinlets" : 2,
					"patching_rect" : [ 211.0, 230.0, 57.0, 20.0 ],
					"numoutlets" : 1,
					"fontname" : "Arial",
					"outlettype" : [ "int" ],
					"id" : "obj-28",
					"fontsize" : 12.0
				}

			}
, 			{
				"box" : 				{
					"maxclass" : "newobj",
					"text" : "r ---offset_tracks",
					"color" : [ 0.392157, 0.278431, 0.376471, 1.0 ],
					"numinlets" : 0,
					"patching_rect" : [ 249.0, 166.0, 98.0, 20.0 ],
					"numoutlets" : 1,
					"fontname" : "Arial",
					"outlettype" : [ "" ],
					"id" : "obj-31",
					"fontsize" : 12.0
				}

			}
, 			{
				"box" : 				{
					"maxclass" : "newobj",
					"text" : "r visible_tracks_count",
					"color" : [ 0.415686, 0.239216, 0.109804, 1.0 ],
					"numinlets" : 0,
					"patching_rect" : [ 325.0, 79.0, 135.0, 20.0 ],
					"numoutlets" : 1,
					"fontname" : "Arial",
					"outlettype" : [ "" ],
					"id" : "obj-54",
					"fontsize" : 12.0
				}

			}
, 			{
				"box" : 				{
					"maxclass" : "number",
					"numinlets" : 1,
					"patching_rect" : [ 211.0, 324.0, 53.0, 20.0 ],
					"numoutlets" : 2,
					"fontname" : "Arial",
					"outlettype" : [ "int", "bang" ],
					"id" : "obj-48",
					"fontsize" : 12.0
				}

			}
 ],
		"lines" : [ 			{
				"patchline" : 				{
					"source" : [ "obj-13", 0 ],
					"destination" : [ "obj-1", 0 ],
					"hidden" : 0,
					"midpoints" : [  ]
				}

			}
, 			{
				"patchline" : 				{
					"source" : [ "obj-3", 0 ],
					"destination" : [ "obj-7", 0 ],
					"hidden" : 0,
					"midpoints" : [  ]
				}

			}
, 			{
				"patchline" : 				{
					"source" : [ "obj-3", 0 ],
					"destination" : [ "obj-14", 0 ],
					"hidden" : 0,
					"midpoints" : [ 102.5, 352.5, 185.5, 352.5 ]
				}

			}
, 			{
				"patchline" : 				{
					"source" : [ "obj-7", 0 ],
					"destination" : [ "obj-19", 0 ],
					"hidden" : 0,
					"midpoints" : [ 102.5, 396.0, 70.0, 396.0, 70.0, 138.0, 220.5, 138.0 ]
				}

			}
, 			{
				"patchline" : 				{
					"source" : [ "obj-11", 0 ],
					"destination" : [ "obj-48", 0 ],
					"hidden" : 0,
					"midpoints" : [ 362.5, 306.5, 220.5, 306.5 ]
				}

			}
, 			{
				"patchline" : 				{
					"source" : [ "obj-22", 1 ],
					"destination" : [ "obj-11", 0 ],
					"hidden" : 0,
					"midpoints" : [  ]
				}

			}
, 			{
				"patchline" : 				{
					"source" : [ "obj-22", 0 ],
					"destination" : [ "obj-48", 0 ],
					"hidden" : 0,
					"midpoints" : [  ]
				}

			}
, 			{
				"patchline" : 				{
					"source" : [ "obj-28", 0 ],
					"destination" : [ "obj-22", 0 ],
					"hidden" : 0,
					"midpoints" : [  ]
				}

			}
, 			{
				"patchline" : 				{
					"source" : [ "obj-32", 1 ],
					"destination" : [ "obj-28", 1 ],
					"hidden" : 0,
					"midpoints" : [  ]
				}

			}
, 			{
				"patchline" : 				{
					"source" : [ "obj-32", 0 ],
					"destination" : [ "obj-28", 0 ],
					"hidden" : 0,
					"midpoints" : [  ]
				}

			}
, 			{
				"patchline" : 				{
					"source" : [ "obj-36", 1 ],
					"destination" : [ "obj-80", 0 ],
					"hidden" : 0,
					"midpoints" : [  ]
				}

			}
, 			{
				"patchline" : 				{
					"source" : [ "obj-80", 0 ],
					"destination" : [ "obj-22", 2 ],
					"hidden" : 0,
					"midpoints" : [  ]
				}

			}
, 			{
				"patchline" : 				{
					"source" : [ "obj-36", 0 ],
					"destination" : [ "obj-19", 0 ],
					"hidden" : 0,
					"midpoints" : [ 334.5, 153.0, 220.5, 153.0 ]
				}

			}
, 			{
				"patchline" : 				{
					"source" : [ "obj-19", 0 ],
					"destination" : [ "obj-32", 0 ],
					"hidden" : 0,
					"midpoints" : [  ]
				}

			}
, 			{
				"patchline" : 				{
					"source" : [ "obj-14", 0 ],
					"destination" : [ "obj-13", 0 ],
					"hidden" : 0,
					"midpoints" : [  ]
				}

			}
, 			{
				"patchline" : 				{
					"source" : [ "obj-48", 0 ],
					"destination" : [ "obj-14", 1 ],
					"hidden" : 0,
					"midpoints" : [  ]
				}

			}
, 			{
				"patchline" : 				{
					"source" : [ "obj-31", 0 ],
					"destination" : [ "obj-32", 1 ],
					"hidden" : 0,
					"midpoints" : [  ]
				}

			}
, 			{
				"patchline" : 				{
					"source" : [ "obj-54", 0 ],
					"destination" : [ "obj-36", 0 ],
					"hidden" : 0,
					"midpoints" : [  ]
				}

			}
, 			{
				"patchline" : 				{
					"source" : [ "obj-12", 0 ],
					"destination" : [ "obj-3", 0 ],
					"hidden" : 0,
					"midpoints" : [  ]
				}

			}
, 			{
				"patchline" : 				{
					"source" : [ "obj-5", 0 ],
					"destination" : [ "obj-19", 1 ],
					"hidden" : 0,
					"midpoints" : [  ]
				}

			}
, 			{
				"patchline" : 				{
					"source" : [ "obj-29", 0 ],
					"destination" : [ "obj-5", 0 ],
					"hidden" : 0,
					"midpoints" : [  ]
				}

			}
 ]
	}

}
