{
	"patcher" : 	{
		"fileversion" : 1,
		"rect" : [ 665.0, 44.0, 434.0, 482.0 ],
		"bglocked" : 0,
		"defrect" : [ 665.0, 44.0, 434.0, 482.0 ],
		"openrect" : [ 0.0, 0.0, 0.0, 0.0 ],
		"openinpresentation" : 0,
		"default_fontsize" : 12.0,
		"default_fontface" : 0,
		"default_fontname" : "Arial",
		"gridonopen" : 0,
		"gridsize" : [ 15.0, 15.0 ],
		"gridsnaponopen" : 0,
		"toolbarvisible" : 1,
		"boxanimatetime" : 200,
		"imprint" : 0,
		"enablehscroll" : 1,
		"enablevscroll" : 1,
		"devicewidth" : 0.0,
		"boxes" : [ 			{
				"box" : 				{
					"maxclass" : "newobj",
					"text" : "sel 1",
					"id" : "obj-9",
					"fontname" : "Arial",
					"patching_rect" : [ 37.0, 406.0, 36.0, 20.0 ],
					"numinlets" : 2,
					"fontsize" : 12.0,
					"numoutlets" : 2,
					"outlettype" : [ "bang", "" ]
				}

			}
, 			{
				"box" : 				{
					"maxclass" : "newobj",
					"text" : "p mute/solo/arm",
					"id" : "obj-12",
					"fontname" : "Arial",
					"patching_rect" : [ 139.0, 441.0, 97.0, 20.0 ],
					"numinlets" : 1,
					"fontsize" : 12.0,
					"numoutlets" : 0,
					"patcher" : 					{
						"fileversion" : 1,
						"rect" : [ 241.0, 335.0, 1125.0, 591.0 ],
						"bglocked" : 0,
						"defrect" : [ 241.0, 335.0, 1125.0, 591.0 ],
						"openrect" : [ 0.0, 0.0, 0.0, 0.0 ],
						"openinpresentation" : 0,
						"default_fontsize" : 12.0,
						"default_fontface" : 0,
						"default_fontname" : "Arial",
						"gridonopen" : 0,
						"gridsize" : [ 15.0, 15.0 ],
						"gridsnaponopen" : 0,
						"toolbarvisible" : 1,
						"boxanimatetime" : 200,
						"imprint" : 0,
						"enablehscroll" : 1,
						"enablevscroll" : 1,
						"devicewidth" : 0.0,
						"boxes" : [ 							{
								"box" : 								{
									"maxclass" : "newobj",
									"text" : "p getCachedTrackId",
									"id" : "obj-43",
									"fontname" : "Arial",
									"patching_rect" : [ 333.0, 90.0, 118.0, 20.0 ],
									"numinlets" : 1,
									"fontsize" : 12.0,
									"numoutlets" : 1,
									"outlettype" : [ "" ],
									"patcher" : 									{
										"fileversion" : 1,
										"rect" : [ 25.0, 69.0, 470.0, 348.0 ],
										"bglocked" : 0,
										"defrect" : [ 25.0, 69.0, 470.0, 348.0 ],
										"openrect" : [ 0.0, 0.0, 0.0, 0.0 ],
										"openinpresentation" : 0,
										"default_fontsize" : 12.0,
										"default_fontface" : 0,
										"default_fontname" : "Arial",
										"gridonopen" : 0,
										"gridsize" : [ 15.0, 15.0 ],
										"gridsnaponopen" : 0,
										"toolbarvisible" : 1,
										"boxanimatetime" : 200,
										"imprint" : 0,
										"enablehscroll" : 1,
										"enablevscroll" : 1,
										"devicewidth" : 0.0,
										"boxes" : [ 											{
												"box" : 												{
													"maxclass" : "message",
													"text" : "id $1",
													"id" : "obj-3",
													"fontname" : "Arial",
													"patching_rect" : [ 50.0, 258.0, 37.0, 18.0 ],
													"numinlets" : 2,
													"fontsize" : 12.0,
													"numoutlets" : 1,
													"outlettype" : [ "" ]
												}

											}
, 											{
												"box" : 												{
													"maxclass" : "newobj",
													"text" : "v visible_tracks_ids",
													"id" : "obj-6",
													"fontname" : "Arial",
													"patching_rect" : [ 167.0, 126.0, 121.0, 20.0 ],
													"numinlets" : 1,
													"fontsize" : 12.0,
													"numoutlets" : 1,
													"outlettype" : [ "" ]
												}

											}
, 											{
												"box" : 												{
													"maxclass" : "newobj",
													"text" : "i",
													"id" : "obj-21",
													"fontname" : "Arial",
													"patching_rect" : [ 50.0, 227.0, 33.0, 20.0 ],
													"numinlets" : 2,
													"fontsize" : 12.0,
													"numoutlets" : 1,
													"outlettype" : [ "int" ]
												}

											}
, 											{
												"box" : 												{
													"maxclass" : "newobj",
													"text" : "t b b i -1",
													"id" : "obj-20",
													"fontname" : "Arial",
													"patching_rect" : [ 50.0, 100.0, 369.0, 20.0 ],
													"numinlets" : 1,
													"fontsize" : 12.0,
													"numoutlets" : 4,
													"outlettype" : [ "bang", "bang", "int", "int" ]
												}

											}
, 											{
												"box" : 												{
													"maxclass" : "newobj",
													"text" : "zl mth 0",
													"id" : "obj-1",
													"fontname" : "Arial",
													"patching_rect" : [ 167.0, 179.0, 53.0, 20.0 ],
													"numinlets" : 2,
													"fontsize" : 12.0,
													"numoutlets" : 2,
													"outlettype" : [ "", "" ]
												}

											}
, 											{
												"box" : 												{
													"maxclass" : "inlet",
													"id" : "obj-15",
													"patching_rect" : [ 50.0, 40.0, 25.0, 25.0 ],
													"numinlets" : 0,
													"numoutlets" : 1,
													"outlettype" : [ "" ],
													"comment" : ""
												}

											}
, 											{
												"box" : 												{
													"maxclass" : "outlet",
													"id" : "obj-16",
													"patching_rect" : [ 50.0, 296.0, 25.0, 25.0 ],
													"numinlets" : 1,
													"numoutlets" : 0,
													"comment" : ""
												}

											}
 ],
										"lines" : [ 											{
												"patchline" : 												{
													"source" : [ "obj-3", 0 ],
													"destination" : [ "obj-16", 0 ],
													"hidden" : 0,
													"midpoints" : [  ]
												}

											}
, 											{
												"patchline" : 												{
													"source" : [ "obj-21", 0 ],
													"destination" : [ "obj-3", 0 ],
													"hidden" : 0,
													"midpoints" : [  ]
												}

											}
, 											{
												"patchline" : 												{
													"source" : [ "obj-6", 0 ],
													"destination" : [ "obj-1", 0 ],
													"hidden" : 0,
													"midpoints" : [  ]
												}

											}
, 											{
												"patchline" : 												{
													"source" : [ "obj-20", 1 ],
													"destination" : [ "obj-6", 0 ],
													"hidden" : 0,
													"midpoints" : [  ]
												}

											}
, 											{
												"patchline" : 												{
													"source" : [ "obj-20", 0 ],
													"destination" : [ "obj-21", 0 ],
													"hidden" : 0,
													"midpoints" : [  ]
												}

											}
, 											{
												"patchline" : 												{
													"source" : [ "obj-20", 3 ],
													"destination" : [ "obj-21", 1 ],
													"hidden" : 0,
													"midpoints" : [ 409.5, 213.5, 73.5, 213.5 ]
												}

											}
, 											{
												"patchline" : 												{
													"source" : [ "obj-20", 2 ],
													"destination" : [ "obj-1", 1 ],
													"hidden" : 0,
													"midpoints" : [ 292.833344, 149.0, 210.5, 149.0 ]
												}

											}
, 											{
												"patchline" : 												{
													"source" : [ "obj-15", 0 ],
													"destination" : [ "obj-20", 0 ],
													"hidden" : 0,
													"midpoints" : [  ]
												}

											}
, 											{
												"patchline" : 												{
													"source" : [ "obj-1", 0 ],
													"destination" : [ "obj-21", 1 ],
													"hidden" : 0,
													"midpoints" : [ 176.5, 207.0, 73.5, 207.0 ]
												}

											}
 ]
									}
,
									"saved_object_attributes" : 									{
										"fontname" : "Arial",
										"default_fontface" : 0,
										"globalpatchername" : "",
										"default_fontname" : "Arial",
										"fontface" : 0,
										"fontsize" : 12.0,
										"default_fontsize" : 12.0
									}

								}

							}
, 							{
								"box" : 								{
									"maxclass" : "newobj",
									"text" : "change",
									"id" : "obj-55",
									"fontname" : "Arial",
									"patching_rect" : [ 316.0, 245.0, 50.0, 20.0 ],
									"numinlets" : 1,
									"fontsize" : 12.0,
									"numoutlets" : 3,
									"outlettype" : [ "", "int", "int" ]
								}

							}
, 							{
								"box" : 								{
									"maxclass" : "newobj",
									"text" : "- 1",
									"id" : "obj-44",
									"fontname" : "Arial",
									"patching_rect" : [ 1011.0, 97.0, 32.5, 20.0 ],
									"numinlets" : 2,
									"fontsize" : 12.0,
									"numoutlets" : 1,
									"outlettype" : [ "int" ]
								}

							}
, 							{
								"box" : 								{
									"maxclass" : "newobj",
									"text" : "thispoly~",
									"id" : "obj-51",
									"fontname" : "Arial",
									"patching_rect" : [ 1011.0, 65.0, 58.0, 20.0 ],
									"numinlets" : 1,
									"fontsize" : 12.0,
									"numoutlets" : 2,
									"outlettype" : [ "int", "int" ]
								}

							}
, 							{
								"box" : 								{
									"maxclass" : "newobj",
									"text" : "loadbang",
									"id" : "obj-61",
									"fontname" : "Arial",
									"patching_rect" : [ 1011.0, 42.0, 60.0, 20.0 ],
									"numinlets" : 1,
									"fontsize" : 12.0,
									"numoutlets" : 1,
									"outlettype" : [ "bang" ]
								}

							}
, 							{
								"box" : 								{
									"maxclass" : "button",
									"id" : "obj-59",
									"patching_rect" : [ 85.0, 166.0, 20.0, 20.0 ],
									"numinlets" : 1,
									"numoutlets" : 1,
									"outlettype" : [ "bang" ]
								}

							}
, 							{
								"box" : 								{
									"maxclass" : "message",
									"text" : "-",
									"id" : "obj-77",
									"fontname" : "Arial",
									"patching_rect" : [ 85.0, 191.0, 32.5, 18.0 ],
									"numinlets" : 2,
									"fontsize" : 12.0,
									"numoutlets" : 1,
									"outlettype" : [ "" ]
								}

							}
, 							{
								"box" : 								{
									"maxclass" : "newobj",
									"text" : "sprintf set /spam/mute%d @label_off",
									"id" : "obj-74",
									"fontname" : "Verdana",
									"patching_rect" : [ 66.0, 366.0, 231.0, 17.0 ],
									"numinlets" : 1,
									"fontsize" : 9.0,
									"numoutlets" : 1,
									"outlettype" : [ "" ]
								}

							}
, 							{
								"box" : 								{
									"maxclass" : "newobj",
									"text" : "prepend",
									"id" : "obj-75",
									"fontname" : "Verdana",
									"patching_rect" : [ 46.0, 388.0, 48.0, 17.0 ],
									"numinlets" : 1,
									"fontsize" : 9.0,
									"numoutlets" : 1,
									"outlettype" : [ "" ]
								}

							}
, 							{
								"box" : 								{
									"maxclass" : "newobj",
									"text" : "+ 1",
									"id" : "obj-73",
									"fontname" : "Arial",
									"patching_rect" : [ 32.0, 191.0, 32.5, 20.0 ],
									"numinlets" : 2,
									"fontsize" : 12.0,
									"numoutlets" : 1,
									"outlettype" : [ "int" ]
								}

							}
, 							{
								"box" : 								{
									"maxclass" : "newobj",
									"text" : "tosymbol",
									"id" : "obj-68",
									"fontname" : "Arial",
									"patching_rect" : [ 32.0, 230.0, 59.0, 20.0 ],
									"numinlets" : 1,
									"fontsize" : 12.0,
									"numoutlets" : 1,
									"outlettype" : [ "" ]
								}

							}
, 							{
								"box" : 								{
									"maxclass" : "newobj",
									"text" : "s #1to.lemur",
									"id" : "obj-63",
									"fontname" : "Arial Bold",
									"patching_rect" : [ 32.0, 425.0, 83.0, 18.0 ],
									"numinlets" : 1,
									"fontsize" : 10.0,
									"numoutlets" : 0
								}

							}
, 							{
								"box" : 								{
									"maxclass" : "newobj",
									"text" : "sprintf set /spam/mute%d @label_on",
									"id" : "obj-64",
									"fontname" : "Verdana",
									"patching_rect" : [ 59.0, 322.0, 231.0, 17.0 ],
									"numinlets" : 1,
									"fontsize" : 9.0,
									"numoutlets" : 1,
									"outlettype" : [ "" ]
								}

							}
, 							{
								"box" : 								{
									"maxclass" : "newobj",
									"text" : "prepend",
									"id" : "obj-65",
									"fontname" : "Verdana",
									"patching_rect" : [ 32.0, 343.0, 48.0, 17.0 ],
									"numinlets" : 1,
									"fontsize" : 9.0,
									"numoutlets" : 1,
									"outlettype" : [ "" ]
								}

							}
, 							{
								"box" : 								{
									"maxclass" : "comment",
									"text" : "track number",
									"id" : "obj-60",
									"fontname" : "Arial",
									"patching_rect" : [ 61.0, 13.0, 89.0, 20.0 ],
									"numinlets" : 1,
									"fontsize" : 12.0,
									"numoutlets" : 0
								}

							}
, 							{
								"box" : 								{
									"maxclass" : "inlet",
									"id" : "obj-58",
									"patching_rect" : [ 32.0, 7.0, 25.0, 25.0 ],
									"numinlets" : 0,
									"numoutlets" : 1,
									"outlettype" : [ "" ],
									"comment" : ""
								}

							}
, 							{
								"box" : 								{
									"maxclass" : "newobj",
									"text" : "!= 1",
									"id" : "obj-53",
									"fontname" : "Arial",
									"patching_rect" : [ 308.0, 481.0, 32.5, 20.0 ],
									"numinlets" : 2,
									"fontsize" : 12.0,
									"numoutlets" : 1,
									"outlettype" : [ "int" ]
								}

							}
, 							{
								"box" : 								{
									"maxclass" : "newobj",
									"text" : "!= 1",
									"id" : "obj-50",
									"fontname" : "Arial",
									"patching_rect" : [ 316.0, 278.0, 32.5, 20.0 ],
									"numinlets" : 2,
									"fontsize" : 12.0,
									"numoutlets" : 1,
									"outlettype" : [ "int" ]
								}

							}
, 							{
								"box" : 								{
									"maxclass" : "newobj",
									"text" : "change",
									"id" : "obj-13",
									"fontname" : "Arial",
									"patching_rect" : [ 797.0, 245.0, 50.0, 20.0 ],
									"numinlets" : 1,
									"fontsize" : 12.0,
									"numoutlets" : 3,
									"outlettype" : [ "", "int", "int" ]
								}

							}
, 							{
								"box" : 								{
									"maxclass" : "toggle",
									"id" : "obj-15",
									"patching_rect" : [ 797.0, 305.0, 20.0, 20.0 ],
									"numinlets" : 1,
									"numoutlets" : 1,
									"outlettype" : [ "int" ]
								}

							}
, 							{
								"box" : 								{
									"maxclass" : "newobj",
									"text" : "r #1from.lemur",
									"id" : "obj-17",
									"fontname" : "Arial Bold",
									"patching_rect" : [ 790.0, 391.0, 94.0, 18.0 ],
									"numinlets" : 0,
									"fontsize" : 10.0,
									"numoutlets" : 1,
									"outlettype" : [ "" ]
								}

							}
, 							{
								"box" : 								{
									"maxclass" : "newobj",
									"text" : "sprintf set 1 /spam/arm%d/x",
									"id" : "obj-18",
									"fontname" : "Verdana",
									"patching_rect" : [ 807.0, 430.0, 194.0, 17.0 ],
									"numinlets" : 1,
									"fontsize" : 9.0,
									"numoutlets" : 1,
									"outlettype" : [ "" ]
								}

							}
, 							{
								"box" : 								{
									"maxclass" : "newobj",
									"text" : "OSC-route /volume/x",
									"id" : "obj-37",
									"fontname" : "Arial Bold",
									"patching_rect" : [ 790.0, 453.0, 109.0, 18.0 ],
									"numinlets" : 1,
									"fontsize" : 10.0,
									"numoutlets" : 2,
									"outlettype" : [ "", "" ]
								}

							}
, 							{
								"box" : 								{
									"maxclass" : "newobj",
									"text" : "s #1to.lemur",
									"id" : "obj-38",
									"fontname" : "Arial Bold",
									"patching_rect" : [ 797.0, 354.0, 83.0, 18.0 ],
									"numinlets" : 1,
									"fontsize" : 10.0,
									"numoutlets" : 0
								}

							}
, 							{
								"box" : 								{
									"maxclass" : "newobj",
									"text" : "sprintf set /spam/arm%d/x",
									"id" : "obj-39",
									"fontname" : "Verdana",
									"patching_rect" : [ 822.0, 311.0, 185.0, 17.0 ],
									"numinlets" : 1,
									"fontsize" : 9.0,
									"numoutlets" : 1,
									"outlettype" : [ "" ]
								}

							}
, 							{
								"box" : 								{
									"maxclass" : "newobj",
									"text" : "prepend",
									"id" : "obj-40",
									"fontname" : "Verdana",
									"patching_rect" : [ 797.0, 333.0, 48.0, 17.0 ],
									"numinlets" : 1,
									"fontsize" : 9.0,
									"numoutlets" : 1,
									"outlettype" : [ "" ]
								}

							}
, 							{
								"box" : 								{
									"maxclass" : "toggle",
									"id" : "obj-41",
									"patching_rect" : [ 790.0, 509.0, 20.0, 20.0 ],
									"numinlets" : 1,
									"numoutlets" : 1,
									"outlettype" : [ "int" ]
								}

							}
, 							{
								"box" : 								{
									"maxclass" : "message",
									"text" : "set arm $1",
									"id" : "obj-45",
									"fontname" : "Arial",
									"patching_rect" : [ 790.0, 532.0, 67.0, 18.0 ],
									"numinlets" : 2,
									"fontsize" : 12.0,
									"numoutlets" : 1,
									"outlettype" : [ "" ]
								}

							}
, 							{
								"box" : 								{
									"maxclass" : "newobj",
									"text" : "live.object",
									"id" : "obj-46",
									"fontname" : "Arial",
									"patching_rect" : [ 790.0, 555.0, 102.0, 20.0 ],
									"numinlets" : 2,
									"fontsize" : 12.0,
									"numoutlets" : 1,
									"outlettype" : [ "" ]
								}

							}
, 							{
								"box" : 								{
									"maxclass" : "newobj",
									"text" : "t b l l",
									"id" : "obj-47",
									"fontname" : "Arial",
									"patching_rect" : [ 797.0, 170.0, 95.0, 20.0 ],
									"numinlets" : 1,
									"fontsize" : 12.0,
									"numoutlets" : 3,
									"outlettype" : [ "bang", "", "" ]
								}

							}
, 							{
								"box" : 								{
									"maxclass" : "message",
									"text" : "property arm",
									"id" : "obj-48",
									"fontname" : "Arial",
									"patching_rect" : [ 797.0, 196.0, 79.0, 18.0 ],
									"numinlets" : 2,
									"fontsize" : 12.0,
									"numoutlets" : 1,
									"outlettype" : [ "" ]
								}

							}
, 							{
								"box" : 								{
									"maxclass" : "newobj",
									"text" : "live.observer",
									"id" : "obj-49",
									"fontname" : "Arial",
									"patching_rect" : [ 797.0, 222.0, 79.0, 20.0 ],
									"numinlets" : 2,
									"fontsize" : 12.0,
									"numoutlets" : 2,
									"outlettype" : [ "", "" ]
								}

							}
, 							{
								"box" : 								{
									"maxclass" : "newobj",
									"text" : "change",
									"id" : "obj-23",
									"fontname" : "Arial",
									"patching_rect" : [ 558.0, 245.0, 50.0, 20.0 ],
									"numinlets" : 1,
									"fontsize" : 12.0,
									"numoutlets" : 3,
									"outlettype" : [ "", "int", "int" ]
								}

							}
, 							{
								"box" : 								{
									"maxclass" : "toggle",
									"id" : "obj-24",
									"patching_rect" : [ 558.0, 305.0, 20.0, 20.0 ],
									"numinlets" : 1,
									"numoutlets" : 1,
									"outlettype" : [ "int" ]
								}

							}
, 							{
								"box" : 								{
									"maxclass" : "newobj",
									"text" : "r #1from.lemur",
									"id" : "obj-25",
									"fontname" : "Arial Bold",
									"patching_rect" : [ 551.0, 391.0, 94.0, 18.0 ],
									"numinlets" : 0,
									"fontsize" : 10.0,
									"numoutlets" : 1,
									"outlettype" : [ "" ]
								}

							}
, 							{
								"box" : 								{
									"maxclass" : "newobj",
									"text" : "sprintf set 1 /spam/solo%d/x",
									"id" : "obj-26",
									"fontname" : "Verdana",
									"patching_rect" : [ 568.0, 430.0, 194.0, 17.0 ],
									"numinlets" : 1,
									"fontsize" : 9.0,
									"numoutlets" : 1,
									"outlettype" : [ "" ]
								}

							}
, 							{
								"box" : 								{
									"maxclass" : "newobj",
									"text" : "OSC-route /volume/x",
									"id" : "obj-27",
									"fontname" : "Arial Bold",
									"patching_rect" : [ 551.0, 453.0, 109.0, 18.0 ],
									"numinlets" : 1,
									"fontsize" : 10.0,
									"numoutlets" : 2,
									"outlettype" : [ "", "" ]
								}

							}
, 							{
								"box" : 								{
									"maxclass" : "newobj",
									"text" : "s #1to.lemur",
									"id" : "obj-28",
									"fontname" : "Arial Bold",
									"patching_rect" : [ 558.0, 354.0, 83.0, 18.0 ],
									"numinlets" : 1,
									"fontsize" : 10.0,
									"numoutlets" : 0
								}

							}
, 							{
								"box" : 								{
									"maxclass" : "newobj",
									"text" : "sprintf set /spam/solo%d/x",
									"id" : "obj-29",
									"fontname" : "Verdana",
									"patching_rect" : [ 583.0, 311.0, 185.0, 17.0 ],
									"numinlets" : 1,
									"fontsize" : 9.0,
									"numoutlets" : 1,
									"outlettype" : [ "" ]
								}

							}
, 							{
								"box" : 								{
									"maxclass" : "newobj",
									"text" : "prepend",
									"id" : "obj-30",
									"fontname" : "Verdana",
									"patching_rect" : [ 558.0, 333.0, 48.0, 17.0 ],
									"numinlets" : 1,
									"fontsize" : 9.0,
									"numoutlets" : 1,
									"outlettype" : [ "" ]
								}

							}
, 							{
								"box" : 								{
									"maxclass" : "toggle",
									"id" : "obj-31",
									"patching_rect" : [ 551.0, 509.0, 20.0, 20.0 ],
									"numinlets" : 1,
									"numoutlets" : 1,
									"outlettype" : [ "int" ]
								}

							}
, 							{
								"box" : 								{
									"maxclass" : "message",
									"text" : "set solo $1",
									"id" : "obj-32",
									"fontname" : "Arial",
									"patching_rect" : [ 551.0, 532.0, 69.0, 18.0 ],
									"numinlets" : 2,
									"fontsize" : 12.0,
									"numoutlets" : 1,
									"outlettype" : [ "" ]
								}

							}
, 							{
								"box" : 								{
									"maxclass" : "newobj",
									"text" : "live.object",
									"id" : "obj-33",
									"fontname" : "Arial",
									"patching_rect" : [ 551.0, 555.0, 125.0, 20.0 ],
									"numinlets" : 2,
									"fontsize" : 12.0,
									"numoutlets" : 1,
									"outlettype" : [ "" ]
								}

							}
, 							{
								"box" : 								{
									"maxclass" : "newobj",
									"text" : "t b l l",
									"id" : "obj-34",
									"fontname" : "Arial",
									"patching_rect" : [ 558.0, 170.0, 115.0, 20.0 ],
									"numinlets" : 1,
									"fontsize" : 12.0,
									"numoutlets" : 3,
									"outlettype" : [ "bang", "", "" ]
								}

							}
, 							{
								"box" : 								{
									"maxclass" : "message",
									"text" : "property solo",
									"id" : "obj-35",
									"fontname" : "Arial",
									"patching_rect" : [ 558.0, 196.0, 80.0, 18.0 ],
									"numinlets" : 2,
									"fontsize" : 12.0,
									"numoutlets" : 1,
									"outlettype" : [ "" ]
								}

							}
, 							{
								"box" : 								{
									"maxclass" : "newobj",
									"text" : "live.observer",
									"id" : "obj-36",
									"fontname" : "Arial",
									"patching_rect" : [ 558.0, 222.0, 79.0, 20.0 ],
									"numinlets" : 2,
									"fontsize" : 12.0,
									"numoutlets" : 2,
									"outlettype" : [ "", "" ]
								}

							}
, 							{
								"box" : 								{
									"maxclass" : "toggle",
									"id" : "obj-20",
									"patching_rect" : [ 316.0, 306.0, 20.0, 20.0 ],
									"numinlets" : 1,
									"numoutlets" : 1,
									"outlettype" : [ "int" ]
								}

							}
, 							{
								"box" : 								{
									"maxclass" : "newobj",
									"text" : "r #1from.lemur",
									"id" : "obj-42",
									"fontname" : "Arial Bold",
									"patching_rect" : [ 308.0, 391.0, 94.0, 18.0 ],
									"numinlets" : 0,
									"fontsize" : 10.0,
									"numoutlets" : 1,
									"outlettype" : [ "" ]
								}

							}
, 							{
								"box" : 								{
									"maxclass" : "newobj",
									"text" : "sprintf set 1 /spam/mute%d/x",
									"id" : "obj-14",
									"fontname" : "Verdana",
									"patching_rect" : [ 325.0, 430.0, 199.0, 17.0 ],
									"numinlets" : 1,
									"fontsize" : 9.0,
									"numoutlets" : 1,
									"outlettype" : [ "" ]
								}

							}
, 							{
								"box" : 								{
									"maxclass" : "newobj",
									"text" : "OSC-route /volume/x",
									"id" : "obj-5",
									"fontname" : "Arial Bold",
									"patching_rect" : [ 308.0, 453.0, 109.0, 18.0 ],
									"numinlets" : 1,
									"fontsize" : 10.0,
									"numoutlets" : 2,
									"outlettype" : [ "", "" ]
								}

							}
, 							{
								"box" : 								{
									"maxclass" : "newobj",
									"text" : "s #1to.lemur",
									"id" : "obj-6",
									"fontname" : "Arial Bold",
									"patching_rect" : [ 316.0, 355.0, 83.0, 18.0 ],
									"numinlets" : 1,
									"fontsize" : 10.0,
									"numoutlets" : 0
								}

							}
, 							{
								"box" : 								{
									"maxclass" : "newobj",
									"text" : "sprintf set /spam/mute%d/x",
									"id" : "obj-8",
									"fontname" : "Verdana",
									"patching_rect" : [ 340.0, 312.0, 190.0, 17.0 ],
									"numinlets" : 1,
									"fontsize" : 9.0,
									"numoutlets" : 1,
									"outlettype" : [ "" ]
								}

							}
, 							{
								"box" : 								{
									"maxclass" : "newobj",
									"text" : "prepend",
									"id" : "obj-10",
									"fontname" : "Verdana",
									"patching_rect" : [ 316.0, 334.0, 48.0, 17.0 ],
									"numinlets" : 1,
									"fontsize" : 9.0,
									"numoutlets" : 1,
									"outlettype" : [ "" ]
								}

							}
, 							{
								"box" : 								{
									"maxclass" : "newobj",
									"text" : "t l",
									"id" : "obj-2",
									"fontname" : "Arial",
									"patching_rect" : [ 316.0, 124.0, 20.0, 20.0 ],
									"numinlets" : 1,
									"fontsize" : 12.0,
									"numoutlets" : 1,
									"outlettype" : [ "" ]
								}

							}
, 							{
								"box" : 								{
									"maxclass" : "comment",
									"text" : "disable",
									"textcolor" : [ 0.929412, 0.360784, 0.866667, 1.0 ],
									"id" : "obj-3",
									"fontname" : "Arial",
									"patching_rect" : [ 237.0, 91.0, 49.0, 20.0 ],
									"numinlets" : 1,
									"fontsize" : 12.0,
									"frgb" : [ 0.929412, 0.360784, 0.866667, 1.0 ],
									"numoutlets" : 0
								}

							}
, 							{
								"box" : 								{
									"maxclass" : "newobj",
									"text" : "sel -1",
									"id" : "obj-1",
									"fontname" : "Arial",
									"patching_rect" : [ 287.0, 66.0, 65.0, 20.0 ],
									"numinlets" : 2,
									"fontsize" : 12.0,
									"numoutlets" : 2,
									"outlettype" : [ "bang", "" ]
								}

							}
, 							{
								"box" : 								{
									"maxclass" : "message",
									"text" : "id 0",
									"id" : "obj-7",
									"fontname" : "Verdana",
									"patching_rect" : [ 287.0, 93.0, 32.5, 15.0 ],
									"bgcolor" : [ 0.929412, 0.360784, 0.866667, 1.0 ],
									"numinlets" : 2,
									"fontsize" : 9.0,
									"numoutlets" : 1,
									"outlettype" : [ "" ]
								}

							}
, 							{
								"box" : 								{
									"maxclass" : "toggle",
									"id" : "obj-21",
									"patching_rect" : [ 308.0, 509.0, 20.0, 20.0 ],
									"numinlets" : 1,
									"numoutlets" : 1,
									"outlettype" : [ "int" ]
								}

							}
, 							{
								"box" : 								{
									"maxclass" : "message",
									"text" : "set mute $1",
									"id" : "obj-19",
									"fontname" : "Arial",
									"patching_rect" : [ 308.0, 532.0, 73.0, 18.0 ],
									"numinlets" : 2,
									"fontsize" : 12.0,
									"numoutlets" : 1,
									"outlettype" : [ "" ]
								}

							}
, 							{
								"box" : 								{
									"maxclass" : "newobj",
									"text" : "live.object",
									"id" : "obj-16",
									"fontname" : "Arial",
									"patching_rect" : [ 308.0, 555.0, 120.0, 20.0 ],
									"numinlets" : 2,
									"fontsize" : 12.0,
									"numoutlets" : 1,
									"outlettype" : [ "" ]
								}

							}
, 							{
								"box" : 								{
									"maxclass" : "newobj",
									"text" : "t b l l",
									"id" : "obj-12",
									"fontname" : "Arial",
									"patching_rect" : [ 316.0, 170.0, 110.0, 20.0 ],
									"numinlets" : 1,
									"fontsize" : 12.0,
									"numoutlets" : 3,
									"outlettype" : [ "bang", "", "" ]
								}

							}
, 							{
								"box" : 								{
									"maxclass" : "message",
									"text" : "property mute",
									"id" : "obj-11",
									"fontname" : "Arial",
									"patching_rect" : [ 316.0, 196.0, 85.0, 18.0 ],
									"numinlets" : 2,
									"fontsize" : 12.0,
									"numoutlets" : 1,
									"outlettype" : [ "" ]
								}

							}
, 							{
								"box" : 								{
									"maxclass" : "newobj",
									"text" : "live.observer",
									"id" : "obj-9",
									"fontname" : "Arial",
									"patching_rect" : [ 316.0, 222.0, 79.0, 20.0 ],
									"numinlets" : 2,
									"fontsize" : 12.0,
									"numoutlets" : 2,
									"outlettype" : [ "", "" ]
								}

							}
 ],
						"lines" : [ 							{
								"patchline" : 								{
									"source" : [ "obj-2", 0 ],
									"destination" : [ "obj-47", 0 ],
									"hidden" : 0,
									"midpoints" : [ 325.5, 153.5, 806.5, 153.5 ]
								}

							}
, 							{
								"patchline" : 								{
									"source" : [ "obj-2", 0 ],
									"destination" : [ "obj-34", 0 ],
									"hidden" : 0,
									"midpoints" : [ 325.5, 156.5, 567.5, 156.5 ]
								}

							}
, 							{
								"patchline" : 								{
									"source" : [ "obj-58", 0 ],
									"destination" : [ "obj-1", 0 ],
									"hidden" : 0,
									"midpoints" : [  ]
								}

							}
, 							{
								"patchline" : 								{
									"source" : [ "obj-58", 0 ],
									"destination" : [ "obj-73", 0 ],
									"hidden" : 0,
									"midpoints" : [  ]
								}

							}
, 							{
								"patchline" : 								{
									"source" : [ "obj-43", 0 ],
									"destination" : [ "obj-2", 0 ],
									"hidden" : 0,
									"midpoints" : [  ]
								}

							}
, 							{
								"patchline" : 								{
									"source" : [ "obj-1", 1 ],
									"destination" : [ "obj-43", 0 ],
									"hidden" : 0,
									"midpoints" : [  ]
								}

							}
, 							{
								"patchline" : 								{
									"source" : [ "obj-51", 0 ],
									"destination" : [ "obj-44", 0 ],
									"hidden" : 0,
									"midpoints" : [  ]
								}

							}
, 							{
								"patchline" : 								{
									"source" : [ "obj-55", 0 ],
									"destination" : [ "obj-50", 0 ],
									"hidden" : 0,
									"midpoints" : [  ]
								}

							}
, 							{
								"patchline" : 								{
									"source" : [ "obj-9", 0 ],
									"destination" : [ "obj-55", 0 ],
									"hidden" : 0,
									"midpoints" : [  ]
								}

							}
, 							{
								"patchline" : 								{
									"source" : [ "obj-44", 0 ],
									"destination" : [ "obj-8", 0 ],
									"hidden" : 0,
									"midpoints" : [ 1020.5, 295.0, 349.5, 295.0 ]
								}

							}
, 							{
								"patchline" : 								{
									"source" : [ "obj-44", 0 ],
									"destination" : [ "obj-39", 0 ],
									"hidden" : 0,
									"midpoints" : [ 1020.5, 304.5, 831.5, 304.5 ]
								}

							}
, 							{
								"patchline" : 								{
									"source" : [ "obj-44", 0 ],
									"destination" : [ "obj-29", 0 ],
									"hidden" : 0,
									"midpoints" : [ 1020.5, 295.5, 592.5, 295.5 ]
								}

							}
, 							{
								"patchline" : 								{
									"source" : [ "obj-44", 0 ],
									"destination" : [ "obj-74", 0 ],
									"hidden" : 0,
									"midpoints" : [ 1020.5, 353.0, 75.5, 353.0 ]
								}

							}
, 							{
								"patchline" : 								{
									"source" : [ "obj-44", 0 ],
									"destination" : [ "obj-26", 0 ],
									"hidden" : 0,
									"midpoints" : [ 1020.5, 422.5, 577.5, 422.5 ]
								}

							}
, 							{
								"patchline" : 								{
									"source" : [ "obj-44", 0 ],
									"destination" : [ "obj-18", 0 ],
									"hidden" : 0,
									"midpoints" : [ 1020.5, 424.5, 816.5, 424.5 ]
								}

							}
, 							{
								"patchline" : 								{
									"source" : [ "obj-44", 0 ],
									"destination" : [ "obj-64", 0 ],
									"hidden" : 0,
									"midpoints" : [ 1020.5, 269.0, 68.5, 269.0 ]
								}

							}
, 							{
								"patchline" : 								{
									"source" : [ "obj-61", 0 ],
									"destination" : [ "obj-51", 0 ],
									"hidden" : 0,
									"midpoints" : [  ]
								}

							}
, 							{
								"patchline" : 								{
									"source" : [ "obj-1", 0 ],
									"destination" : [ "obj-7", 0 ],
									"hidden" : 0,
									"midpoints" : [  ]
								}

							}
, 							{
								"patchline" : 								{
									"source" : [ "obj-10", 0 ],
									"destination" : [ "obj-6", 0 ],
									"hidden" : 0,
									"midpoints" : [  ]
								}

							}
, 							{
								"patchline" : 								{
									"source" : [ "obj-11", 0 ],
									"destination" : [ "obj-9", 0 ],
									"hidden" : 0,
									"midpoints" : [  ]
								}

							}
, 							{
								"patchline" : 								{
									"source" : [ "obj-12", 0 ],
									"destination" : [ "obj-11", 0 ],
									"hidden" : 0,
									"midpoints" : [  ]
								}

							}
, 							{
								"patchline" : 								{
									"source" : [ "obj-12", 2 ],
									"destination" : [ "obj-16", 1 ],
									"hidden" : 0,
									"midpoints" : [  ]
								}

							}
, 							{
								"patchline" : 								{
									"source" : [ "obj-12", 1 ],
									"destination" : [ "obj-9", 1 ],
									"hidden" : 0,
									"midpoints" : [  ]
								}

							}
, 							{
								"patchline" : 								{
									"source" : [ "obj-13", 0 ],
									"destination" : [ "obj-15", 0 ],
									"hidden" : 0,
									"midpoints" : [  ]
								}

							}
, 							{
								"patchline" : 								{
									"source" : [ "obj-14", 0 ],
									"destination" : [ "obj-5", 0 ],
									"hidden" : 0,
									"midpoints" : [  ]
								}

							}
, 							{
								"patchline" : 								{
									"source" : [ "obj-15", 0 ],
									"destination" : [ "obj-40", 0 ],
									"hidden" : 0,
									"midpoints" : [  ]
								}

							}
, 							{
								"patchline" : 								{
									"source" : [ "obj-17", 0 ],
									"destination" : [ "obj-37", 0 ],
									"hidden" : 0,
									"midpoints" : [  ]
								}

							}
, 							{
								"patchline" : 								{
									"source" : [ "obj-18", 0 ],
									"destination" : [ "obj-37", 0 ],
									"hidden" : 0,
									"midpoints" : [  ]
								}

							}
, 							{
								"patchline" : 								{
									"source" : [ "obj-19", 0 ],
									"destination" : [ "obj-16", 0 ],
									"hidden" : 0,
									"midpoints" : [  ]
								}

							}
, 							{
								"patchline" : 								{
									"source" : [ "obj-2", 0 ],
									"destination" : [ "obj-12", 0 ],
									"hidden" : 0,
									"midpoints" : [  ]
								}

							}
, 							{
								"patchline" : 								{
									"source" : [ "obj-20", 0 ],
									"destination" : [ "obj-10", 0 ],
									"hidden" : 0,
									"midpoints" : [  ]
								}

							}
, 							{
								"patchline" : 								{
									"source" : [ "obj-21", 0 ],
									"destination" : [ "obj-19", 0 ],
									"hidden" : 0,
									"midpoints" : [  ]
								}

							}
, 							{
								"patchline" : 								{
									"source" : [ "obj-23", 0 ],
									"destination" : [ "obj-24", 0 ],
									"hidden" : 0,
									"midpoints" : [  ]
								}

							}
, 							{
								"patchline" : 								{
									"source" : [ "obj-24", 0 ],
									"destination" : [ "obj-30", 0 ],
									"hidden" : 0,
									"midpoints" : [  ]
								}

							}
, 							{
								"patchline" : 								{
									"source" : [ "obj-25", 0 ],
									"destination" : [ "obj-27", 0 ],
									"hidden" : 0,
									"midpoints" : [  ]
								}

							}
, 							{
								"patchline" : 								{
									"source" : [ "obj-26", 0 ],
									"destination" : [ "obj-27", 0 ],
									"hidden" : 0,
									"midpoints" : [  ]
								}

							}
, 							{
								"patchline" : 								{
									"source" : [ "obj-27", 0 ],
									"destination" : [ "obj-31", 0 ],
									"hidden" : 0,
									"midpoints" : [  ]
								}

							}
, 							{
								"patchline" : 								{
									"source" : [ "obj-29", 0 ],
									"destination" : [ "obj-30", 0 ],
									"hidden" : 0,
									"midpoints" : [  ]
								}

							}
, 							{
								"patchline" : 								{
									"source" : [ "obj-30", 0 ],
									"destination" : [ "obj-28", 0 ],
									"hidden" : 0,
									"midpoints" : [  ]
								}

							}
, 							{
								"patchline" : 								{
									"source" : [ "obj-31", 0 ],
									"destination" : [ "obj-32", 0 ],
									"hidden" : 0,
									"midpoints" : [  ]
								}

							}
, 							{
								"patchline" : 								{
									"source" : [ "obj-32", 0 ],
									"destination" : [ "obj-33", 0 ],
									"hidden" : 0,
									"midpoints" : [  ]
								}

							}
, 							{
								"patchline" : 								{
									"source" : [ "obj-34", 2 ],
									"destination" : [ "obj-33", 1 ],
									"hidden" : 0,
									"midpoints" : [  ]
								}

							}
, 							{
								"patchline" : 								{
									"source" : [ "obj-34", 0 ],
									"destination" : [ "obj-35", 0 ],
									"hidden" : 0,
									"midpoints" : [  ]
								}

							}
, 							{
								"patchline" : 								{
									"source" : [ "obj-34", 1 ],
									"destination" : [ "obj-36", 1 ],
									"hidden" : 0,
									"midpoints" : [  ]
								}

							}
, 							{
								"patchline" : 								{
									"source" : [ "obj-35", 0 ],
									"destination" : [ "obj-36", 0 ],
									"hidden" : 0,
									"midpoints" : [  ]
								}

							}
, 							{
								"patchline" : 								{
									"source" : [ "obj-36", 0 ],
									"destination" : [ "obj-23", 0 ],
									"hidden" : 0,
									"midpoints" : [  ]
								}

							}
, 							{
								"patchline" : 								{
									"source" : [ "obj-37", 0 ],
									"destination" : [ "obj-41", 0 ],
									"hidden" : 0,
									"midpoints" : [  ]
								}

							}
, 							{
								"patchline" : 								{
									"source" : [ "obj-39", 0 ],
									"destination" : [ "obj-40", 0 ],
									"hidden" : 0,
									"midpoints" : [  ]
								}

							}
, 							{
								"patchline" : 								{
									"source" : [ "obj-40", 0 ],
									"destination" : [ "obj-38", 0 ],
									"hidden" : 0,
									"midpoints" : [  ]
								}

							}
, 							{
								"patchline" : 								{
									"source" : [ "obj-41", 0 ],
									"destination" : [ "obj-45", 0 ],
									"hidden" : 0,
									"midpoints" : [  ]
								}

							}
, 							{
								"patchline" : 								{
									"source" : [ "obj-42", 0 ],
									"destination" : [ "obj-5", 0 ],
									"hidden" : 0,
									"midpoints" : [  ]
								}

							}
, 							{
								"patchline" : 								{
									"source" : [ "obj-45", 0 ],
									"destination" : [ "obj-46", 0 ],
									"hidden" : 0,
									"midpoints" : [  ]
								}

							}
, 							{
								"patchline" : 								{
									"source" : [ "obj-47", 2 ],
									"destination" : [ "obj-46", 1 ],
									"hidden" : 0,
									"midpoints" : [  ]
								}

							}
, 							{
								"patchline" : 								{
									"source" : [ "obj-47", 0 ],
									"destination" : [ "obj-48", 0 ],
									"hidden" : 0,
									"midpoints" : [  ]
								}

							}
, 							{
								"patchline" : 								{
									"source" : [ "obj-47", 1 ],
									"destination" : [ "obj-49", 1 ],
									"hidden" : 0,
									"midpoints" : [  ]
								}

							}
, 							{
								"patchline" : 								{
									"source" : [ "obj-48", 0 ],
									"destination" : [ "obj-49", 0 ],
									"hidden" : 0,
									"midpoints" : [  ]
								}

							}
, 							{
								"patchline" : 								{
									"source" : [ "obj-49", 0 ],
									"destination" : [ "obj-13", 0 ],
									"hidden" : 0,
									"midpoints" : [  ]
								}

							}
, 							{
								"patchline" : 								{
									"source" : [ "obj-5", 0 ],
									"destination" : [ "obj-53", 0 ],
									"hidden" : 0,
									"midpoints" : [  ]
								}

							}
, 							{
								"patchline" : 								{
									"source" : [ "obj-50", 0 ],
									"destination" : [ "obj-20", 0 ],
									"hidden" : 0,
									"midpoints" : [  ]
								}

							}
, 							{
								"patchline" : 								{
									"source" : [ "obj-53", 0 ],
									"destination" : [ "obj-21", 0 ],
									"hidden" : 0,
									"midpoints" : [  ]
								}

							}
, 							{
								"patchline" : 								{
									"source" : [ "obj-59", 0 ],
									"destination" : [ "obj-77", 0 ],
									"hidden" : 0,
									"midpoints" : [  ]
								}

							}
, 							{
								"patchline" : 								{
									"source" : [ "obj-64", 0 ],
									"destination" : [ "obj-65", 0 ],
									"hidden" : 0,
									"midpoints" : [  ]
								}

							}
, 							{
								"patchline" : 								{
									"source" : [ "obj-65", 0 ],
									"destination" : [ "obj-63", 0 ],
									"hidden" : 0,
									"midpoints" : [  ]
								}

							}
, 							{
								"patchline" : 								{
									"source" : [ "obj-68", 0 ],
									"destination" : [ "obj-65", 0 ],
									"hidden" : 0,
									"midpoints" : [  ]
								}

							}
, 							{
								"patchline" : 								{
									"source" : [ "obj-68", 0 ],
									"destination" : [ "obj-75", 0 ],
									"hidden" : 0,
									"midpoints" : [  ]
								}

							}
, 							{
								"patchline" : 								{
									"source" : [ "obj-7", 0 ],
									"destination" : [ "obj-2", 0 ],
									"hidden" : 0,
									"midpoints" : [  ]
								}

							}
, 							{
								"patchline" : 								{
									"source" : [ "obj-7", 0 ],
									"destination" : [ "obj-59", 0 ],
									"hidden" : 0,
									"midpoints" : [  ]
								}

							}
, 							{
								"patchline" : 								{
									"source" : [ "obj-73", 0 ],
									"destination" : [ "obj-68", 0 ],
									"hidden" : 0,
									"midpoints" : [  ]
								}

							}
, 							{
								"patchline" : 								{
									"source" : [ "obj-74", 0 ],
									"destination" : [ "obj-75", 0 ],
									"hidden" : 0,
									"midpoints" : [  ]
								}

							}
, 							{
								"patchline" : 								{
									"source" : [ "obj-75", 0 ],
									"destination" : [ "obj-63", 0 ],
									"hidden" : 0,
									"midpoints" : [  ]
								}

							}
, 							{
								"patchline" : 								{
									"source" : [ "obj-77", 0 ],
									"destination" : [ "obj-68", 0 ],
									"hidden" : 0,
									"midpoints" : [  ]
								}

							}
, 							{
								"patchline" : 								{
									"source" : [ "obj-8", 0 ],
									"destination" : [ "obj-10", 0 ],
									"hidden" : 0,
									"midpoints" : [  ]
								}

							}
, 							{
								"patchline" : 								{
									"source" : [ "obj-44", 0 ],
									"destination" : [ "obj-14", 0 ],
									"hidden" : 0,
									"midpoints" : [ 1020.5, 420.0, 334.5, 420.0 ]
								}

							}
 ]
					}
,
					"saved_object_attributes" : 					{
						"fontname" : "Arial",
						"default_fontface" : 0,
						"globalpatchername" : "",
						"default_fontname" : "Arial",
						"fontface" : 0,
						"fontsize" : 12.0,
						"default_fontsize" : 12.0
					}

				}

			}
, 			{
				"box" : 				{
					"maxclass" : "newobj",
					"text" : "p pan",
					"id" : "obj-7",
					"fontname" : "Arial",
					"patching_rect" : [ 90.0, 441.0, 41.0, 20.0 ],
					"numinlets" : 1,
					"fontsize" : 12.0,
					"numoutlets" : 0,
					"patcher" : 					{
						"fileversion" : 1,
						"rect" : [ 229.0, 140.0, 583.0, 406.0 ],
						"bglocked" : 0,
						"defrect" : [ 229.0, 140.0, 583.0, 406.0 ],
						"openrect" : [ 0.0, 0.0, 0.0, 0.0 ],
						"openinpresentation" : 0,
						"default_fontsize" : 12.0,
						"default_fontface" : 0,
						"default_fontname" : "Arial",
						"gridonopen" : 0,
						"gridsize" : [ 15.0, 15.0 ],
						"gridsnaponopen" : 0,
						"toolbarvisible" : 1,
						"boxanimatetime" : 200,
						"imprint" : 0,
						"enablehscroll" : 1,
						"enablevscroll" : 1,
						"devicewidth" : 0.0,
						"boxes" : [ 							{
								"box" : 								{
									"maxclass" : "newobj",
									"text" : "p getCachedPanId",
									"id" : "obj-45",
									"fontname" : "Arial",
									"patching_rect" : [ 255.0, 180.0, 110.0, 20.0 ],
									"numinlets" : 1,
									"fontsize" : 12.0,
									"numoutlets" : 1,
									"outlettype" : [ "" ],
									"patcher" : 									{
										"fileversion" : 1,
										"rect" : [ 422.0, 297.0, 470.0, 348.0 ],
										"bglocked" : 0,
										"defrect" : [ 422.0, 297.0, 470.0, 348.0 ],
										"openrect" : [ 0.0, 0.0, 0.0, 0.0 ],
										"openinpresentation" : 0,
										"default_fontsize" : 12.0,
										"default_fontface" : 0,
										"default_fontname" : "Arial",
										"gridonopen" : 0,
										"gridsize" : [ 15.0, 15.0 ],
										"gridsnaponopen" : 0,
										"toolbarvisible" : 1,
										"boxanimatetime" : 200,
										"imprint" : 0,
										"enablehscroll" : 1,
										"enablevscroll" : 1,
										"devicewidth" : 0.0,
										"boxes" : [ 											{
												"box" : 												{
													"maxclass" : "message",
													"text" : "id $1",
													"id" : "obj-3",
													"fontname" : "Arial",
													"patching_rect" : [ 50.0, 258.0, 37.0, 18.0 ],
													"numinlets" : 2,
													"fontsize" : 12.0,
													"numoutlets" : 1,
													"outlettype" : [ "" ]
												}

											}
, 											{
												"box" : 												{
													"maxclass" : "newobj",
													"text" : "v ---panIds",
													"id" : "obj-6",
													"fontname" : "Arial",
													"patching_rect" : [ 167.0, 126.0, 68.0, 20.0 ],
													"numinlets" : 1,
													"fontsize" : 12.0,
													"numoutlets" : 1,
													"outlettype" : [ "" ]
												}

											}
, 											{
												"box" : 												{
													"maxclass" : "newobj",
													"text" : "i",
													"id" : "obj-21",
													"fontname" : "Arial",
													"patching_rect" : [ 50.0, 216.0, 33.0, 20.0 ],
													"numinlets" : 2,
													"fontsize" : 12.0,
													"numoutlets" : 1,
													"outlettype" : [ "int" ]
												}

											}
, 											{
												"box" : 												{
													"maxclass" : "newobj",
													"text" : "t b b i -1",
													"id" : "obj-20",
													"fontname" : "Arial",
													"patching_rect" : [ 50.0, 100.0, 369.0, 20.0 ],
													"numinlets" : 1,
													"fontsize" : 12.0,
													"numoutlets" : 4,
													"outlettype" : [ "bang", "bang", "int", "int" ]
												}

											}
, 											{
												"box" : 												{
													"maxclass" : "newobj",
													"text" : "zl mth 0",
													"id" : "obj-1",
													"fontname" : "Arial",
													"patching_rect" : [ 167.0, 179.0, 53.0, 20.0 ],
													"numinlets" : 2,
													"fontsize" : 12.0,
													"numoutlets" : 2,
													"outlettype" : [ "", "" ]
												}

											}
, 											{
												"box" : 												{
													"maxclass" : "inlet",
													"id" : "obj-15",
													"patching_rect" : [ 50.0, 40.0, 25.0, 25.0 ],
													"numinlets" : 0,
													"numoutlets" : 1,
													"outlettype" : [ "" ],
													"comment" : ""
												}

											}
, 											{
												"box" : 												{
													"maxclass" : "outlet",
													"id" : "obj-16",
													"patching_rect" : [ 50.0, 296.0, 25.0, 25.0 ],
													"numinlets" : 1,
													"numoutlets" : 0,
													"comment" : ""
												}

											}
 ],
										"lines" : [ 											{
												"patchline" : 												{
													"source" : [ "obj-20", 1 ],
													"destination" : [ "obj-6", 0 ],
													"hidden" : 0,
													"midpoints" : [  ]
												}

											}
, 											{
												"patchline" : 												{
													"source" : [ "obj-6", 0 ],
													"destination" : [ "obj-1", 0 ],
													"hidden" : 0,
													"midpoints" : [  ]
												}

											}
, 											{
												"patchline" : 												{
													"source" : [ "obj-15", 0 ],
													"destination" : [ "obj-20", 0 ],
													"hidden" : 0,
													"midpoints" : [  ]
												}

											}
, 											{
												"patchline" : 												{
													"source" : [ "obj-1", 0 ],
													"destination" : [ "obj-21", 0 ],
													"hidden" : 0,
													"midpoints" : [ 176.5, 207.0, 59.5, 207.0 ]
												}

											}
, 											{
												"patchline" : 												{
													"source" : [ "obj-20", 2 ],
													"destination" : [ "obj-1", 1 ],
													"hidden" : 0,
													"midpoints" : [ 292.833344, 149.0, 210.5, 149.0 ]
												}

											}
, 											{
												"patchline" : 												{
													"source" : [ "obj-20", 3 ],
													"destination" : [ "obj-21", 1 ],
													"hidden" : 0,
													"midpoints" : [ 409.5, 209.5, 73.5, 209.5 ]
												}

											}
, 											{
												"patchline" : 												{
													"source" : [ "obj-20", 0 ],
													"destination" : [ "obj-21", 0 ],
													"hidden" : 0,
													"midpoints" : [  ]
												}

											}
, 											{
												"patchline" : 												{
													"source" : [ "obj-21", 0 ],
													"destination" : [ "obj-3", 0 ],
													"hidden" : 0,
													"midpoints" : [  ]
												}

											}
, 											{
												"patchline" : 												{
													"source" : [ "obj-3", 0 ],
													"destination" : [ "obj-16", 0 ],
													"hidden" : 0,
													"midpoints" : [  ]
												}

											}
 ]
									}
,
									"saved_object_attributes" : 									{
										"fontname" : "Arial",
										"default_fontface" : 0,
										"globalpatchername" : "",
										"default_fontname" : "Arial",
										"fontface" : 0,
										"fontsize" : 12.0,
										"default_fontsize" : 12.0
									}

								}

							}
, 							{
								"box" : 								{
									"maxclass" : "newobj",
									"text" : "- 1",
									"id" : "obj-12",
									"fontname" : "Arial",
									"patching_rect" : [ 382.0, 98.0, 32.5, 20.0 ],
									"numinlets" : 2,
									"fontsize" : 12.0,
									"numoutlets" : 1,
									"outlettype" : [ "int" ]
								}

							}
, 							{
								"box" : 								{
									"maxclass" : "newobj",
									"text" : "thispoly~",
									"id" : "obj-10",
									"fontname" : "Arial",
									"patching_rect" : [ 382.0, 73.0, 58.0, 20.0 ],
									"numinlets" : 1,
									"fontsize" : 12.0,
									"numoutlets" : 2,
									"outlettype" : [ "int", "int" ]
								}

							}
, 							{
								"box" : 								{
									"maxclass" : "newobj",
									"text" : "loadbang",
									"id" : "obj-27",
									"fontname" : "Arial",
									"patching_rect" : [ 382.0, 49.0, 60.0, 20.0 ],
									"numinlets" : 1,
									"fontsize" : 12.0,
									"numoutlets" : 1,
									"outlettype" : [ "bang" ]
								}

							}
, 							{
								"box" : 								{
									"maxclass" : "comment",
									"text" : "fader # (Lemur)",
									"id" : "obj-46",
									"fontname" : "Arial",
									"patching_rect" : [ 418.0, 100.0, 115.0, 20.0 ],
									"numinlets" : 1,
									"fontsize" : 12.0,
									"numoutlets" : 0
								}

							}
, 							{
								"box" : 								{
									"maxclass" : "comment",
									"text" : "disable",
									"textcolor" : [ 0.929412, 0.360784, 0.866667, 1.0 ],
									"id" : "obj-3",
									"fontname" : "Arial",
									"patching_rect" : [ 160.0, 100.0, 49.0, 20.0 ],
									"numinlets" : 1,
									"fontsize" : 12.0,
									"frgb" : [ 0.929412, 0.360784, 0.866667, 1.0 ],
									"numoutlets" : 0
								}

							}
, 							{
								"box" : 								{
									"maxclass" : "newobj",
									"text" : "sel -1",
									"id" : "obj-1",
									"fontname" : "Arial",
									"patching_rect" : [ 209.0, 66.0, 65.0, 20.0 ],
									"numinlets" : 2,
									"fontsize" : 12.0,
									"numoutlets" : 2,
									"outlettype" : [ "bang", "" ]
								}

							}
, 							{
								"box" : 								{
									"maxclass" : "newobj",
									"text" : "r #1from.lemur",
									"id" : "obj-42",
									"fontname" : "Arial Bold",
									"patching_rect" : [ 24.0, 136.0, 94.0, 18.0 ],
									"numinlets" : 0,
									"fontsize" : 10.0,
									"numoutlets" : 1,
									"outlettype" : [ "" ]
								}

							}
, 							{
								"box" : 								{
									"maxclass" : "inlet",
									"id" : "obj-38",
									"patching_rect" : [ 209.0, 37.0, 25.0, 25.0 ],
									"numinlets" : 0,
									"numoutlets" : 1,
									"outlettype" : [ "" ],
									"comment" : ""
								}

							}
, 							{
								"box" : 								{
									"maxclass" : "newobj",
									"text" : "t b l",
									"id" : "obj-41",
									"fontname" : "Verdana",
									"patching_rect" : [ 255.0, 210.0, 90.5, 17.0 ],
									"numinlets" : 1,
									"fontsize" : 9.0,
									"numoutlets" : 2,
									"outlettype" : [ "bang", "" ]
								}

							}
, 							{
								"box" : 								{
									"maxclass" : "newobj",
									"text" : "sprintf set 1 /spam/pan%d/x",
									"id" : "obj-14",
									"fontname" : "Verdana",
									"patching_rect" : [ 41.0, 172.0, 142.0, 17.0 ],
									"numinlets" : 1,
									"fontsize" : 9.0,
									"numoutlets" : 1,
									"outlettype" : [ "" ]
								}

							}
, 							{
								"box" : 								{
									"maxclass" : "newobj",
									"text" : "OSC-route /volume/x",
									"id" : "obj-4",
									"fontname" : "Arial Bold",
									"patching_rect" : [ 24.0, 204.0, 109.0, 18.0 ],
									"numinlets" : 1,
									"fontsize" : 10.0,
									"numoutlets" : 2,
									"outlettype" : [ "", "" ]
								}

							}
, 							{
								"box" : 								{
									"maxclass" : "newobj",
									"text" : "s #1to.lemur",
									"id" : "obj-15",
									"fontname" : "Arial Bold",
									"patching_rect" : [ 255.0, 351.0, 83.0, 18.0 ],
									"numinlets" : 1,
									"fontsize" : 10.0,
									"numoutlets" : 0
								}

							}
, 							{
								"box" : 								{
									"maxclass" : "newobj",
									"text" : "sprintf set /spam/pan%d/x",
									"id" : "obj-9",
									"fontname" : "Verdana",
									"patching_rect" : [ 382.0, 270.0, 133.0, 17.0 ],
									"numinlets" : 1,
									"fontsize" : 9.0,
									"numoutlets" : 1,
									"outlettype" : [ "" ]
								}

							}
, 							{
								"box" : 								{
									"maxclass" : "newobj",
									"text" : "prepend",
									"id" : "obj-6",
									"fontname" : "Verdana",
									"patching_rect" : [ 255.0, 330.0, 48.0, 17.0 ],
									"numinlets" : 1,
									"fontsize" : 9.0,
									"numoutlets" : 1,
									"outlettype" : [ "" ]
								}

							}
, 							{
								"box" : 								{
									"maxclass" : "message",
									"text" : "id 0",
									"id" : "obj-7",
									"fontname" : "Verdana",
									"patching_rect" : [ 209.0, 101.0, 32.5, 15.0 ],
									"bgcolor" : [ 0.929412, 0.360784, 0.866667, 1.0 ],
									"numinlets" : 2,
									"fontsize" : 9.0,
									"numoutlets" : 1,
									"outlettype" : [ "" ]
								}

							}
, 							{
								"box" : 								{
									"maxclass" : "message",
									"text" : "property value",
									"id" : "obj-20",
									"fontname" : "Arial Bold",
									"patching_rect" : [ 255.0, 232.0, 79.0, 16.0 ],
									"numinlets" : 2,
									"fontsize" : 10.0,
									"numoutlets" : 1,
									"outlettype" : [ "" ]
								}

							}
, 							{
								"box" : 								{
									"maxclass" : "newobj",
									"text" : "live.observer",
									"id" : "obj-18",
									"fontname" : "Arial Bold",
									"patching_rect" : [ 255.0, 270.0, 91.0, 18.0 ],
									"numinlets" : 2,
									"fontsize" : 10.0,
									"numoutlets" : 2,
									"outlettype" : [ "", "" ]
								}

							}
, 							{
								"box" : 								{
									"maxclass" : "message",
									"text" : "set value $1",
									"id" : "obj-8",
									"fontname" : "Arial Bold",
									"patching_rect" : [ 24.0, 229.0, 67.0, 16.0 ],
									"numinlets" : 2,
									"fontsize" : 10.0,
									"numoutlets" : 1,
									"outlettype" : [ "" ]
								}

							}
, 							{
								"box" : 								{
									"maxclass" : "newobj",
									"text" : "live.object",
									"id" : "obj-5",
									"fontname" : "Arial Bold",
									"patching_rect" : [ 24.0, 254.0, 82.0, 18.0 ],
									"numinlets" : 2,
									"fontsize" : 10.0,
									"numoutlets" : 1,
									"outlettype" : [ "" ]
								}

							}
 ],
						"lines" : [ 							{
								"patchline" : 								{
									"source" : [ "obj-18", 0 ],
									"destination" : [ "obj-6", 0 ],
									"hidden" : 0,
									"midpoints" : [  ]
								}

							}
, 							{
								"patchline" : 								{
									"source" : [ "obj-12", 0 ],
									"destination" : [ "obj-9", 0 ],
									"hidden" : 0,
									"midpoints" : [  ]
								}

							}
, 							{
								"patchline" : 								{
									"source" : [ "obj-4", 0 ],
									"destination" : [ "obj-8", 0 ],
									"hidden" : 0,
									"midpoints" : [  ]
								}

							}
, 							{
								"patchline" : 								{
									"source" : [ "obj-1", 1 ],
									"destination" : [ "obj-45", 0 ],
									"hidden" : 0,
									"midpoints" : [  ]
								}

							}
, 							{
								"patchline" : 								{
									"source" : [ "obj-45", 0 ],
									"destination" : [ "obj-41", 0 ],
									"hidden" : 0,
									"midpoints" : [  ]
								}

							}
, 							{
								"patchline" : 								{
									"source" : [ "obj-45", 0 ],
									"destination" : [ "obj-5", 1 ],
									"hidden" : 0,
									"midpoints" : [  ]
								}

							}
, 							{
								"patchline" : 								{
									"source" : [ "obj-10", 0 ],
									"destination" : [ "obj-12", 0 ],
									"hidden" : 0,
									"midpoints" : [  ]
								}

							}
, 							{
								"patchline" : 								{
									"source" : [ "obj-27", 0 ],
									"destination" : [ "obj-10", 0 ],
									"hidden" : 0,
									"midpoints" : [  ]
								}

							}
, 							{
								"patchline" : 								{
									"source" : [ "obj-1", 0 ],
									"destination" : [ "obj-7", 0 ],
									"hidden" : 0,
									"midpoints" : [  ]
								}

							}
, 							{
								"patchline" : 								{
									"source" : [ "obj-20", 0 ],
									"destination" : [ "obj-18", 0 ],
									"hidden" : 0,
									"midpoints" : [  ]
								}

							}
, 							{
								"patchline" : 								{
									"source" : [ "obj-38", 0 ],
									"destination" : [ "obj-1", 0 ],
									"hidden" : 0,
									"midpoints" : [  ]
								}

							}
, 							{
								"patchline" : 								{
									"source" : [ "obj-41", 1 ],
									"destination" : [ "obj-18", 1 ],
									"hidden" : 0,
									"midpoints" : [  ]
								}

							}
, 							{
								"patchline" : 								{
									"source" : [ "obj-41", 0 ],
									"destination" : [ "obj-20", 0 ],
									"hidden" : 0,
									"midpoints" : [  ]
								}

							}
, 							{
								"patchline" : 								{
									"source" : [ "obj-42", 0 ],
									"destination" : [ "obj-4", 0 ],
									"hidden" : 0,
									"midpoints" : [  ]
								}

							}
, 							{
								"patchline" : 								{
									"source" : [ "obj-6", 0 ],
									"destination" : [ "obj-15", 0 ],
									"hidden" : 0,
									"midpoints" : [  ]
								}

							}
, 							{
								"patchline" : 								{
									"source" : [ "obj-7", 0 ],
									"destination" : [ "obj-18", 1 ],
									"hidden" : 0,
									"color" : [ 0.87451, 0.25098, 0.717647, 1.0 ],
									"midpoints" : [ 218.5, 262.5, 336.5, 262.5 ]
								}

							}
, 							{
								"patchline" : 								{
									"source" : [ "obj-7", 0 ],
									"destination" : [ "obj-5", 1 ],
									"hidden" : 0,
									"color" : [ 0.87451, 0.25098, 0.717647, 1.0 ],
									"midpoints" : [ 218.5, 232.0, 96.5, 232.0 ]
								}

							}
, 							{
								"patchline" : 								{
									"source" : [ "obj-8", 0 ],
									"destination" : [ "obj-5", 0 ],
									"hidden" : 0,
									"midpoints" : [  ]
								}

							}
, 							{
								"patchline" : 								{
									"source" : [ "obj-14", 0 ],
									"destination" : [ "obj-4", 0 ],
									"hidden" : 0,
									"midpoints" : [  ]
								}

							}
, 							{
								"patchline" : 								{
									"source" : [ "obj-12", 0 ],
									"destination" : [ "obj-14", 0 ],
									"hidden" : 0,
									"midpoints" : [ 391.5, 163.0, 50.5, 163.0 ]
								}

							}
, 							{
								"patchline" : 								{
									"source" : [ "obj-9", 0 ],
									"destination" : [ "obj-6", 0 ],
									"hidden" : 0,
									"midpoints" : [  ]
								}

							}
 ]
					}
,
					"saved_object_attributes" : 					{
						"fontname" : "Arial",
						"default_fontface" : 0,
						"globalpatchername" : "",
						"default_fontname" : "Arial",
						"fontface" : 0,
						"fontsize" : 12.0,
						"default_fontsize" : 12.0
					}

				}

			}
, 			{
				"box" : 				{
					"maxclass" : "newobj",
					"text" : "r ---spamOnOff",
					"id" : "obj-3",
					"fontname" : "Arial",
					"patching_rect" : [ 37.0, 356.0, 91.0, 20.0 ],
					"numinlets" : 0,
					"fontsize" : 12.0,
					"numoutlets" : 1,
					"outlettype" : [ "" ]
				}

			}
, 			{
				"box" : 				{
					"maxclass" : "newobj",
					"text" : "gate 1 0",
					"id" : "obj-14",
					"fontname" : "Arial",
					"patching_rect" : [ 123.0, 403.0, 54.0, 20.0 ],
					"numinlets" : 2,
					"fontsize" : 12.0,
					"numoutlets" : 1,
					"outlettype" : [ "" ]
				}

			}
, 			{
				"box" : 				{
					"maxclass" : "newobj",
					"text" : "loadbang",
					"id" : "obj-29",
					"fontname" : "Arial",
					"patching_rect" : [ 174.0, 10.0, 60.0, 20.0 ],
					"numinlets" : 1,
					"fontsize" : 12.0,
					"numoutlets" : 1,
					"outlettype" : [ "bang" ]
				}

			}
, 			{
				"box" : 				{
					"maxclass" : "newobj",
					"text" : "- 1",
					"id" : "obj-5",
					"fontname" : "Arial",
					"patching_rect" : [ 174.0, 68.0, 32.5, 20.0 ],
					"numinlets" : 2,
					"fontsize" : 12.0,
					"numoutlets" : 1,
					"outlettype" : [ "int" ]
				}

			}
, 			{
				"box" : 				{
					"maxclass" : "comment",
					"text" : "fader #",
					"id" : "obj-8",
					"fontname" : "Arial",
					"patching_rect" : [ 124.0, 69.0, 48.0, 20.0 ],
					"numinlets" : 1,
					"fontsize" : 12.0,
					"numoutlets" : 0
				}

			}
, 			{
				"box" : 				{
					"maxclass" : "newobj",
					"text" : "thispoly~",
					"id" : "obj-27",
					"fontname" : "Arial",
					"patching_rect" : [ 174.0, 40.0, 58.0, 20.0 ],
					"numinlets" : 1,
					"fontsize" : 12.0,
					"numoutlets" : 2,
					"outlettype" : [ "int", "int" ]
				}

			}
, 			{
				"box" : 				{
					"maxclass" : "comment",
					"text" : "if no track # : set id \"-1\"",
					"id" : "obj-24",
					"fontname" : "Arial",
					"patching_rect" : [ 192.0, 337.0, 138.0, 20.0 ],
					"numinlets" : 1,
					"fontsize" : 12.0,
					"numoutlets" : 0
				}

			}
, 			{
				"box" : 				{
					"maxclass" : "newobj",
					"text" : "i",
					"id" : "obj-21",
					"fontname" : "Arial",
					"patching_rect" : [ 158.0, 337.0, 33.0, 20.0 ],
					"numinlets" : 2,
					"fontsize" : 12.0,
					"numoutlets" : 1,
					"outlettype" : [ "int" ]
				}

			}
, 			{
				"box" : 				{
					"maxclass" : "newobj",
					"text" : "t -1",
					"id" : "obj-11",
					"fontname" : "Arial",
					"patching_rect" : [ 300.0, 263.0, 32.0, 20.0 ],
					"numinlets" : 1,
					"fontsize" : 12.0,
					"numoutlets" : 1,
					"outlettype" : [ "int" ]
				}

			}
, 			{
				"box" : 				{
					"maxclass" : "newobj",
					"text" : "- 1",
					"id" : "obj-80",
					"fontname" : "Arial",
					"patching_rect" : [ 300.0, 204.0, 33.0, 20.0 ],
					"numinlets" : 2,
					"fontsize" : 12.0,
					"numoutlets" : 1,
					"outlettype" : [ "int" ]
				}

			}
, 			{
				"box" : 				{
					"maxclass" : "newobj",
					"text" : "i",
					"id" : "obj-19",
					"fontname" : "Arial",
					"patching_rect" : [ 158.0, 150.0, 34.5, 20.0 ],
					"numinlets" : 2,
					"fontsize" : 12.0,
					"numoutlets" : 1,
					"outlettype" : [ "int" ]
				}

			}
, 			{
				"box" : 				{
					"maxclass" : "newobj",
					"text" : "t b i",
					"id" : "obj-36",
					"fontname" : "Arial",
					"patching_rect" : [ 272.0, 105.0, 47.0, 20.0 ],
					"numinlets" : 1,
					"fontsize" : 12.0,
					"numoutlets" : 2,
					"outlettype" : [ "bang", "int" ]
				}

			}
, 			{
				"box" : 				{
					"maxclass" : "newobj",
					"text" : "split 0 7",
					"id" : "obj-22",
					"fontname" : "Arial",
					"patching_rect" : [ 158.0, 237.0, 161.0, 20.0 ],
					"numinlets" : 3,
					"fontsize" : 12.0,
					"numoutlets" : 2,
					"outlettype" : [ "int", "int" ]
				}

			}
, 			{
				"box" : 				{
					"maxclass" : "newobj",
					"text" : "bondo",
					"id" : "obj-32",
					"fontname" : "Arial",
					"patching_rect" : [ 158.0, 183.0, 57.0, 20.0 ],
					"numinlets" : 2,
					"fontsize" : 12.0,
					"numoutlets" : 2,
					"outlettype" : [ "", "" ]
				}

			}
, 			{
				"box" : 				{
					"maxclass" : "newobj",
					"text" : "+ 0",
					"id" : "obj-28",
					"fontname" : "Arial",
					"patching_rect" : [ 158.0, 210.0, 57.0, 20.0 ],
					"numinlets" : 2,
					"fontsize" : 12.0,
					"numoutlets" : 1,
					"outlettype" : [ "int" ]
				}

			}
, 			{
				"box" : 				{
					"maxclass" : "newobj",
					"text" : "r #1offset_tracks",
					"color" : [ 0.392157, 0.278431, 0.376471, 1.0 ],
					"id" : "obj-31",
					"fontname" : "Arial",
					"patching_rect" : [ 196.0, 150.0, 100.0, 20.0 ],
					"numinlets" : 0,
					"fontsize" : 12.0,
					"numoutlets" : 1,
					"outlettype" : [ "" ]
				}

			}
, 			{
				"box" : 				{
					"maxclass" : "newobj",
					"text" : "r visible_tracks_count",
					"color" : [ 0.415686, 0.239216, 0.109804, 1.0 ],
					"id" : "obj-54",
					"fontname" : "Arial",
					"patching_rect" : [ 272.0, 76.0, 126.0, 20.0 ],
					"numinlets" : 0,
					"fontsize" : 12.0,
					"numoutlets" : 1,
					"outlettype" : [ "" ]
				}

			}
, 			{
				"box" : 				{
					"maxclass" : "number",
					"id" : "obj-48",
					"fontname" : "Arial",
					"patching_rect" : [ 158.0, 302.0, 53.0, 20.0 ],
					"numinlets" : 1,
					"fontsize" : 12.0,
					"numoutlets" : 2,
					"outlettype" : [ "int", "bang" ]
				}

			}
 ],
		"lines" : [ 			{
				"patchline" : 				{
					"source" : [ "obj-54", 0 ],
					"destination" : [ "obj-36", 0 ],
					"hidden" : 0,
					"midpoints" : [  ]
				}

			}
, 			{
				"patchline" : 				{
					"source" : [ "obj-21", 0 ],
					"destination" : [ "obj-14", 1 ],
					"hidden" : 0,
					"midpoints" : [  ]
				}

			}
, 			{
				"patchline" : 				{
					"source" : [ "obj-3", 0 ],
					"destination" : [ "obj-14", 0 ],
					"hidden" : 0,
					"midpoints" : [ 46.5, 396.5, 132.5, 396.5 ]
				}

			}
, 			{
				"patchline" : 				{
					"source" : [ "obj-14", 0 ],
					"destination" : [ "obj-7", 0 ],
					"hidden" : 0,
					"midpoints" : [  ]
				}

			}
, 			{
				"patchline" : 				{
					"source" : [ "obj-14", 0 ],
					"destination" : [ "obj-12", 0 ],
					"hidden" : 0,
					"midpoints" : [  ]
				}

			}
, 			{
				"patchline" : 				{
					"source" : [ "obj-5", 0 ],
					"destination" : [ "obj-19", 1 ],
					"hidden" : 0,
					"midpoints" : [  ]
				}

			}
, 			{
				"patchline" : 				{
					"source" : [ "obj-19", 0 ],
					"destination" : [ "obj-32", 0 ],
					"hidden" : 0,
					"midpoints" : [  ]
				}

			}
, 			{
				"patchline" : 				{
					"source" : [ "obj-36", 0 ],
					"destination" : [ "obj-19", 0 ],
					"hidden" : 0,
					"midpoints" : [ 281.5, 137.0, 167.5, 137.0 ]
				}

			}
, 			{
				"patchline" : 				{
					"source" : [ "obj-80", 0 ],
					"destination" : [ "obj-22", 2 ],
					"hidden" : 0,
					"midpoints" : [  ]
				}

			}
, 			{
				"patchline" : 				{
					"source" : [ "obj-36", 1 ],
					"destination" : [ "obj-80", 0 ],
					"hidden" : 0,
					"midpoints" : [  ]
				}

			}
, 			{
				"patchline" : 				{
					"source" : [ "obj-32", 0 ],
					"destination" : [ "obj-28", 0 ],
					"hidden" : 0,
					"midpoints" : [  ]
				}

			}
, 			{
				"patchline" : 				{
					"source" : [ "obj-32", 1 ],
					"destination" : [ "obj-28", 1 ],
					"hidden" : 0,
					"midpoints" : [  ]
				}

			}
, 			{
				"patchline" : 				{
					"source" : [ "obj-31", 0 ],
					"destination" : [ "obj-32", 1 ],
					"hidden" : 0,
					"midpoints" : [  ]
				}

			}
, 			{
				"patchline" : 				{
					"source" : [ "obj-28", 0 ],
					"destination" : [ "obj-22", 0 ],
					"hidden" : 0,
					"midpoints" : [  ]
				}

			}
, 			{
				"patchline" : 				{
					"source" : [ "obj-22", 0 ],
					"destination" : [ "obj-48", 0 ],
					"hidden" : 0,
					"midpoints" : [  ]
				}

			}
, 			{
				"patchline" : 				{
					"source" : [ "obj-22", 1 ],
					"destination" : [ "obj-11", 0 ],
					"hidden" : 0,
					"midpoints" : [  ]
				}

			}
, 			{
				"patchline" : 				{
					"source" : [ "obj-11", 0 ],
					"destination" : [ "obj-48", 0 ],
					"hidden" : 0,
					"midpoints" : [ 309.5, 290.5, 167.5, 290.5 ]
				}

			}
, 			{
				"patchline" : 				{
					"source" : [ "obj-27", 0 ],
					"destination" : [ "obj-5", 0 ],
					"hidden" : 0,
					"midpoints" : [  ]
				}

			}
, 			{
				"patchline" : 				{
					"source" : [ "obj-29", 0 ],
					"destination" : [ "obj-27", 0 ],
					"hidden" : 0,
					"midpoints" : [  ]
				}

			}
, 			{
				"patchline" : 				{
					"source" : [ "obj-3", 0 ],
					"destination" : [ "obj-9", 0 ],
					"hidden" : 0,
					"midpoints" : [  ]
				}

			}
, 			{
				"patchline" : 				{
					"source" : [ "obj-9", 0 ],
					"destination" : [ "obj-19", 0 ],
					"hidden" : 0,
					"midpoints" : [ 46.5, 449.0, 19.0, 449.0, 19.0, 123.0, 167.5, 123.0 ]
				}

			}
, 			{
				"patchline" : 				{
					"source" : [ "obj-48", 0 ],
					"destination" : [ "obj-21", 0 ],
					"hidden" : 0,
					"midpoints" : [  ]
				}

			}
 ]
	}

}
